# This file uses centimeters as units for non-parametric coordinates.

g default
v -1.754002 -0.286144 0.500000
v 1.754002 -0.286144 0.500000
v -1.754002 0.286144 0.500000
v 1.754002 0.286144 0.500000
v -1.754002 0.286144 -0.500000
v 1.754002 0.286144 -0.500000
v -1.754002 -0.286144 -0.500000
v 1.754002 -0.286144 -0.500000
v -1.754002 0.526119 0.500000
v 1.754002 0.526119 0.500000
v 1.754002 0.526119 -0.500000
v -1.754002 0.526119 -0.500000
v -1.754002 -0.526119 -0.500000
v 1.754002 -0.526119 -0.500000
v 1.754002 -0.526119 0.500000
v -1.754002 -0.526119 0.500000
v -1.754002 0.286144 0.894256
v 1.754002 0.286144 0.894256
v 1.754002 0.526119 0.894256
v -1.754002 0.526119 0.894256
v -1.754002 0.286144 -0.894256
v 1.754002 0.286144 -0.894256
v -1.754002 0.526119 -0.894256
v 1.754002 0.526119 -0.894256
v -1.754002 -0.286144 -0.894256
v 1.754002 -0.286144 -0.894256
v 1.754002 -0.526119 -0.894256
v -1.754002 -0.526119 -0.894256
v -1.754002 -0.286144 0.894256
v 1.754002 -0.286144 0.894256
v -1.754002 -0.526119 0.894256
v 1.754002 -0.526119 0.894256
vt 0.086071 0.091589
vt 0.299740 0.091589
vt 0.299740 0.305258
vt 0.086071 0.305258
vt 0.086071 0.001992
vt 0.299740 0.001992
vt 0.299740 0.394855
vt 0.086071 0.394855
vt 0.001830 0.091589
vt 0.001830 0.001992
vt 0.383980 0.001992
vt 0.383980 0.091589
vt 0.383980 0.305258
vt 0.383980 0.394855
vt 0.001830 0.394855
vt 0.001830 0.305258
vt 0.474804 0.091589
vt 0.688473 0.091589
vt 0.688473 0.305258
vt 0.474804 0.305258
vt 0.474804 0.001992
vt 0.688473 0.001992
vt 0.688473 0.394855
vt 0.474804 0.394855
vt 0.390564 0.091589
vt 0.390564 0.001992
vt 0.772714 0.001992
vt 0.772714 0.091589
vt 0.772714 0.305258
vt 0.772714 0.394855
vt 0.390564 0.394855
vt 0.390564 0.305258
vt 0.703238 0.482762
vt 0.916907 0.482762
vt 0.916907 0.696431
vt 0.703238 0.696431
vt 0.703238 0.398522
vt 0.916907 0.398522
vt 0.916907 0.780672
vt 0.703238 0.780672
vt 0.483932 0.482762
vt 0.697601 0.482762
vt 0.697601 0.696431
vt 0.483932 0.696431
vt 0.483932 0.398522
vt 0.697601 0.398522
vt 0.697601 0.780672
vt 0.483932 0.780672
vt 0.388773 0.829527
vt 0.388773 0.615858
vt 0.473014 0.615858
vt 0.473014 0.829527
vt 0.564333 0.784339
vt 0.564333 0.998008
vt 0.480093 0.998008
vt 0.480093 0.784339
vt 0.571412 0.998008
vt 0.571412 0.784339
vt 0.655652 0.784339
vt 0.655652 0.998008
vt 0.746972 0.784339
vt 0.746972 0.998008
vt 0.662731 0.998008
vt 0.662731 0.784339
vt 0.264626 0.612191
vt 0.264626 0.398522
vt 0.478295 0.398522
vt 0.478295 0.612191
vt 0.045320 0.398522
vt 0.258989 0.398522
vt 0.258989 0.612191
vt 0.045320 0.612191
vt 0.001830 0.829527
vt 0.001830 0.615858
vt 0.091427 0.615858
vt 0.091427 0.829527
vt 0.188297 0.615858
vt 0.188297 0.829527
vt 0.098700 0.829527
vt 0.098700 0.615858
vt 0.195391 0.829527
vt 0.195391 0.615858
vt 0.284988 0.615858
vt 0.284988 0.829527
vt 0.381679 0.615858
vt 0.381679 0.829527
vt 0.292082 0.829527
vt 0.292082 0.615858
vn 0.000000 0.000000 1.000000
vn 0.000000 0.000000 1.000000
vn 0.000000 0.000000 1.000000
vn 0.000000 0.000000 1.000000
vn 0.000000 1.000000 0.000000
vn 0.000000 1.000000 0.000000
vn 0.000000 1.000000 0.000000
vn 0.000000 1.000000 0.000000
vn 0.000000 0.000000 -1.000000
vn 0.000000 0.000000 -1.000000
vn 0.000000 0.000000 -1.000000
vn 0.000000 0.000000 -1.000000
vn 0.000000 -1.000000 0.000000
vn 0.000000 -1.000000 0.000000
vn 0.000000 -1.000000 0.000000
vn 0.000000 -1.000000 0.000000
vn 1.000000 0.000000 0.000000
vn 1.000000 0.000000 0.000000
vn 1.000000 0.000000 0.000000
vn 1.000000 0.000000 0.000000
vn -1.000000 0.000000 0.000000
vn -1.000000 0.000000 0.000000
vn -1.000000 0.000000 0.000000
vn -1.000000 0.000000 0.000000
vn 0.000000 0.000000 1.000000
vn 0.000000 0.000000 1.000000
vn 0.000000 0.000000 1.000000
vn 0.000000 0.000000 1.000000
vn 1.000000 0.000000 0.000000
vn 1.000000 0.000000 0.000000
vn 0.000000 0.000000 -1.000000
vn 0.000000 0.000000 -1.000000
vn 0.000000 0.000000 -1.000000
vn 0.000000 0.000000 -1.000000
vn -1.000000 0.000000 0.000000
vn -1.000000 0.000000 0.000000
vn 0.000000 0.000000 -1.000000
vn 0.000000 0.000000 -1.000000
vn 0.000000 0.000000 -1.000000
vn 0.000000 0.000000 -1.000000
vn 1.000000 0.000000 0.000000
vn 1.000000 0.000000 0.000000
vn 0.000000 0.000000 1.000000
vn 0.000000 0.000000 1.000000
vn 0.000000 0.000000 1.000000
vn 0.000000 0.000000 1.000000
vn -1.000000 0.000000 0.000000
vn -1.000000 0.000000 0.000000
vn 0.000000 -1.000000 0.000000
vn 0.000000 -1.000000 0.000000
vn 0.000000 -1.000000 0.000000
vn 0.000000 -1.000000 0.000000
vn 1.000000 0.000000 0.000000
vn 1.000000 0.000000 0.000000
vn 1.000000 0.000000 0.000000
vn 1.000000 0.000000 0.000000
vn 0.000000 1.000000 0.000000
vn 0.000000 1.000000 0.000000
vn 0.000000 1.000000 0.000000
vn 0.000000 1.000000 0.000000
vn -1.000000 0.000000 0.000000
vn -1.000000 0.000000 0.000000
vn -1.000000 0.000000 0.000000
vn -1.000000 0.000000 0.000000
vn 0.000000 -1.000000 0.000000
vn 0.000000 -1.000000 0.000000
vn 0.000000 -1.000000 0.000000
vn 0.000000 -1.000000 0.000000
vn -1.000000 0.000000 0.000000
vn -1.000000 0.000000 0.000000
vn -1.000000 0.000000 0.000000
vn -1.000000 0.000000 0.000000
vn 0.000000 1.000000 0.000000
vn 0.000000 1.000000 0.000000
vn 0.000000 1.000000 0.000000
vn 0.000000 1.000000 0.000000
vn 1.000000 0.000000 0.000000
vn 1.000000 0.000000 0.000000
vn 1.000000 0.000000 0.000000
vn 1.000000 0.000000 0.000000
vn 0.000000 1.000000 0.000000
vn 0.000000 1.000000 0.000000
vn 0.000000 1.000000 0.000000
vn 0.000000 1.000000 0.000000
vn 1.000000 0.000000 0.000000
vn 1.000000 0.000000 0.000000
vn 1.000000 0.000000 0.000000
vn 1.000000 0.000000 0.000000
vn 0.000000 -1.000000 0.000000
vn 0.000000 -1.000000 0.000000
vn 0.000000 -1.000000 0.000000
vn 0.000000 -1.000000 0.000000
vn -1.000000 0.000000 0.000000
vn -1.000000 0.000000 0.000000
vn -1.000000 0.000000 0.000000
vn -1.000000 0.000000 0.000000
vn 0.000000 1.000000 0.000000
vn 0.000000 1.000000 0.000000
vn 0.000000 1.000000 0.000000
vn 0.000000 1.000000 0.000000
vn -1.000000 0.000000 0.000000
vn -1.000000 0.000000 0.000000
vn -1.000000 0.000000 0.000000
vn -1.000000 0.000000 0.000000
vn 0.000000 -1.000000 0.000000
vn 0.000000 -1.000000 0.000000
vn 0.000000 -1.000000 0.000000
vn 0.000000 -1.000000 0.000000
vn 1.000000 0.000000 0.000000
vn 1.000000 0.000000 0.000000
vn 1.000000 0.000000 0.000000
vn 1.000000 0.000000 0.000000
s off
g pCube1
f 1/65/1 2/66/2 4/67/3 3/68/4
f 9/33/5 10/34/6 11/35/7 12/36/8
f 5/69/9 6/70/10 8/71/11 7/72/12
f 13/41/13 14/42/14 15/43/15 16/44/16
s 1
f 2/1/17 8/2/18 6/3/19 4/4/20
s 2
f 7/17/21 1/18/22 3/19/23 5/20/24
s off
f 17/73/25 18/74/26 19/75/27 20/76/28
s 1
f 4/4/20 6/3/19 11/7/29 10/8/30
s off
f 22/77/31 21/78/32 23/79/33 24/80/34
s 2
f 5/20/24 3/19/23 9/23/35 12/24/36
s off
f 25/81/37 26/82/38 27/83/39 28/84/40
s 1
f 8/2/18 2/1/17 15/5/41 14/6/42
s off
f 30/85/43 29/86/44 31/87/45 32/88/46
s 2
f 1/18/22 7/17/21 13/21/47 16/22/48
s off
f 3/49/49 4/50/50 18/51/51 17/52/52
f 4/4/53 10/8/54 19/15/55 18/16/56
f 10/34/57 9/33/58 20/37/59 19/38/60
f 9/23/61 3/19/62 17/29/63 20/30/64
f 6/53/65 5/54/66 21/55/67 22/56/68
f 5/20/69 12/24/70 23/31/71 21/32/72
f 12/36/73 11/35/74 24/39/75 23/40/76
f 11/7/77 6/3/78 22/13/79 24/14/80
f 7/57/81 8/58/82 26/59/83 25/60/84
f 8/2/85 14/6/86 27/11/87 26/12/88
f 14/42/89 13/41/90 28/45/91 27/46/92
f 13/21/93 7/17/94 25/25/95 28/26/96
f 2/61/97 1/62/98 29/63/99 30/64/100
f 1/18/101 16/22/102 31/27/103 29/28/104
f 16/44/105 15/43/106 32/47/107 31/48/108
f 15/5/109 2/1/110 30/9/111 32/10/112
