# This file uses centimeters as units for non-parametric coordinates.

mtllib wire.mtl
g default
v 0.055810 0.137780 -0.967830
v 0.048497 0.155476 -0.967830
v 0.035722 0.169825 -0.967830
v 0.018924 0.179141 -0.967830
v 0.000000 0.182366 -0.967830
v -0.018924 0.179141 -0.967830
v -0.035722 0.169825 -0.967830
v -0.048497 0.155476 -0.967830
v -0.055810 0.137780 -0.967830
v -0.056969 0.119010 -0.967830
v -0.052646 0.101698 -0.967829
v -0.044458 0.086862 -0.967829
v -0.032728 0.074602 -0.967829
v -0.017490 0.066165 -0.967829
v -0.000000 0.063128 -0.967829
v 0.017490 0.066165 -0.967829
v 0.032728 0.074602 -0.967829
v 0.044458 0.086862 -0.967829
v 0.052646 0.101698 -0.967829
v 0.056969 0.119010 -0.967829
v 0.055786 0.137849 0.967796
v 0.048470 0.155513 0.967796
v 0.035701 0.169841 0.967797
v 0.018913 0.179146 0.967797
v 0.000000 0.182368 0.967797
v -0.018913 0.179146 0.967797
v -0.035701 0.169841 0.967797
v -0.048470 0.155513 0.967796
v -0.055786 0.137849 0.967796
v -0.056964 0.119118 0.967796
v -0.052643 0.101810 0.967796
v -0.044371 0.087000 0.967796
v -0.032566 0.074863 0.967796
v -0.017365 0.066569 0.967796
v -0.000000 0.063593 0.967796
v 0.017365 0.066569 0.967796
v 0.032566 0.074863 0.967796
v 0.044371 0.087000 0.967796
v 0.052643 0.101810 0.967796
v 0.056964 0.119118 0.967796
v 0.000000 0.125996 -0.967829
v 0.000000 0.125996 0.967796
v 0.056352 0.005455 0.511172
v 0.053394 -0.013233 0.511172
v 0.045277 -0.029167 0.511172
v 0.032977 -0.041642 0.511172
v 0.017406 -0.049757 0.511172
v -0.000000 -0.052586 0.511172
v -0.017406 -0.049757 0.511172
v -0.032977 -0.041642 0.511172
v -0.045277 -0.029167 0.511172
v -0.053394 -0.013233 0.511172
v -0.056352 0.005455 0.511172
v -0.053353 0.023905 0.511172
v -0.045397 0.039584 0.511172
v -0.033197 0.052091 0.511172
v -0.017565 0.060324 0.511172
v 0.000000 0.063207 0.511172
v 0.017565 0.060324 0.511172
v 0.033197 0.052091 0.511172
v 0.045397 0.039584 0.511172
v 0.053353 0.023906 0.511172
v 0.056352 0.005377 -0.533958
v 0.053360 -0.013411 -0.533958
v 0.045311 -0.029274 -0.533958
v 0.033081 -0.041787 -0.533958
v 0.017492 -0.049990 -0.533958
v -0.000000 -0.052860 -0.533958
v -0.017492 -0.049990 -0.533958
v -0.033081 -0.041787 -0.533958
v -0.045311 -0.029274 -0.533958
v -0.053360 -0.013411 -0.533958
v -0.056352 0.005377 -0.533958
v -0.053346 0.024011 -0.533958
v -0.045408 0.039723 -0.533958
v -0.033238 0.052274 -0.533958
v -0.017602 0.060561 -0.533958
v 0.000000 0.063468 -0.533958
v 0.017602 0.060561 -0.533958
v 0.033238 0.052274 -0.533958
v 0.045409 0.039723 -0.533958
v 0.053346 0.024011 -0.533958
v 0.056397 -0.068070 0.146869
v 0.054131 -0.086352 0.146869
v 0.046152 -0.102929 0.146869
v 0.033498 -0.115912 0.146869
v 0.017585 -0.124144 0.146869
v -0.000000 -0.126961 0.146869
v -0.017585 -0.124144 0.146869
v -0.033498 -0.115912 0.146869
v -0.046152 -0.102929 0.146869
v -0.054131 -0.086352 0.146869
v -0.056397 -0.068070 0.146869
v -0.052936 -0.050698 0.146869
v -0.044729 -0.035819 0.146869
v -0.032498 -0.024043 0.146869
v -0.017117 -0.016370 0.146869
v 0.000000 -0.013700 0.146869
v 0.017117 -0.016370 0.146869
v 0.032498 -0.024043 0.146869
v 0.044729 -0.035819 0.146869
v 0.052936 -0.050698 0.146869
v 0.056499 -0.076992 -0.162847
v 0.054798 -0.095363 -0.162846
v 0.047198 -0.112327 -0.162846
v 0.034555 -0.125890 -0.162846
v 0.018245 -0.134634 -0.162846
v -0.000000 -0.137653 -0.162846
v -0.018245 -0.134634 -0.162846
v -0.034555 -0.125890 -0.162846
v -0.047198 -0.112327 -0.162846
v -0.054798 -0.095363 -0.162846
v -0.056499 -0.076992 -0.162847
v -0.052450 -0.059812 -0.162847
v -0.043791 -0.045401 -0.162847
v -0.031455 -0.034284 -0.162847
v -0.016433 -0.027210 -0.162847
v 0.000000 -0.024782 -0.162847
v 0.016433 -0.027210 -0.162847
v 0.031455 -0.034284 -0.162847
v 0.043791 -0.045401 -0.162847
v 0.052450 -0.059812 -0.162847
vt 0.531703 0.966744
vt 0.531703 0.933652
vt 0.622881 0.733308
vt 0.622881 0.766163
vt 0.531703 0.903130
vt 0.622881 0.700185
vt 0.700870 0.588087
vt 0.700870 0.618377
vt 0.531703 0.997943
vt 0.622881 0.793863
vt 0.531703 0.876973
vt 0.622881 0.672217
vt 0.700870 0.555698
vt 0.765957 0.603818
vt 0.765957 0.634445
vt 0.700870 0.643784
vt 0.700870 0.525790
vt 0.765957 0.571585
vt 0.842515 0.733446
vt 0.842515 0.765976
vt 0.765957 0.660677
vt 0.765957 0.542358
vt 0.842515 0.700499
vt 0.938474 0.933842
vt 0.938474 0.966866
vt 0.842515 0.793619
vt 0.700870 0.663385
vt 0.765957 0.681439
vt 0.700870 0.501877
vt 0.765957 0.519469
vt 0.842515 0.672407
vt 0.938474 0.903326
vt 0.938474 0.998008
vt 0.938474 0.877215
vt 0.416245 0.096871
vt 0.416245 0.066348
vt 0.507423 0.266692
vt 0.507423 0.299815
vt 0.416245 0.033257
vt 0.507423 0.233837
vt 0.585412 0.411913
vt 0.585412 0.444302
vt 0.416245 0.123028
vt 0.507423 0.327783
vt 0.416245 0.002057
vt 0.507423 0.206137
vt 0.585412 0.381623
vt 0.650498 0.396182
vt 0.650498 0.428415
vt 0.585412 0.474210
vt 0.585412 0.356216
vt 0.650498 0.365555
vt 0.727057 0.266554
vt 0.727057 0.299501
vt 0.650498 0.457642
vt 0.650498 0.339323
vt 0.727057 0.234024
vt 0.823016 0.066158
vt 0.823016 0.096674
vt 0.727057 0.327594
vt 0.585412 0.498123
vt 0.650498 0.480531
vt 0.585412 0.336616
vt 0.650498 0.318561
vt 0.727057 0.206381
vt 0.823016 0.033134
vt 0.823016 0.122785
vt 0.823016 0.001992
vt 0.525934 0.905271
vt 0.503410 0.930570
vt 0.499031 0.723319
vt 0.520489 0.701191
vt 0.473795 0.946993
vt 0.471464 0.737930
vt 0.495888 0.570713
vt 0.517638 0.551112
vt 0.440431 0.952680
vt 0.440431 0.743055
vt 0.469403 0.583184
vt 0.407066 0.946993
vt 0.409397 0.737930
vt 0.440431 0.587466
vt 0.377451 0.930570
vt 0.381830 0.723319
vt 0.411458 0.583184
vt 0.354928 0.905271
vt 0.360373 0.701191
vt 0.384973 0.570713
vt 0.363224 0.551112
vt 0.023931 0.170372
vt 0.044613 0.191987
vt 0.043990 0.397188
vt 0.022428 0.375127
vt 0.102314 0.101376
vt 0.071477 0.206862
vt 0.071474 0.411650
vt 0.041390 0.545468
vt 0.019101 0.521554
vt 0.009496 0.144215
vt 0.102314 0.212216
vt 0.102314 0.416710
vt 0.070147 0.560883
vt 0.001873 0.113692
vt 0.133150 0.206862
vt 0.133153 0.411650
vt 0.102314 0.566206
vt 0.003917 0.080601
vt 0.160014 0.191987
vt 0.160637 0.397188
vt 0.134480 0.560883
vt 0.016810 0.049401
vt 0.180696 0.170372
vt 0.182199 0.375127
vt 0.163237 0.545468
vt 0.039334 0.024103
vt 0.185526 0.521554
vt 0.068949 0.007679
vt 0.195131 0.144215
vt 0.102314 0.001992
vt 0.202754 0.113692
vt 0.135678 0.007679
vt 0.200711 0.080601
vt 0.165293 0.024103
vt 0.187817 0.049401
vt 0.407936 0.468869
vt 0.395037 0.500012
vt 0.309582 0.447972
vt 0.372524 0.525274
vt 0.410013 0.435846
vt 0.342926 0.541678
vt 0.402394 0.405330
vt 0.309582 0.547359
vt 0.387810 0.379219
vt 0.276237 0.541678
vt 0.366998 0.357821
vt 0.246640 0.525274
vt 0.367722 0.152415
vt 0.389408 0.174410
vt 0.340197 0.343197
vt 0.224126 0.500012
vt 0.368641 0.021473
vt 0.390950 0.044362
vt 0.340269 0.138107
vt 0.309582 0.337950
vt 0.211228 0.468869
vt 0.340586 0.006959
vt 0.309582 0.133120
vt 0.278967 0.343197
vt 0.209151 0.435846
vt 0.309582 0.001992
vt 0.278895 0.138107
vt 0.252166 0.357821
vt 0.216769 0.405330
vt 0.278578 0.006959
vt 0.251442 0.152415
vt 0.231354 0.379219
vt 0.250523 0.021473
vt 0.229756 0.174410
vt 0.228214 0.044362
vt 0.205174 0.799646
vt 0.183664 0.821695
vt 0.178247 0.617306
vt 0.200760 0.592044
vt 0.206407 0.933875
vt 0.184842 0.954637
vt 0.232734 0.785130
vt 0.230358 0.575640
vt 0.233525 0.920347
vt 0.263703 0.780047
vt 0.263703 0.569959
vt 0.263703 0.915640
vt 0.294671 0.785130
vt 0.297047 0.575640
vt 0.293880 0.920347
vt 0.322232 0.799646
vt 0.326645 0.592044
vt 0.320999 0.933875
vt 0.343741 0.821695
vt 0.349158 0.617306
vt 0.342563 0.954637
vt 0.107391 0.598716
vt 0.107391 0.569959
vt 0.172478 0.571823
vt 0.172478 0.599879
vt 0.107391 0.630883
vt 0.172478 0.630883
vt 0.107391 0.663049
vt 0.172478 0.661886
vt 0.107391 0.691806
vt 0.172478 0.689942
vt 0.101622 0.656228
vt 0.101622 0.682713
vt 0.036536 0.684551
vt 0.036536 0.657433
vt 0.101622 0.627255
vt 0.036536 0.627255
vt 0.101622 0.598283
vt 0.036536 0.597078
vt 0.101622 0.571798
vt 0.036536 0.569959
vn 0.923065 0.370473 0.103439
vn 0.763850 0.622108 0.171799
vn 0.815887 0.559999 0.143976
vn 0.956970 0.281373 0.070978
vn 0.544028 0.809072 0.222344
vn 0.593669 0.779074 0.201496
vn 0.282595 0.925107 0.253608
vn 0.312409 0.919550 0.238387
vn 0.000000 0.964469 0.264196
vn 0.000000 0.967962 0.251097
vn -0.282595 0.925107 0.253608
vn -0.312409 0.919550 0.238387
vn -0.544028 0.809071 0.222343
vn -0.593670 0.779073 0.201496
vn -0.763850 0.622108 0.171799
vn -0.815888 0.559999 0.143976
vn -0.923065 0.370474 0.103439
vn -0.956969 0.281375 0.070979
vn -0.997693 0.064887 0.019962
vn -0.999795 -0.018943 -0.007120
vn -0.965933 -0.250084 -0.066569
vn -0.947828 -0.308603 -0.079912
vn -0.839854 -0.524082 -0.141364
vn -0.807213 -0.572322 -0.144407
vn -0.631585 -0.748702 -0.201357
vn -0.588881 -0.784198 -0.195585
vn -0.341365 -0.907913 -0.243235
vn -0.310653 -0.922589 -0.228745
vn 0.000000 -0.966028 -0.258437
vn 0.000000 -0.970716 -0.240232
vn 0.341365 -0.907913 -0.243236
vn 0.310653 -0.922589 -0.228745
vn 0.631585 -0.748703 -0.201358
vn 0.588881 -0.784198 -0.195586
vn 0.839854 -0.524082 -0.141364
vn 0.807214 -0.572322 -0.144407
vn 0.965933 -0.250083 -0.066568
vn 0.947828 -0.308602 -0.079911
vn 0.997693 0.064885 0.019962
vn 0.999795 -0.018944 -0.007121
vn -0.000009 -0.000007 -1.000000
vn -0.000010 -0.000003 -1.000000
vn 0.000000 -0.000003 -1.000000
vn -0.000007 -0.000007 -1.000000
vn -0.000004 -0.000009 -1.000000
vn -0.000000 -0.000012 -1.000000
vn 0.000004 -0.000013 -1.000000
vn 0.000007 -0.000010 -1.000000
vn 0.000009 -0.000007 -1.000000
vn 0.000010 -0.000003 -1.000000
vn 0.000011 -0.000000 -1.000000
vn 0.000010 -0.000004 -1.000000
vn 0.000008 0.000000 -1.000000
vn 0.000005 0.000005 -1.000000
vn 0.000002 0.000004 -1.000000
vn -0.000000 0.000004 -1.000000
vn -0.000002 0.000005 -1.000000
vn -0.000005 0.000007 -1.000000
vn -0.000008 0.000004 -1.000000
vn -0.000009 -0.000003 -1.000000
vn -0.000010 -0.000003 -1.000000
vn -0.000010 0.000000 1.000000
vn -0.000008 -0.000007 1.000000
vn -0.000000 -0.000002 1.000000
vn -0.000006 -0.000010 1.000000
vn -0.000004 -0.000008 1.000000
vn 0.000000 -0.000010 1.000000
vn 0.000004 -0.000010 1.000000
vn 0.000006 -0.000012 1.000000
vn 0.000008 -0.000010 1.000000
vn 0.000010 0.000000 1.000000
vn 0.000010 0.000003 1.000000
vn 0.000011 0.000000 1.000000
vn 0.000009 0.000004 1.000000
vn 0.000006 0.000007 1.000000
vn 0.000004 0.000005 1.000000
vn -0.000000 0.000006 1.000000
vn -0.000004 0.000008 1.000000
vn -0.000006 0.000007 1.000000
vn -0.000009 0.000000 1.000000
vn -0.000011 -0.000000 1.000000
vn -0.000010 0.000003 1.000000
vn 0.943566 -0.321953 0.077649
vn 0.999451 -0.031548 0.010118
vn 0.997774 0.064009 -0.018709
vn 0.965632 -0.251966 0.063783
vn 0.800447 -0.583585 0.136798
vn 0.837853 -0.528782 0.135614
vn 0.581944 -0.792254 0.183508
vn 0.627679 -0.754180 0.192954
vn 0.306382 -0.927629 0.213622
vn 0.338486 -0.911807 0.232457
vn 0.000000 -0.974582 0.224033
vn 0.000000 -0.969085 0.246728
vn -0.306382 -0.927629 0.213622
vn -0.338486 -0.911807 0.232457
vn -0.581944 -0.792254 0.183508
vn -0.627679 -0.754180 0.192954
vn -0.800446 -0.583585 0.136798
vn -0.837853 -0.528783 0.135614
vn -0.943566 -0.321954 0.077649
vn -0.965631 -0.251967 0.063783
vn -0.999451 -0.031547 0.010118
vn -0.997774 0.064012 -0.018709
vn -0.960339 0.271580 -0.063200
vn -0.923742 0.370187 -0.098293
vn -0.821751 0.554277 -0.132297
vn -0.764739 0.623184 -0.163756
vn -0.599301 0.778322 -0.187226
vn -0.544759 0.811292 -0.212233
vn -0.315752 0.922366 -0.222579
vn -0.283019 0.928022 -0.242229
vn -0.000000 0.972050 -0.234775
vn -0.000000 0.967625 -0.252392
vn 0.315752 0.922366 -0.222579
vn 0.283018 0.928022 -0.242229
vn 0.599301 0.778322 -0.187226
vn 0.544759 0.811292 -0.212233
vn 0.821750 0.554278 -0.132297
vn 0.764739 0.623184 -0.163756
vn 0.960339 0.271578 -0.063199
vn 0.923743 0.370187 -0.098292
vn 0.999524 -0.029182 -0.009967
vn 0.939900 -0.338825 -0.042250
vn 0.790526 -0.608704 -0.067440
vn 0.569463 -0.817415 -0.086862
vn 0.297857 -0.949422 -0.099394
vn 0.000001 -0.994605 -0.103735
vn -0.297857 -0.949422 -0.099394
vn -0.569464 -0.817414 -0.086862
vn -0.790526 -0.608704 -0.067440
vn -0.939900 -0.338825 -0.042250
vn -0.999524 -0.029181 -0.009967
vn -0.956421 0.290598 0.028506
vn -0.814304 0.576916 0.063847
vn -0.594106 0.799123 0.091879
vn -0.313808 0.943038 0.110471
vn 0.000000 0.993130 0.117012
vn 0.313808 0.943038 0.110471
vn 0.594105 0.799123 0.091879
vn 0.814304 0.576917 0.063847
vn 0.956421 0.290595 0.028506
vn 0.945579 -0.322037 0.046607
vn 0.999865 -0.013735 0.008980
vn 0.799290 -0.595994 0.076984
vn 0.577621 -0.810166 0.099921
vn 0.302647 -0.946219 0.114342
vn 0.000001 -0.992862 0.119270
vn -0.302648 -0.946219 0.114342
vn -0.577622 -0.810166 0.099921
vn -0.799290 -0.595994 0.076984
vn -0.945579 -0.322037 0.046607
vn -0.999865 -0.013734 0.008980
vn -0.953346 0.299990 -0.033715
vn -0.810973 0.580446 -0.073519
vn -0.591642 0.799221 -0.105858
vn -0.312551 0.941291 -0.127604
vn 0.000000 0.990804 -0.135307
vn 0.312551 0.941291 -0.127604
vn 0.591641 0.799221 -0.105858
vn 0.810973 0.580447 -0.073519
vn 0.953347 0.299987 -0.033714
s 1
g wire
usemtl initialShadingGroup
f 1/39/1 2/45/2 81/46/3 82/40/4
f 2/69/2 3/70/5 80/71/6 81/72/3
f 3/70/5 4/73/7 79/74/8 80/71/6
f 4/73/7 5/77/9 78/78/10 79/74/8
f 5/77/9 6/80/11 77/81/12 78/78/10
f 6/80/11 7/83/13 76/84/14 77/81/12
f 7/83/13 8/86/15 75/87/16 76/84/14
f 8/9/15 9/1/17 74/4/18 75/10/16
f 9/1/17 10/2/19 73/3/20 74/4/18
f 10/2/19 11/5/21 72/6/22 73/3/20
f 11/5/21 12/11/23 71/12/24 72/6/22
f 12/90/23 13/91/25 70/92/26 71/93/24
f 13/91/25 14/95/27 69/96/28 70/92/26
f 14/95/27 15/100/29 68/101/30 69/96/28
f 15/100/29 16/104/31 67/105/32 68/101/30
f 16/104/31 17/108/33 66/109/34 67/105/32
f 17/108/33 18/112/35 65/113/36 66/109/34
f 18/43/35 19/35/37 64/38/38 65/44/36
f 19/35/37 20/36/39 63/37/40 64/38/38
f 20/36/39 1/39/1 82/40/4 63/37/40
s 2
f 2/124/41 1/122/42 41/94/43
f 3/123/44 2/124/41 41/94/43
f 4/121/45 3/123/44 41/94/43
f 5/119/46 4/121/45 41/94/43
f 6/117/47 5/119/46 41/94/43
f 7/115/48 6/117/47 41/94/43
f 8/111/49 7/115/48 41/94/43
f 9/107/50 8/111/49 41/94/43
f 10/103/51 9/107/50 41/94/43
f 11/99/52 10/103/51 41/94/43
f 12/90/53 11/99/52 41/94/43
f 13/91/54 12/90/53 41/94/43
f 14/95/55 13/91/54 41/94/43
f 15/100/56 14/95/55 41/94/43
f 16/104/57 15/100/56 41/94/43
f 17/108/58 16/104/57 41/94/43
f 18/112/59 17/108/58 41/94/43
f 19/118/60 18/112/59 41/94/43
f 20/120/61 19/118/60 41/94/43
f 1/122/42 20/120/61 41/94/43
s 3
f 21/125/62 22/126/63 42/127/64
f 22/126/63 23/128/65 42/127/64
f 23/128/65 24/130/66 42/127/64
f 24/130/66 25/132/67 42/127/64
f 25/132/67 26/134/68 42/127/64
f 26/134/68 27/136/69 42/127/64
f 27/136/69 28/140/70 42/127/64
f 28/140/70 29/145/71 42/127/64
f 29/145/71 30/149/72 42/127/64
f 30/149/72 31/153/73 42/127/64
f 31/153/73 32/156/74 42/127/64
f 32/156/74 33/152/75 42/127/64
f 33/152/75 34/148/76 42/127/64
f 34/148/76 35/144/77 42/127/64
f 35/144/77 36/139/78 42/127/64
f 36/139/78 37/135/79 42/127/64
f 37/135/79 38/133/80 42/127/64
f 38/133/80 39/131/81 42/127/64
f 39/131/81 40/129/82 42/127/64
f 40/129/82 21/125/62 42/127/64
s 1
f 44/54/83 43/53/84 40/58/85 39/59/86
f 45/60/87 44/54/83 39/59/86 38/67/88
f 46/137/89 45/138/87 38/133/88 37/135/90
f 47/143/91 46/137/89 37/135/90 36/139/92
f 48/147/93 47/143/91 36/139/92 35/144/94
f 49/151/95 48/147/93 35/144/94 34/148/96
f 50/155/97 49/151/95 34/148/96 33/152/98
f 51/158/99 50/155/97 33/152/98 32/156/100
f 52/23/101 51/31/99 32/34/100 31/32/102
f 53/19/103 52/23/101 31/32/102 30/24/104
f 54/20/105 53/19/103 30/24/104 29/25/106
f 55/26/107 54/20/105 29/25/106 28/33/108
f 56/160/109 55/161/107 28/162/108 27/163/110
f 57/166/111 56/160/109 27/163/110 26/167/112
f 58/169/113 57/166/111 26/167/112 25/170/114
f 59/172/115 58/169/113 25/170/114 24/173/116
f 60/175/117 59/172/115 24/173/116 23/176/118
f 61/178/119 60/175/117 23/176/118 22/179/120
f 62/57/121 61/65/119 22/68/120 21/66/122
f 43/53/84 62/57/121 21/66/122 40/58/85
f 64/38/38 63/37/40 103/41/123 104/42/124
f 65/44/36 64/38/38 104/42/124 105/50/125
f 66/109/34 65/113/36 105/116/125 106/114/126
f 67/105/32 66/109/34 106/114/126 107/110/127
f 68/101/30 67/105/32 107/110/127 108/106/128
f 69/96/28 68/101/30 108/106/128 109/102/129
f 70/92/26 69/96/28 109/102/129 110/97/130
f 71/93/24 70/92/26 110/97/130 111/98/131
f 72/6/22 71/12/24 111/17/131 112/13/132
f 73/3/20 72/6/22 112/13/132 113/7/133
f 74/4/18 73/3/20 113/7/133 114/8/134
f 75/10/16 74/4/18 114/8/134 115/16/135
f 76/84/14 75/87/16 115/89/135 116/88/136
f 77/81/12 76/84/14 116/88/136 117/85/137
f 78/78/10 77/81/12 117/85/137 118/82/138
f 79/74/8 78/78/10 118/82/138 119/79/139
f 80/71/6 79/74/8 119/79/139 120/75/140
f 81/72/3 80/71/6 120/75/140 121/76/141
f 82/40/4 81/46/3 121/51/141 122/47/142
f 63/37/40 82/40/4 122/47/142 103/41/123
f 84/49/143 83/48/144 43/53/84 44/54/83
f 85/55/145 84/49/143 44/54/83 45/60/87
f 86/141/146 85/142/145 45/138/87 46/137/89
f 87/146/147 86/141/146 46/137/89 47/143/91
f 88/150/148 87/146/147 47/143/91 48/147/93
f 89/154/149 88/150/148 48/147/93 49/151/95
f 90/157/150 89/154/149 49/151/95 50/155/97
f 91/159/151 90/157/150 50/155/97 51/158/99
f 92/18/152 91/22/151 51/31/99 52/23/101
f 93/14/153 92/18/152 52/23/101 53/19/103
f 94/15/154 93/14/153 53/19/103 54/20/105
f 95/21/155 94/15/154 54/20/105 55/26/107
f 96/164/156 95/165/155 55/161/107 56/160/109
f 97/168/157 96/164/156 56/160/109 57/166/111
f 98/171/158 97/168/157 57/166/111 58/169/113
f 99/174/159 98/171/158 58/169/113 59/172/115
f 100/177/160 99/174/159 59/172/115 60/175/117
f 101/180/161 100/177/160 60/175/117 61/178/119
f 102/52/162 101/56/161 61/65/119 62/57/121
f 83/48/144 102/52/162 62/57/121 43/53/84
f 104/42/124 103/41/123 83/48/144 84/49/143
f 105/50/125 104/42/124 84/49/143 85/55/145
f 106/61/126 105/50/125 85/55/145 86/62/146
f 107/181/127 106/182/126 86/183/146 87/184/147
f 108/185/128 107/181/127 87/184/147 88/186/148
f 109/187/129 108/185/128 88/186/148 89/188/149
f 110/189/130 109/187/129 89/188/149 90/190/150
f 111/17/131 110/29/130 90/30/150 91/22/151
f 112/13/132 111/17/131 91/22/151 92/18/152
f 113/7/133 112/13/132 92/18/152 93/14/153
f 114/8/134 113/7/133 93/14/153 94/15/154
f 115/16/135 114/8/134 94/15/154 95/21/155
f 116/27/136 115/16/135 95/21/155 96/28/156
f 117/191/137 116/192/136 96/193/156 97/194/157
f 118/195/138 117/191/137 97/194/157 98/196/158
f 119/197/139 118/195/138 98/196/158 99/198/159
f 120/199/140 119/197/139 99/198/159 100/200/160
f 121/51/141 120/63/140 100/64/160 101/56/161
f 122/47/142 121/51/141 101/56/161 102/52/162
f 103/41/123 122/47/142 102/52/162 83/48/144
