# This file uses centimeters as units for non-parametric coordinates.

mtllib frosted_door.mtl
g default
v -0.250000 0.000000 0.000000
v 0.250000 0.000000 0.000000
v -0.250000 1.000000 0.000000
v 0.250000 1.000000 0.000000
v -0.250000 1.000000 -0.062500
v 0.250000 1.000000 -0.062500
v -0.250000 0.000000 -0.062500
v 0.250000 0.000000 -0.062500
v -0.250000 0.958402 0.000000
v -0.250000 0.958402 -0.062500
v 0.250000 0.958402 -0.062500
v 0.250000 0.958402 0.000000
v -0.199980 1.000000 0.000000
v -0.199980 1.000000 -0.062500
v -0.199980 0.958402 -0.062500
v -0.199980 0.000000 -0.062500
v -0.199980 0.000000 0.000000
v -0.199980 0.958402 0.000000
v 0.189173 1.000000 0.000000
v 0.189173 1.000000 -0.062500
v 0.189173 0.958402 -0.062500
v 0.189173 0.000000 -0.062500
v 0.189173 0.000000 0.000000
v 0.189173 0.958402 0.000000
v -0.199980 0.586183 0.000000
v -0.250000 0.586183 0.000000
v -0.250000 0.586183 -0.062500
v -0.199980 0.586183 -0.062500
v 0.189173 0.586183 -0.062500
v 0.250000 0.586183 -0.062500
v 0.250000 0.586183 0.000000
v 0.189173 0.586183 0.000000
v 0.209934 1.000000 0.000000
v 0.209934 1.000000 -0.062500
v 0.209934 0.958402 -0.062500
v 0.209934 0.586183 -0.062500
v 0.209934 0.000000 -0.062500
v 0.209934 0.000000 0.000000
v 0.209934 0.586183 0.000000
v 0.209934 0.958402 0.000000
v -0.250000 0.476023 0.000000
v -0.250000 0.476023 -0.062500
v -0.199980 0.476023 -0.062500
v 0.189173 0.476023 -0.062500
v 0.209934 0.476023 -0.062500
v 0.250000 0.476023 -0.062500
v 0.250000 0.476023 0.000000
v 0.209934 0.476023 0.000000
v 0.189173 0.476023 0.000000
v -0.199980 0.476023 0.000000
v -0.250000 0.498173 0.000000
v -0.250000 0.498173 -0.062500
v -0.199980 0.498173 -0.062500
v 0.189173 0.498173 -0.062500
v 0.209934 0.498173 -0.062500
v 0.250000 0.498173 -0.062500
v 0.250000 0.498173 0.000000
v 0.209934 0.498173 0.000000
v 0.189173 0.498173 0.000000
v -0.199980 0.498173 0.000000
v -0.250000 0.286076 0.000000
v -0.250000 0.286076 -0.062500
v -0.199980 0.286076 -0.062500
v 0.189173 0.286076 -0.062500
v 0.209934 0.286076 -0.062500
v 0.250000 0.286076 -0.062500
v 0.250000 0.286076 0.000000
v 0.209934 0.286076 0.000000
v 0.189173 0.286076 0.000000
v -0.199980 0.286076 0.000000
v -0.250000 0.267017 0.000000
v -0.250000 0.267017 -0.062500
v -0.199980 0.267017 -0.062500
v 0.189173 0.267017 -0.062500
v 0.209934 0.267017 -0.062500
v 0.250000 0.267017 -0.062500
v 0.250000 0.267017 0.000000
v 0.209934 0.267017 0.000000
v 0.189173 0.267017 0.000000
v -0.199980 0.267017 0.000000
v 0.189173 0.476023 0.060113
v 0.189173 0.493185 0.052594
v 0.209934 0.476023 0.060113
v 0.209934 0.493185 0.052594
v 0.189173 0.272005 0.052594
v 0.189173 0.286076 0.060113
v 0.209934 0.272005 0.052594
v 0.209934 0.286076 0.060113
v 0.209934 0.476023 0.038523
v 0.189173 0.476023 0.038523
v 0.189173 0.498173 0.038523
v 0.209934 0.498173 0.038523
v 0.209934 0.286076 0.038523
v 0.209934 0.267017 0.038523
v 0.189173 0.267017 0.038523
v 0.189173 0.286076 0.038523
v -0.199980 0.586183 -0.036739
v -0.199980 0.958402 -0.036739
v 0.189173 0.586183 -0.036739
v 0.189173 0.958402 -0.036739
vt 0.438933 0.491992
vt 0.469311 0.491992
vt 0.469311 0.621775
vt 0.438933 0.621775
vt 0.469311 0.631038
vt 0.438933 0.631038
vt 0.469311 0.723362
vt 0.438933 0.723362
vt 0.469311 0.734128
vt 0.438933 0.734128
vt 0.469311 0.776905
vt 0.438933 0.776905
vt 0.469311 0.957821
vt 0.438933 0.957821
vt 0.469311 0.978040
vt 0.438933 0.978040
vt 0.402420 0.491992
vt 0.432798 0.491992
vt 0.432798 0.621775
vt 0.402420 0.621775
vt 0.432798 0.631038
vt 0.402420 0.631038
vt 0.432798 0.723362
vt 0.402420 0.723362
vt 0.432798 0.734128
vt 0.402420 0.734128
vt 0.432798 0.776905
vt 0.402420 0.776905
vt 0.432798 0.957821
vt 0.402420 0.957821
vt 0.432798 0.978040
vt 0.402420 0.978040
vt 0.084046 0.604345
vt 0.084046 0.593579
vt 0.102770 0.593579
vt 0.102770 0.604345
vt 0.113264 0.593579
vt 0.109609 0.601920
vt 0.102770 0.501255
vt 0.113264 0.501255
vt 0.102770 0.491992
vt 0.109609 0.494417
vt 0.084046 0.501255
vt 0.084046 0.491992
vt 0.077911 0.593579
vt 0.077911 0.604345
vt 0.059187 0.604345
vt 0.059187 0.593579
vt 0.052347 0.601920
vt 0.048693 0.593579
vt 0.048693 0.501255
vt 0.059187 0.501255
vt 0.059187 0.491992
vt 0.052347 0.494417
vt 0.077911 0.491992
vt 0.077911 0.501255
vt 0.143392 0.672908
vt 0.143392 0.491992
vt 0.161248 0.491992
vt 0.161248 0.672908
vt 0.137256 0.491992
vt 0.137256 0.672908
vt 0.119399 0.672908
vt 0.119399 0.491992
vt 0.495272 0.488000
vt 0.495272 0.439376
vt 0.525650 0.439376
vt 0.525650 0.488000
vt 0.495272 0.061082
vt 0.525650 0.061082
vt 0.495272 0.040900
vt 0.525650 0.040900
vt 0.495272 0.001952
vt 0.525650 0.001952
vt 0.475446 0.978040
vt 0.475446 0.929415
vt 0.505825 0.929415
vt 0.505825 0.978040
vt 0.475446 0.551122
vt 0.505825 0.551122
vt 0.475446 0.530940
vt 0.505825 0.530940
vt 0.475446 0.491992
vt 0.505825 0.491992
vt 0.084043 0.628518
vt 0.084043 0.608337
vt 0.102767 0.608337
vt 0.102767 0.628518
vt 0.049654 0.633900
vt 0.029472 0.633900
vt 0.029472 0.615176
vt 0.049654 0.615176
vt 0.029472 0.608337
vt 0.049654 0.608337
vt 0.056758 0.608337
vt 0.076939 0.608337
vt 0.076939 0.627061
vt 0.056758 0.627061
vt 0.076939 0.633900
vt 0.056758 0.633900
vt 0.128103 0.676900
vt 0.128103 0.697082
vt 0.109379 0.697082
vt 0.109379 0.676900
vt 0.191376 0.870285
vt 0.191376 0.491992
vt 0.209233 0.491992
vt 0.209233 0.870285
vt 0.185241 0.491992
vt 0.185241 0.870285
vt 0.167384 0.870285
vt 0.167384 0.491992
vt 0.001992 0.001952
vt 0.050617 0.001952
vt 0.050617 0.131735
vt 0.001992 0.131735
vt 0.428910 0.131735
vt 0.428910 0.001952
vt 0.050617 0.140999
vt 0.001992 0.140999
vt 0.428910 0.140999
vt 0.449092 0.001952
vt 0.449092 0.131735
vt 0.050617 0.233322
vt 0.001992 0.233322
vt 0.428910 0.233322
vt 0.488040 0.001952
vt 0.488040 0.131735
vt 0.050617 0.244088
vt 0.001992 0.244088
vt 0.428910 0.244088
vt 0.449092 0.140999
vt 0.449092 0.233322
vt 0.488040 0.140999
vt 0.050617 0.286865
vt 0.001992 0.286865
vt 0.428910 0.286865
vt 0.488040 0.233322
vt 0.050617 0.467782
vt 0.001992 0.467782
vt 0.449092 0.244088
vt 0.449092 0.286865
vt 0.488040 0.244088
vt 0.050617 0.488000
vt 0.001992 0.488000
vt 0.488040 0.286865
vt 0.428910 0.467782
vt 0.449092 0.467782
vt 0.428910 0.488000
vt 0.488040 0.467782
vt 0.449092 0.488000
vt 0.488040 0.488000
vt 0.511960 0.848257
vt 0.560584 0.848257
vt 0.560584 0.978040
vt 0.511960 0.978040
vt 0.511960 0.838993
vt 0.560584 0.838993
vt 0.938878 0.848257
vt 0.938878 0.978040
vt 0.511960 0.746670
vt 0.560584 0.746670
vt 0.938878 0.838993
vt 0.959060 0.848257
vt 0.959060 0.978040
vt 0.511960 0.735904
vt 0.560584 0.735904
vt 0.938878 0.746670
vt 0.959060 0.838993
vt 0.998008 0.848257
vt 0.998008 0.978040
vt 0.511960 0.693127
vt 0.560584 0.693127
vt 0.938878 0.735904
vt 0.959060 0.746670
vt 0.998008 0.838993
vt 0.511960 0.512210
vt 0.560584 0.512210
vt 0.938878 0.693127
vt 0.959060 0.735904
vt 0.998008 0.746670
vt 0.511960 0.491992
vt 0.560584 0.491992
vt 0.938878 0.512210
vt 0.959060 0.693127
vt 0.998008 0.735904
vt 0.938878 0.491992
vt 0.959060 0.512210
vt 0.998008 0.693127
vt 0.959060 0.491992
vt 0.998008 0.512210
vt 0.998008 0.491992
vt 0.396285 0.870285
vt 0.215368 0.870285
vt 0.215368 0.491992
vt 0.396285 0.491992
vt 0.022376 0.599496
vt 0.022376 0.591154
vt 0.042558 0.591154
vt 0.042558 0.599496
vt 0.022376 0.498831
vt 0.042558 0.498831
vt 0.022376 0.491992
vt 0.042558 0.491992
vt 0.001992 0.603487
vt 0.022174 0.603487
vt 0.022174 0.695811
vt 0.001992 0.695811
vn 0.000000 0.000000 1.000000
vn 0.000000 0.000000 1.000000
vn 0.000000 0.000000 1.000000
vn 0.000000 0.000000 1.000000
vn 0.000000 1.000000 0.000000
vn 0.000000 1.000000 0.000000
vn 0.000000 1.000000 0.000000
vn 0.000000 1.000000 0.000000
vn 0.000000 0.000000 -1.000000
vn 0.000000 0.000000 -1.000000
vn 0.000000 0.000000 -1.000000
vn 0.000000 0.000000 -1.000000
vn 0.000000 -1.000000 0.000000
vn 0.000000 -1.000000 0.000000
vn 0.000000 -1.000000 0.000000
vn 0.000000 -1.000000 0.000000
vn 1.000000 0.000000 0.000000
vn 1.000000 0.000000 0.000000
vn 1.000000 0.000000 0.000000
vn 1.000000 0.000000 0.000000
vn -1.000000 0.000000 0.000000
vn -1.000000 0.000000 0.000000
vn -1.000000 0.000000 0.000000
vn -1.000000 0.000000 0.000000
vn -1.000000 0.000000 0.000000
vn -1.000000 0.000000 0.000000
vn -1.000000 0.000000 0.000000
vn -1.000000 0.000000 0.000000
vn 0.000000 0.000000 -1.000000
vn 0.000000 0.000000 -1.000000
vn 0.000000 0.000000 -1.000000
vn 0.000000 0.000000 -1.000000
vn 1.000000 0.000000 0.000000
vn 1.000000 0.000000 0.000000
vn 1.000000 0.000000 0.000000
vn 1.000000 0.000000 0.000000
vn 0.000000 0.000000 1.000000
vn 0.000000 0.000000 1.000000
vn 0.000000 0.000000 1.000000
vn 0.000000 0.000000 1.000000
vn 0.000000 1.000000 0.000000
vn 0.000000 1.000000 0.000000
vn 0.000000 0.000000 -1.000000
vn 0.000000 0.000000 -1.000000
vn 0.000000 0.000000 -1.000000
vn 0.000000 0.000000 -1.000000
vn 0.000000 -1.000000 0.000000
vn 0.000000 -1.000000 0.000000
vn 0.000000 0.000000 1.000000
vn 0.000000 0.000000 1.000000
vn 0.000000 0.000000 1.000000
vn 0.000000 0.000000 1.000000
vn 0.000000 1.000000 0.000000
vn 0.000000 1.000000 0.000000
vn 0.000000 0.000000 -1.000000
vn 0.000000 0.000000 -1.000000
vn 0.000000 0.000000 -1.000000
vn 0.000000 0.000000 -1.000000
vn 0.000000 -1.000000 0.000000
vn 0.000000 -1.000000 0.000000
vn 0.000000 0.000000 1.000000
vn 0.000000 0.000000 1.000000
vn 0.000000 0.000000 1.000000
vn 0.000000 0.000000 1.000000
vn 0.000000 0.000000 1.000000
vn 0.000000 0.000000 1.000000
vn -1.000000 0.000000 0.000000
vn -1.000000 0.000000 0.000000
vn 0.000000 0.000000 -1.000000
vn 0.000000 0.000000 -1.000000
vn 0.000000 0.000000 -1.000000
vn 0.000000 0.000000 -1.000000
vn 1.000000 0.000000 0.000000
vn 1.000000 0.000000 0.000000
vn 0.000000 0.000000 1.000000
vn 0.000000 0.000000 1.000000
vn 0.000000 0.000000 1.000000
vn 0.000000 0.000000 1.000000
vn 0.000000 0.000000 1.000000
vn 0.000000 0.000000 1.000000
vn 0.000000 1.000000 0.000000
vn 0.000000 1.000000 0.000000
vn 0.000000 0.000000 -1.000000
vn 0.000000 0.000000 -1.000000
vn 0.000000 0.000000 -1.000000
vn 0.000000 0.000000 -1.000000
vn 0.000000 0.000000 -1.000000
vn 0.000000 -1.000000 0.000000
vn 0.000000 -1.000000 0.000000
vn 0.000000 0.000000 1.000000
vn 0.000000 0.000000 1.000000
vn 0.000000 0.000000 1.000000
vn 0.000000 0.000000 1.000000
vn 0.000000 0.000000 1.000000
vn -1.000000 0.000000 0.000000
vn -1.000000 0.000000 0.000000
vn -1.000000 0.000000 0.000000
vn -1.000000 0.000000 0.000000
vn 0.000000 0.000000 -1.000000
vn 0.000000 0.000000 -1.000000
vn 0.000000 0.000000 -1.000000
vn 0.000000 0.000000 -1.000000
vn 0.000000 0.000000 -1.000000
vn 0.000000 0.000000 -1.000000
vn 0.000000 0.000000 -1.000000
vn 0.000000 0.000000 -1.000000
vn 0.000000 0.000000 -1.000000
vn 0.000000 0.000000 -1.000000
vn 1.000000 0.000000 0.000000
vn 1.000000 0.000000 0.000000
vn 1.000000 0.000000 0.000000
vn 1.000000 0.000000 0.000000
vn 0.000000 0.000000 1.000000
vn 0.000000 0.000000 1.000000
vn 0.000000 0.000000 1.000000
vn 0.000000 0.000000 1.000000
vn 0.000000 0.401300 0.915947
vn 0.000000 0.401300 0.915947
vn 0.000000 0.401300 0.915947
vn 0.000000 0.401300 0.915947
vn 0.000000 0.000000 1.000000
vn 0.000000 0.000000 1.000000
vn 0.000000 0.000000 1.000000
vn 0.000000 0.000000 1.000000
vn 0.000000 0.000000 1.000000
vn 0.000000 0.000000 1.000000
vn -1.000000 0.000000 0.000000
vn -1.000000 0.000000 0.000000
vn 0.000000 0.000000 -1.000000
vn 0.000000 0.000000 -1.000000
vn 0.000000 0.000000 -1.000000
vn 0.000000 0.000000 -1.000000
vn 0.000000 0.000000 -1.000000
vn 1.000000 0.000000 0.000000
vn 1.000000 0.000000 0.000000
vn 0.000000 0.000000 1.000000
vn 0.000000 0.000000 1.000000
vn 0.000000 0.000000 1.000000
vn 0.000000 0.000000 1.000000
vn 0.000000 0.000000 1.000000
vn 0.000000 -0.471300 0.881973
vn 0.000000 -0.471300 0.881973
vn 0.000000 -0.471300 0.881973
vn 0.000000 -0.471300 0.881973
vn -1.000000 0.000000 0.000000
vn -1.000000 0.000000 0.000000
vn -1.000000 0.000000 0.000000
vn -1.000000 0.000000 0.000000
vn 0.000000 -1.000000 0.000000
vn 0.000000 -1.000000 0.000000
vn 0.000000 -1.000000 0.000000
vn 0.000000 -1.000000 0.000000
vn 1.000000 0.000000 0.000000
vn 1.000000 0.000000 0.000000
vn 1.000000 0.000000 0.000000
vn 1.000000 0.000000 0.000000
vn 0.000000 1.000000 0.000000
vn 0.000000 1.000000 0.000000
vn 0.000000 0.995532 0.094429
vn 0.000000 0.995532 0.094429
vn -1.000000 0.000000 0.000000
vn -1.000000 0.000000 0.000000
vn -1.000000 0.000000 0.000000
vn -1.000000 0.000000 0.000000
vn 0.000000 -1.000000 0.000000
vn 0.000000 -1.000000 0.000000
vn 0.000000 -0.995532 0.094429
vn 0.000000 -0.995532 0.094429
vn 1.000000 0.000000 0.000000
vn 1.000000 0.000000 0.000000
vn 1.000000 0.000000 0.000000
vn 1.000000 0.000000 0.000000
vn 0.000000 1.000000 0.000000
vn 0.000000 1.000000 0.000000
vn 0.000000 1.000000 0.000000
vn 0.000000 1.000000 0.000000
vn -1.000000 0.000001 0.000000
vn -1.000000 0.000001 0.000000
vn 0.000000 0.942517 0.334159
vn 0.000000 0.942517 0.334159
vn 1.000000 0.000000 0.000000
vn 1.000000 0.000000 0.000000
vn 1.000000 0.000000 0.000000
vn 1.000000 0.000000 0.000000
vn 0.000000 -0.942518 0.334155
vn 0.000000 -0.942518 0.334155
vn -1.000000 0.000000 0.000000
vn -1.000000 0.000000 0.000000
vn 0.000000 0.000000 -1.000000
vn 0.000000 0.000000 -1.000000
vn 0.000000 0.000000 -1.000000
vn 0.000000 0.000000 -1.000000
vn -1.000000 0.000000 0.000000
vn -1.000000 0.000000 0.000000
vn -1.000000 0.000000 0.000000
vn -1.000000 0.000000 0.000000
vn 0.000000 0.000000 1.000000
vn 0.000000 0.000000 1.000000
vn 0.000000 0.000000 1.000000
vn 0.000000 0.000000 1.000000
vn 1.000000 0.000000 0.000000
vn 1.000000 0.000000 0.000000
vn 1.000000 0.000000 0.000000
vn 1.000000 0.000000 0.000000
vn 1.000000 0.000000 0.000000
vn 1.000000 0.000000 0.000000
vn 1.000000 0.000000 0.000000
vn 1.000000 0.000000 0.000000
vn 0.000000 1.000000 0.000000
vn 0.000000 1.000000 0.000000
vn 0.000000 1.000000 0.000000
vn 0.000000 1.000000 0.000000
vn -1.000000 0.000000 0.000000
vn -1.000000 0.000000 0.000000
vn -1.000000 0.000000 0.000000
vn -1.000000 0.000000 0.000000
vn 0.000000 -1.000000 0.000000
vn 0.000000 -1.000000 0.000000
vn 0.000000 -1.000000 0.000000
vn 0.000000 -1.000000 0.000000
s 1
g pCube1
usemtl initialShadingGroup
f 1/113/1 17/114/2 80/115/3 71/116/4
s 2
f 3/65/5 13/66/6 14/67/7 5/68/8
s 3
f 72/153/9 73/154/10 16/155/11 7/156/12
s 4
f 7/75/13 16/76/14 17/77/15 1/78/16
s 5
f 2/1/17 8/2/18 76/3/19 77/4/20
s 6
f 7/17/21 1/18/22 71/19/23 72/20/24
f 10/30/25 9/29/26 3/31/27 5/32/28
s 3
f 5/182/29 14/183/30 15/178/31 10/177/32
s 5
f 12/14/33 11/13/34 6/15/35 4/16/36
s 1
f 9/140/37 18/139/38 13/144/39 3/145/40
s 2
f 13/66/6 19/69/41 20/70/42 14/67/7
s 3
f 15/178/31 14/183/30 20/187/43 21/184/44
f 16/155/11 73/154/10 74/159/45 22/160/46
s 4
f 17/77/15 16/76/14 22/79/47 23/80/48
s 1
f 79/117/49 80/115/3 17/114/2 23/118/50
f 13/144/39 18/139/38 24/147/51 19/149/52
s 2
f 19/69/41 33/71/53 34/72/54 20/70/42
s 3
f 21/184/44 20/187/43 34/190/55 35/188/56
f 22/160/46 74/159/45 75/164/57 37/165/58
s 4
f 23/80/48 22/79/47 37/81/59 38/82/60
s 1
f 79/117/49 23/118/50 38/122/61 78/123/62
f 19/149/52 24/147/51 40/148/63 33/151/64
f 26/136/65 25/135/66 18/139/38 9/140/37
s 6
f 27/28/67 26/27/68 9/29/26 10/30/25
s 3
f 10/177/32 15/178/31 28/173/69 27/172/70
f 29/179/71 28/173/69 15/178/31 21/184/44
f 36/185/72 29/179/71 21/184/44 35/188/56
s 5
f 31/12/73 30/11/74 11/13/34 12/14/33
s 1
f 24/147/51 32/137/75 39/142/76 40/148/63
s off
f 98/193/77 97/194/78 99/195/79 100/196/80
s 2
f 33/71/53 4/73/81 6/74/82 34/72/54
s 3
f 35/188/56 34/190/55 6/192/83 11/191/84
f 30/189/85 36/185/72 35/188/56 11/191/84
f 37/165/58 75/164/57 76/170/86 8/171/87
s 4
f 38/82/60 37/81/59 8/83/88 2/84/89
s 1
f 78/123/62 38/122/61 2/127/90 77/128/91
f 40/148/63 39/142/76 31/146/92 12/150/93
f 33/151/64 40/148/63 12/150/93 4/152/94
s 6
f 42/24/95 41/23/96 51/25/97 52/26/98
s 3
f 52/166/99 53/167/100 43/162/101 42/161/102
f 44/168/103 43/162/101 53/167/100 54/174/104
f 45/175/105 44/168/103 54/174/104 55/180/106
f 46/181/107 45/175/105 55/180/106 56/186/108
s 5
f 47/8/109 46/7/110 56/9/111 57/10/112
s 1
f 58/141/113 48/133/114 47/138/115 57/143/116
s off
f 82/197/117 81/198/118 83/199/119 84/200/120
s 1
f 59/131/121 60/129/122 50/124/123 49/126/124
f 41/125/125 50/124/123 60/129/122 51/130/126
s 6
f 52/26/98 51/25/97 26/27/68 27/28/67
s 3
f 27/172/70 28/173/69 53/167/100 52/166/99
f 54/174/104 53/167/100 28/173/69 29/179/71
f 55/180/106 54/174/104 29/179/71 36/185/72
f 56/186/108 55/180/106 36/185/72 30/189/85
s 5
f 57/10/112 56/9/111 30/11/74 31/12/73
s 1
f 39/142/76 58/141/113 57/143/116 31/146/92
f 32/137/75 59/131/121 58/141/113 39/142/76
f 32/137/75 25/135/66 60/129/122 59/131/121
f 51/130/126 60/129/122 25/135/66 26/136/65
s 6
f 62/22/127 61/21/128 41/23/96 42/24/95
s 3
f 42/161/102 43/162/101 63/158/129 62/157/130
f 64/163/131 63/158/129 43/162/101 44/168/103
f 65/169/132 64/163/131 44/168/103 45/175/105
f 66/176/133 65/169/132 45/175/105 46/181/107
s 5
f 67/6/134 66/5/135 46/7/110 47/8/109
s 1
f 48/133/114 68/132/136 67/134/137 47/138/115
f 49/126/124 69/121/138 68/132/136 48/133/114
f 49/126/124 50/124/123 70/119/139 69/121/138
f 61/120/140 70/119/139 50/124/123 41/125/125
s 6
f 72/20/24 71/19/23 61/21/128 62/22/127
s 3
f 62/157/130 63/158/129 73/154/10 72/153/9
f 74/159/45 73/154/10 63/158/129 64/163/131
f 75/164/57 74/159/45 64/163/131 65/169/132
f 76/170/86 75/164/57 65/169/132 66/176/133
s 5
f 77/4/20 76/3/19 66/5/135 67/6/134
s 1
f 68/132/136 78/123/62 77/128/91 67/134/137
s off
f 86/201/141 85/203/142 87/204/143 88/202/144
s 1
f 69/121/138 70/119/139 80/115/3 79/117/49
f 71/116/4 80/115/3 70/119/139 61/120/140
s 15
f 59/33/145 49/34/146 90/35/147 91/36/148
s off
f 49/85/149 48/86/150 89/87/151 90/88/152
s 16
f 48/45/153 58/46/154 92/47/155 89/48/156
s 17
f 58/89/157 59/90/158 91/91/159 92/92/160
s 18
f 69/43/161 79/44/162 95/41/163 96/39/164
s 19
f 79/95/165 78/96/166 94/97/167 95/98/168
s 20
f 78/55/169 68/56/170 93/52/171 94/53/172
s off
f 68/101/173 69/102/174 96/103/175 93/104/176
s 15
f 91/36/148 90/35/147 81/37/177 82/38/178
s 17
f 92/92/160 91/91/159 82/93/179 84/94/180
s 16
f 89/48/156 92/47/155 84/49/181 83/50/182
s 20
f 94/53/172 93/52/171 88/51/183 87/54/184
s 19
f 95/98/168 94/97/167 87/99/185 85/100/186
s 18
f 96/39/164 95/41/163 85/42/187 86/40/188
s off
f 90/205/189 89/206/190 93/207/191 96/208/192
f 81/37/193 90/35/194 96/39/195 86/40/196
f 81/198/197 86/201/198 88/202/199 83/199/200
f 83/50/201 88/51/202 93/52/203 89/48/204
f 18/57/205 25/58/206 97/59/207 98/60/208
f 25/105/209 32/106/210 99/107/211 97/108/212
f 32/61/213 24/62/214 100/63/215 99/64/216
f 24/109/217 18/110/218 98/111/219 100/112/220
