# This file uses centimeters as units for non-parametric coordinates.

mtllib chair.mtl
g default
v -0.952842 0.951632 2.928488
v 0.952842 0.951632 2.928488
v -0.952842 1.334219 2.928488
v 0.952842 1.334219 2.928488
v -0.952842 1.334219 1.022803
v 0.952842 1.334219 1.022803
v -0.952842 0.951632 1.022803
v 0.952842 0.951632 1.022803
v -0.676020 1.334219 2.928488
v -0.676020 1.334219 1.022803
v -0.676020 0.951632 1.022803
v -0.676020 0.951632 2.928488
v 0.677137 1.334219 2.928488
v 0.677137 1.334219 1.022803
v 0.677137 0.951632 1.022803
v 0.677137 0.951632 2.928488
v -0.952842 1.334219 1.318046
v -0.952842 0.951632 1.318046
v -0.676020 0.951632 1.318046
v 0.677137 0.951632 1.318046
v 0.952842 0.951632 1.318046
v 0.952842 1.334219 1.318046
v 0.677137 1.334219 1.318046
v -0.676020 1.334219 1.318046
v -0.952842 1.334219 2.636392
v -0.952842 0.951632 2.636392
v -0.676020 0.951632 2.636392
v 0.677137 0.951632 2.636392
v 0.952842 0.951632 2.636392
v 0.952842 1.334219 2.636392
v 0.677137 1.334219 2.636392
v -0.676020 1.334219 2.636392
v -0.433975 1.334219 2.928488
v -0.433975 1.334219 2.636392
v -0.433975 1.334219 1.318046
v -0.433975 1.334219 1.022803
v -0.433975 0.951632 1.022803
v -0.433975 0.951632 1.318046
v -0.433975 0.951632 2.636392
v -0.433975 0.951632 2.928488
v -0.166259 1.334219 2.928488
v -0.166259 1.334219 2.636392
v -0.166259 1.334219 1.318046
v -0.166259 1.334219 1.022803
v -0.166259 0.951632 1.022803
v -0.166259 0.951632 1.318046
v -0.166259 0.951632 2.636392
v -0.166259 0.951632 2.928488
v 0.416650 1.334219 2.928488
v 0.416650 1.334219 2.636392
v 0.416650 1.334219 1.318046
v 0.416650 1.334219 1.022803
v 0.416650 0.951632 1.022803
v 0.416650 0.951632 1.318046
v 0.416650 0.951632 2.636392
v 0.416650 0.951632 2.928488
v 0.137557 1.334219 2.928488
v 0.137557 1.334219 2.636392
v 0.137557 1.334219 1.318046
v 0.137557 1.334219 1.022803
v 0.137557 0.951632 1.022803
v 0.137557 0.951632 1.318046
v 0.137557 0.951632 2.636392
v 0.137557 0.951632 2.928488
v -0.952842 3.364449 2.928488
v -0.676020 3.364449 2.928488
v -0.676020 3.364449 2.636392
v -0.952842 3.364449 2.636392
v 0.677137 3.364449 2.928488
v 0.952842 3.364449 2.928488
v 0.952842 3.364449 2.636392
v 0.677137 3.364449 2.636392
v -0.433975 3.364449 2.928488
v -0.166259 3.364449 2.928488
v -0.166259 3.364449 2.636392
v -0.433975 3.364449 2.636392
v 0.137557 3.364449 2.928488
v 0.416650 3.364449 2.928488
v 0.416650 3.364449 2.636392
v 0.137557 3.364449 2.636392
v -0.952842 3.071173 2.928488
v -0.676020 3.071173 2.928488
v -0.676020 3.071173 2.636392
v -0.952842 3.071173 2.636392
v 0.677137 3.071173 2.928488
v 0.952842 3.071173 2.928488
v 0.952843 3.071173 2.636392
v 0.677137 3.071173 2.636392
v -0.433975 3.071173 2.928488
v -0.166259 3.071173 2.928488
v -0.166259 3.071173 2.636392
v -0.433975 3.071173 2.636392
v 0.137557 3.071173 2.928488
v 0.416650 3.071173 2.928488
v 0.416650 3.071174 2.636392
v 0.137557 3.071174 2.636392
v -0.952842 -0.074166 1.248377
v -0.676020 -0.074166 1.248377
v -0.676020 -0.074166 1.543619
v -0.952842 -0.074166 1.543619
v 0.677137 -0.074166 1.543619
v 0.952842 -0.074166 1.543619
v 0.677137 -0.074166 1.248377
v 0.952842 -0.074166 1.248377
v -0.952842 -0.351315 1.248377
v -0.676020 -0.351315 1.248377
v -0.676020 -0.351315 1.543619
v -0.952842 -0.351315 1.543619
v 0.677137 -0.351315 1.543619
v 0.952842 -0.351315 1.543619
v 0.677137 -0.351315 1.248377
v 0.952842 -0.351315 1.248377
v -0.952842 -0.074166 2.799390
v -0.676020 -0.074166 2.799390
v -0.952842 -0.351315 2.799390
v -0.676020 -0.351315 2.799390
v 0.677137 -0.074166 2.799389
v 0.952842 -0.074166 2.799389
v 0.677137 -0.351315 2.799389
v 0.952842 -0.351315 2.799389
vt 0.375000 0.000000
vt 0.625000 0.000000
vt 0.375000 0.250000
vt 0.625000 0.250000
vt 0.375000 0.500000
vt 0.625000 0.500000
vt 0.375000 0.750000
vt 0.625000 0.750000
vt 0.375000 1.000000
vt 0.625000 1.000000
vt 0.875000 0.000000
vt 0.875000 0.250000
vt 0.125000 0.000000
vt 0.125000 0.250000
vt 0.411315 0.250000
vt 0.411315 0.500000
vt 0.411315 0.750000
vt 0.411315 0.000000
vt 0.411315 1.000000
vt 0.588831 0.250000
vt 0.588831 0.500000
vt 0.588831 0.750000
vt 0.588831 0.000000
vt 0.588831 1.000000
vt 0.163732 0.250000
vt 0.375000 0.461268
vt 0.163732 0.000000
vt 0.375000 0.788732
vt 0.411315 0.788732
vt 0.588831 0.788732
vt 0.625000 0.788732
vt 0.836268 0.000000
vt 0.625000 0.461268
vt 0.836268 0.250000
vt 0.588831 0.461268
vt 0.411315 0.461268
vt 0.336681 0.250000
vt 0.375000 0.288319
vt 0.336681 0.000000
vt 0.375000 0.961681
vt 0.411315 0.961681
vt 0.588831 0.961681
vt 0.625000 0.961681
vt 0.663319 0.000000
vt 0.625000 0.288319
vt 0.663319 0.250000
vt 0.588831 0.288319
vt 0.411315 0.288319
vt 0.443068 0.250000
vt 0.443068 0.288319
vt 0.443068 0.461268
vt 0.443068 0.500000
vt 0.443068 0.750000
vt 0.443068 0.788732
vt 0.443068 0.961681
vt 0.443068 0.000000
vt 0.443068 1.000000
vt 0.478189 0.250000
vt 0.478189 0.288319
vt 0.478189 0.461268
vt 0.478189 0.500000
vt 0.478189 0.750000
vt 0.478189 0.788732
vt 0.478189 0.961681
vt 0.478189 0.000000
vt 0.478189 1.000000
vt 0.554659 0.250000
vt 0.554659 0.288319
vt 0.554659 0.461268
vt 0.554659 0.500000
vt 0.554659 0.750000
vt 0.554659 0.788732
vt 0.554659 0.961681
vt 0.554659 0.000000
vt 0.554659 1.000000
vt 0.518046 0.250000
vt 0.518046 0.288319
vt 0.518046 0.461268
vt 0.518046 0.500000
vt 0.518046 0.750000
vt 0.518046 0.788732
vt 0.518046 0.961681
vt 0.518046 0.000000
vt 0.518046 1.000000
vt 0.375000 0.250000
vt 0.411315 0.250000
vt 0.411315 0.288319
vt 0.375000 0.288319
vt 0.588831 0.250000
vt 0.625000 0.250000
vt 0.625000 0.288319
vt 0.588831 0.288319
vt 0.443068 0.250000
vt 0.478189 0.250000
vt 0.478189 0.288319
vt 0.443068 0.288319
vt 0.518046 0.250000
vt 0.554659 0.250000
vt 0.554659 0.288319
vt 0.518046 0.288319
vt 0.375000 0.250000
vt 0.411315 0.250000
vt 0.411315 0.288319
vt 0.375000 0.288319
vt 0.588831 0.250000
vt 0.625000 0.250000
vt 0.625000 0.288319
vt 0.588831 0.288319
vt 0.443068 0.250000
vt 0.478189 0.250000
vt 0.478189 0.288319
vt 0.443068 0.288319
vt 0.518046 0.250000
vt 0.554659 0.250000
vt 0.554659 0.288319
vt 0.518046 0.288319
vt 0.375000 0.750000
vt 0.411315 0.750000
vt 0.411315 0.788732
vt 0.375000 0.788732
vt 0.625000 0.788732
vt 0.588831 0.788732
vt 0.588831 0.750000
vt 0.625000 0.750000
vt 0.375000 0.750000
vt 0.411315 0.750000
vt 0.411315 0.788732
vt 0.375000 0.788732
vt 0.625000 0.788732
vt 0.588831 0.788732
vt 0.588831 0.750000
vt 0.625000 0.750000
vt 0.411315 0.788732
vt 0.375000 0.788732
vt 0.375000 0.788732
vt 0.411315 0.788732
vt 0.625000 0.788732
vt 0.588831 0.788732
vt 0.588831 0.788732
vt 0.625000 0.788732
vn 0.000000 0.000000 1.000000
vn 0.000000 0.000000 1.000000
vn 0.000000 0.000000 1.000000
vn 0.000000 0.000000 1.000000
vn 0.000000 1.000000 0.000000
vn 0.000000 1.000000 0.000000
vn 0.000000 1.000000 0.000000
vn 0.000000 1.000000 0.000000
vn 0.000000 0.000000 -1.000000
vn 0.000000 0.000000 -1.000000
vn 0.000000 -0.128353 -0.991729
vn 0.000000 -0.158149 -0.987415
vn 0.000000 -1.000000 0.000000
vn 0.000000 -1.000000 0.000000
vn 0.000000 -1.000000 0.000000
vn 0.000000 -1.000000 0.000000
vn 1.000000 0.000000 0.000000
vn 1.000000 0.000000 0.000000
vn 1.000000 0.000000 0.000000
vn 1.000000 0.000000 0.000000
vn -1.000000 0.000000 0.000000
vn -1.000000 0.000000 0.000000
vn -1.000000 0.000000 0.000000
vn -1.000000 0.000000 0.000000
vn 0.000000 1.000000 0.000000
vn 0.000000 1.000000 0.000000
vn 0.000000 1.000000 0.000000
vn 0.000000 1.000000 0.000000
vn 0.000000 0.000000 -1.000000
vn 0.000000 0.000000 -1.000000
vn 0.000000 -1.000000 0.000000
vn 0.000000 -1.000000 0.000000
vn 0.000000 0.000000 1.000000
vn 0.000000 0.000000 1.000000
vn 0.000000 1.000000 0.000000
vn 0.000000 1.000000 0.000000
vn 0.000000 1.000000 0.000000
vn 0.000000 1.000000 0.000000
vn 0.000000 -0.126430 -0.991976
vn 0.000000 0.000000 -1.000000
vn 0.000000 0.000000 -1.000000
vn 0.000000 -0.158149 -0.987415
vn 0.000000 -1.000000 0.000000
vn 0.000000 -1.000000 0.000000
vn 0.000000 -1.000000 0.000000
vn 0.000000 -1.000000 0.000000
vn 0.000000 0.000000 1.000000
vn 0.000000 0.000000 1.000000
vn 0.000000 0.000000 1.000000
vn 0.000000 0.000000 1.000000
vn -1.000000 0.000000 0.000000
vn -1.000000 0.000000 0.000000
vn -1.000000 0.000000 0.000000
vn -1.000000 0.000000 0.000000
vn 0.000000 -1.000000 0.000000
vn 0.000000 -1.000000 0.000000
vn 0.000000 -1.000000 0.000000
vn 0.000000 -1.000000 0.000000
vn 0.000000 -1.000000 0.000000
vn 0.000000 -1.000000 0.000000
vn 0.000000 -1.000000 0.000000
vn 0.000000 -1.000000 0.000000
vn 0.000000 -1.000000 0.000000
vn 0.000000 -1.000000 0.000000
vn 0.000000 -1.000000 0.000000
vn 0.000000 -1.000000 0.000000
vn 1.000000 0.000000 0.000000
vn 1.000000 0.000000 0.000000
vn 1.000000 0.000000 0.000000
vn 1.000000 0.000000 0.000000
vn 0.000000 1.000000 0.000000
vn 0.000000 1.000000 0.000000
vn 0.000000 1.000000 0.000000
vn 0.000000 1.000000 0.000000
vn 0.000000 1.000000 0.000000
vn 0.000000 1.000000 0.000000
vn 0.000000 1.000000 0.000000
vn 0.000000 1.000000 0.000000
vn 0.000000 1.000000 0.000000
vn 0.000000 1.000000 0.000000
vn 0.000000 -1.000000 0.000000
vn 0.000000 -1.000000 0.000000
vn 0.000000 -1.000000 0.000000
vn 0.000000 1.000000 0.000000
vn 0.000000 1.000000 0.000000
vn 0.000000 1.000000 0.000000
vn 0.000000 1.000000 0.000000
vn 0.000000 1.000000 0.000000
vn 0.000000 1.000000 0.000000
vn 0.000000 1.000000 0.000000
vn 0.000000 1.000000 0.000000
vn 0.000000 1.000000 0.000000
vn 0.000000 1.000000 0.000000
vn 0.000000 0.000000 -1.000000
vn 0.000000 0.000000 -1.000000
vn 0.000000 -1.000000 0.000000
vn 0.000000 -1.000000 0.000000
vn 0.000000 -1.000000 0.000000
vn 0.000000 -1.000000 0.000000
vn 0.000000 0.000000 1.000000
vn 0.000000 0.000000 1.000000
vn 0.000000 1.000000 0.000000
vn 0.000000 1.000000 0.000000
vn 0.000000 1.000000 0.000000
vn 0.000000 1.000000 0.000000
vn 0.000000 1.000000 0.000000
vn 0.000000 0.000000 -1.000000
vn 0.000000 0.000000 -1.000000
vn 0.000000 -1.000000 0.000000
vn 0.000000 -1.000000 0.000000
vn 0.000000 -1.000000 0.000000
vn 0.000000 -1.000000 0.000000
vn 0.000000 0.000000 1.000000
vn 0.000000 0.000000 1.000000
vn 0.000000 1.000000 0.000000
vn 0.000000 1.000000 0.000000
vn 0.000000 1.000000 0.000000
vn 0.000000 1.000000 0.000000
vn 0.000000 1.000000 0.000000
vn 0.000000 0.000000 -1.000000
vn 0.000000 0.000000 -1.000000
vn 0.000000 -1.000000 0.000000
vn 0.000000 -1.000000 0.000000
vn 0.000000 -1.000000 0.000000
vn 0.000000 -1.000000 0.000000
vn 0.000000 -1.000000 0.000000
vn 0.000000 0.000000 1.000000
vn 0.000000 0.000000 1.000000
vn 0.000000 1.000000 0.000000
vn 0.000000 1.000000 0.000000
vn 0.000000 1.000000 0.000000
vn 0.000000 1.000000 0.000000
vn 0.000000 0.000000 1.000000
vn 0.000000 0.000000 1.000000
vn 1.000000 0.000000 0.000000
vn 1.000000 0.000000 0.000000
vn 1.000000 0.000000 0.000000
vn 1.000000 0.000000 0.000000
vn 0.000000 0.000000 -1.000000
vn 0.000000 0.000000 -1.000000
vn 0.000000 0.000000 -1.000000
vn 0.000000 0.000000 -1.000000
vn -1.000000 0.000000 0.000000
vn -1.000000 0.000000 0.000000
vn 0.000000 0.000000 1.000000
vn 0.000000 0.000000 1.000000
vn 1.000000 0.000000 0.000000
vn 1.000000 0.000000 0.000000
vn 0.000000 0.000000 -1.000000
vn 0.000000 0.000000 -1.000000
vn 0.000000 0.000000 -1.000000
vn 0.000000 0.000000 -1.000000
vn -1.000000 0.000000 0.000000
vn -1.000000 0.000000 0.000000
vn -1.000000 0.000000 0.000000
vn -1.000000 0.000000 0.000000
vn 0.000000 0.000000 1.000000
vn 0.000000 0.000000 1.000000
vn 1.000000 0.000000 0.000000
vn 1.000000 0.000000 0.000000
vn 1.000000 0.000000 0.000000
vn 1.000000 0.000000 0.000000
vn -0.000000 0.000000 -1.000000
vn -0.000000 0.000000 -1.000000
vn -0.000000 0.000000 -1.000000
vn -0.000000 0.000000 -1.000000
vn -1.000000 0.000000 0.000000
vn -1.000000 0.000000 0.000000
vn -1.000000 0.000000 0.000000
vn -1.000000 0.000000 0.000000
vn 0.000000 0.000000 1.000000
vn 0.000000 0.000000 1.000000
vn 1.000000 0.000000 0.000000
vn 1.000000 0.000000 0.000000
vn 1.000000 0.000000 0.000000
vn 1.000000 0.000000 0.000000
vn -0.000001 0.000000 -1.000000
vn -0.000001 0.000000 -1.000000
vn -0.000001 -0.000000 -1.000000
vn -0.000001 -0.000000 -1.000000
vn -1.000000 0.000000 0.000000
vn -1.000000 0.000000 0.000000
vn -1.000000 0.000000 0.000000
vn -1.000000 0.000000 0.000000
vn 0.000000 0.000000 1.000000
vn 0.000000 0.000000 1.000000
vn 0.000000 0.000000 -1.000000
vn 0.000000 0.000000 -1.000000
vn -1.000000 0.000000 0.000000
vn -1.000000 0.000000 0.000000
vn 0.000000 0.000000 1.000000
vn 0.000000 0.000000 1.000000
vn 1.000000 0.000000 0.000000
vn 1.000000 0.000000 0.000000
vn 0.000000 0.000000 -1.000000
vn 0.000000 0.000000 -1.000000
vn 0.000000 0.000000 1.000000
vn 0.000000 0.000000 1.000000
vn -0.000000 -0.000000 -1.000000
vn -0.000000 -0.000000 -1.000000
vn 0.000000 0.000000 1.000000
vn 0.000000 0.000000 1.000000
vn -0.000001 -0.000000 -1.000000
vn -0.000001 -0.000000 -1.000000
vn 0.000001 -1.000000 -0.000000
vn 0.000001 -1.000000 -0.000000
vn 0.000001 -1.000000 -0.000000
vn 0.000001 -1.000000 -0.000000
vn 0.000000 1.000000 0.000000
vn 0.000000 1.000000 0.000000
vn 0.000000 1.000000 0.000000
vn 0.000000 1.000000 0.000000
vn 0.000000 0.000000 1.000000
vn 0.000000 0.000000 1.000000
vn 0.000000 0.000000 1.000000
vn 0.000000 0.000000 1.000000
vn 0.000000 -0.000000 -1.000000
vn 0.000000 -0.000000 -1.000000
vn 0.000000 -0.000000 -1.000000
vn 0.000000 -0.000000 -1.000000
vn 0.000000 -1.000000 0.000000
vn 0.000000 -1.000000 0.000000
vn 0.000000 -1.000000 0.000000
vn 0.000000 -1.000000 0.000000
vn 0.000000 1.000000 0.000000
vn 0.000000 1.000000 0.000000
vn 0.000000 1.000000 0.000000
vn 0.000000 1.000000 0.000000
vn 0.000000 0.000000 1.000000
vn 0.000000 0.000000 1.000000
vn 0.000000 0.000000 1.000000
vn 0.000000 0.000000 1.000000
vn 0.000000 -0.000000 -1.000000
vn 0.000000 -0.000000 -1.000000
vn 0.000000 -0.000000 -1.000000
vn 0.000000 -0.000000 -1.000000
vn -0.000001 -1.000000 -0.000001
vn -0.000001 -1.000000 -0.000001
vn -0.000001 -1.000000 -0.000001
vn -0.000001 -1.000000 -0.000001
vn 0.000000 0.000000 -1.000000
vn 0.000000 0.000000 -1.000000
vn 0.000000 0.000000 -1.000000
vn 0.000000 0.000000 -1.000000
vn 0.000000 1.000000 0.000000
vn 0.000000 1.000000 0.000000
vn 0.000000 1.000000 0.000000
vn 0.000000 1.000000 0.000000
vn 0.000000 0.000000 1.000000
vn 0.000000 0.000000 1.000000
vn 0.000000 0.000000 1.000000
vn 0.000000 0.000000 1.000000
vn 0.000000 -0.170588 -0.985342
vn 0.000000 -0.170588 -0.985342
vn 1.000000 0.000000 0.000000
vn 1.000000 0.000000 0.000000
vn 1.000000 0.000000 0.000000
vn 1.000000 0.000000 0.000000
vn 0.000000 0.214769 0.976665
vn 0.000000 0.214769 0.976665
vn 0.000000 0.214769 0.976665
vn 0.000000 0.214769 0.976665
vn -1.000000 0.000000 0.000000
vn -1.000000 0.000000 0.000000
vn 0.000000 0.214769 0.976665
vn 0.000000 0.214769 0.976665
vn 0.000000 0.214769 0.976665
vn 0.000000 0.214769 0.976665
vn -1.000000 0.000000 0.000000
vn -1.000000 0.000000 0.000000
vn -1.000000 0.000000 0.000000
vn -1.000000 0.000000 0.000000
vn 0.000000 -0.170588 -0.985342
vn 0.000000 -0.170588 -0.985342
vn 1.000000 0.000000 0.000000
vn 1.000000 0.000000 0.000000
vn 0.000000 0.000000 -1.000000
vn 0.000000 0.000000 -1.000000
vn 1.000000 0.000000 0.000000
vn 1.000000 0.000000 0.000000
vn 0.000000 0.000000 1.000000
vn 0.000000 0.000000 1.000000
vn 0.000000 0.000000 1.000000
vn 0.000000 0.000000 1.000000
vn -1.000000 0.000000 0.000000
vn -1.000000 0.000000 0.000000
vn 0.000000 0.000000 1.000000
vn 0.000000 0.000000 1.000000
vn 0.000000 0.000000 1.000000
vn 0.000000 0.000000 1.000000
vn -1.000000 0.000000 0.000000
vn -1.000000 0.000000 0.000000
vn 0.000000 0.000000 -1.000000
vn 0.000000 0.000000 -1.000000
vn 1.000000 0.000000 0.000000
vn 1.000000 0.000000 0.000000
vn 0.000000 1.000000 0.000000
vn 0.000000 1.000000 0.000000
vn 0.000000 1.000000 0.000000
vn 0.000000 1.000000 0.000000
vn -1.000000 0.000000 0.000000
vn -1.000000 0.000000 0.000000
vn 0.000000 -1.000000 0.000000
vn 0.000000 -1.000000 0.000000
vn 1.000000 0.000000 0.000000
vn 1.000000 0.000000 0.000000
vn 0.000000 1.000000 0.000000
vn 0.000000 1.000000 0.000000
vn 0.000000 1.000000 0.000000
vn 0.000000 1.000000 0.000000
vn -1.000000 0.000000 0.000000
vn -1.000000 0.000000 0.000000
vn 0.000000 -1.000000 0.000000
vn 0.000000 -1.000000 0.000000
vn 1.000000 0.000000 0.000000
vn 1.000000 0.000000 0.000000
s 1
g chair
usemtl initialShadingGroup
f 1/1/1 12/18/2 9/15/3 3/3/4
s off
f 65/85/5 66/86/6 67/87/7 68/88/8
s 2
f 5/5/9 10/16/10 11/17/11 7/7/12
s 3
f 26/40/13 27/41/14 12/19/15 1/9/16
s 4
f 2/2/17 29/44/18 30/46/19 4/4/20
s 5
f 26/39/21 1/1/22 3/3/23 25/37/24
s 6
f 9/15/25 33/49/26 34/50/27 32/48/28
s 2
f 11/17/11 10/16/10 36/52/29 37/53/30
s 3
f 12/19/15 27/41/14 39/55/31 40/57/32
s 1
f 9/15/3 12/18/2 40/56/33 33/49/34
s off
f 69/89/35 70/90/36 71/91/37 72/92/38
s 2
f 15/22/39 14/21/40 6/6/41 8/8/42
s 3
f 16/24/43 28/42/44 29/43/45 2/10/46
s 1
f 13/20/47 16/23/48 2/2/49 4/4/50
s 5
f 7/13/51 18/27/52 17/25/53 5/14/54
s 11
f 105/125/55 106/126/56 107/127/57 108/128/58
s 3
f 38/54/59 19/29/60 11/17/61 37/53/62
s 12
f 110/129/63 109/130/64 111/131/65 112/132/66
s 4
f 22/34/67 21/32/68 8/11/69 6/12/70
s 6
f 23/35/71 22/33/72 6/6/73 14/21/74
f 24/36/75 35/51/76 36/52/77 10/16/78
f 17/26/79 24/36/75 10/16/78 5/5/80
s 5
f 18/27/52 26/39/21 25/37/24 17/25/53
s 3
f 18/28/81 19/29/60 27/41/14 26/40/13
f 39/55/31 27/41/14 19/29/60 38/54/59
f 29/43/45 28/42/44 20/30/82 21/31/83
s 4
f 30/46/19 29/44/18 21/32/68 22/34/67
s 6
f 31/47/84 30/45/85 22/33/72 23/35/71
f 32/48/28 34/50/27 35/51/76 24/36/75
f 25/38/86 32/48/28 24/36/75 17/26/79
s off
f 73/93/87 74/94/88 75/95/89 76/96/90
s 6
f 35/51/76 34/50/27 42/59/91 43/60/92
f 36/52/77 35/51/76 43/60/92 44/61/93
s 2
f 37/53/30 36/52/29 44/61/94 45/62/95
s 3
f 46/63/96 38/54/59 37/53/62 45/62/97
f 47/64/98 39/55/31 38/54/59 46/63/96
f 40/57/32 39/55/31 47/64/98 48/66/99
s 1
f 33/49/34 40/56/33 48/65/100 41/58/101
s 6
f 41/58/102 57/76/103 58/77/104 42/59/91
f 43/60/92 42/59/91 58/77/104 59/78/105
f 44/61/93 43/60/92 59/78/105 60/79/106
s 2
f 45/62/95 44/61/94 60/79/107 61/80/108
s 3
f 62/81/109 46/63/96 45/62/97 61/80/110
f 63/82/111 47/64/98 46/63/96 62/81/109
f 48/66/99 47/64/98 63/82/111 64/84/112
s 1
f 41/58/101 48/65/100 64/83/113 57/76/114
s 6
f 49/67/115 13/20/116 31/47/84 50/68/117
f 51/69/118 50/68/117 31/47/84 23/35/71
f 52/70/119 51/69/118 23/35/71 14/21/74
s 2
f 53/71/120 52/70/121 14/21/40 15/22/39
s 3
f 20/30/82 54/72/122 53/71/123 15/22/124
f 28/42/44 55/73/125 54/72/122 20/30/82
f 56/75/126 55/73/125 28/42/44 16/24/43
s 1
f 49/67/127 56/74/128 16/23/48 13/20/47
s off
f 77/97/129 78/98/130 79/99/131 80/100/132
s 6
f 59/78/105 58/77/104 50/68/117 51/69/118
f 60/79/106 59/78/105 51/69/118 52/70/119
s 2
f 61/80/108 60/79/107 52/70/121 53/71/120
s 3
f 54/72/122 62/81/109 61/80/110 53/71/123
f 55/73/125 63/82/111 62/81/109 54/72/122
f 64/84/112 63/82/111 55/73/125 56/75/126
s 1
f 57/76/114 64/83/113 56/74/128 49/67/127
f 3/3/4 9/15/3 82/102/133 81/101/134
s off
f 9/15/135 32/48/136 83/103/137 82/102/138
s 14
f 32/48/139 25/38/140 84/104/141 83/103/142
s 5
f 25/38/24 3/3/23 81/101/143 84/104/144
s 1
f 13/20/47 4/4/50 86/106/145 85/105/146
s 4
f 4/4/20 30/45/19 87/107/147 86/106/148
s 15
f 30/45/149 31/47/150 88/108/151 87/107/152
s off
f 31/47/153 13/20/154 85/105/155 88/108/156
s 1
f 33/49/34 41/58/101 90/110/157 89/109/158
s off
f 41/58/159 42/59/160 91/111/161 90/110/162
s 16
f 42/59/163 34/50/164 92/112/165 91/111/166
s off
f 34/50/167 33/49/168 89/109/169 92/112/170
s 1
f 57/76/114 49/67/127 94/114/171 93/113/172
s off
f 49/67/173 50/68/174 95/115/175 94/114/176
s 17
f 50/68/177 58/77/178 96/116/179 95/115/180
s off
f 58/77/181 57/76/182 93/113/183 96/116/184
s 1
f 81/101/134 82/102/133 66/86/185 65/85/186
s 14
f 83/103/142 84/104/141 68/88/187 67/87/188
s 5
f 84/104/144 81/101/143 65/85/189 68/88/190
s 1
f 85/105/146 86/106/145 70/90/191 69/89/192
s 4
f 86/106/148 87/107/147 71/91/193 70/90/194
s 15
f 87/107/152 88/108/151 72/92/195 71/91/196
s 1
f 89/109/158 90/110/157 74/94/197 73/93/198
s 16
f 91/111/166 92/112/165 76/96/199 75/95/200
s 1
f 93/113/172 94/114/171 78/98/201 77/97/202
s 17
f 95/115/180 96/116/179 80/100/203 79/99/204
s off
f 90/110/205 91/111/206 96/116/207 93/113/208
f 75/95/209 74/94/210 77/97/211 80/100/212
f 74/94/213 90/110/214 93/113/215 77/97/216
f 75/95/217 80/100/218 96/116/219 91/111/220
f 82/102/221 83/103/222 92/112/223 89/109/224
f 67/87/225 66/86/226 73/93/227 76/96/228
f 66/86/229 82/102/230 89/109/231 73/93/232
f 67/87/233 76/96/234 92/112/235 83/103/236
f 88/108/237 85/105/238 94/114/239 95/115/240
f 72/92/241 88/108/242 95/115/243 79/99/244
f 72/92/245 79/99/246 78/98/247 69/89/248
f 69/89/249 78/98/250 94/114/251 85/105/252
s 2
f 7/7/12 11/17/11 98/118/253 97/117/254
s 18
f 11/17/255 19/29/256 99/119/257 98/118/258
s off
f 19/29/259 18/28/260 100/120/261 99/119/262
s 5
f 18/28/52 7/7/51 97/117/263 100/120/264
s off
f 21/31/265 20/30/266 101/122/267 102/121/268
s 19
f 20/30/269 15/22/270 103/123/271 101/122/272
s 2
f 15/22/39 8/8/42 104/124/273 103/123/274
s 4
f 8/8/69 21/31/68 102/121/275 104/124/276
s 2
f 97/117/254 98/118/253 106/126/277 105/125/278
s 18
f 98/118/258 99/119/257 107/127/279 106/126/280
s off
f 114/133/281 113/134/282 115/135/283 116/136/284
s 5
f 100/120/264 97/117/263 105/125/285 108/128/286
s off
f 118/137/287 117/138/288 119/139/289 120/140/290
s 19
f 101/122/272 103/123/271 111/131/291 109/130/292
s 2
f 103/123/274 104/124/273 112/132/293 111/131/294
s 4
f 104/124/276 102/121/275 110/129/295 112/132/296
s off
f 99/119/297 100/120/298 113/134/299 114/133/300
s 5
f 100/120/264 108/128/286 115/135/301 113/134/302
s 11
f 108/128/58 107/127/57 116/136/303 115/135/304
s 18
f 107/127/279 99/119/257 114/133/305 116/136/306
s off
f 102/121/307 101/122/308 117/138/309 118/137/310
s 19
f 101/122/272 109/130/292 119/139/311 117/138/312
s 12
f 109/130/64 110/129/63 120/140/313 119/139/314
s 4
f 110/129/295 102/121/275 118/137/315 120/140/316
