# This file uses centimeters as units for non-parametric coordinates.

g default
v -1.754002 -0.286144 0.500000
v 1.754002 -0.286144 0.500000
v -1.754002 0.286144 0.500000
v 1.754002 0.286144 0.500000
v -1.754002 0.286144 -0.500000
v 1.754002 0.286144 -0.500000
v -1.754002 -0.286144 -0.500000
v 1.754002 -0.286144 -0.500000
v -1.754002 0.526119 0.500000
v 1.754002 0.526119 0.500000
v 1.754002 0.526119 -0.500000
v -1.754002 0.526119 -0.500000
v -1.754002 -0.526119 -0.500000
v 1.754002 -0.526119 -0.500000
v 1.754002 -0.526119 0.500000
v -1.754002 -0.526119 0.500000
v -1.754002 0.286144 0.894256
v 1.754002 0.286144 0.894256
v 1.754002 0.526119 0.894256
v -1.754002 0.526119 0.894256
v -1.754002 0.286144 -0.894256
v 1.754002 0.286144 -0.894256
v -1.754002 0.526119 -0.894256
v 1.754002 0.526119 -0.894256
v -1.754002 -0.286144 -0.894256
v 1.754002 -0.286144 -0.894256
v 1.754002 -0.526119 -0.894256
v -1.754002 -0.526119 -0.894256
v -1.754002 -0.286144 0.894256
v 1.754002 -0.286144 0.894256
v -1.754002 -0.526119 0.894256
v 1.754002 -0.526119 0.894256
vt 0.375000 0.000000
vt 0.625000 0.000000
vt 0.375000 0.250000
vt 0.625000 0.250000
vt 0.375000 0.500000
vt 0.625000 0.500000
vt 0.375000 0.750000
vt 0.625000 0.750000
vt 0.375000 1.000000
vt 0.625000 1.000000
vt 0.875000 0.000000
vt 0.875000 0.250000
vt 0.125000 0.000000
vt 0.125000 0.250000
vt 0.375000 0.250000
vt 0.625000 0.250000
vt 0.625000 0.500000
vt 0.375000 0.500000
vt 0.375000 0.750000
vt 0.625000 0.750000
vt 0.625000 1.000000
vt 0.375000 1.000000
vt 0.375000 0.250000
vt 0.625000 0.250000
vt 0.625000 0.250000
vt 0.375000 0.250000
vt 0.625000 0.500000
vt 0.375000 0.500000
vt 0.375000 0.500000
vt 0.625000 0.500000
vt 0.375000 0.750000
vt 0.625000 0.750000
vt 0.625000 0.750000
vt 0.375000 0.750000
vt 0.625000 1.000000
vt 0.375000 1.000000
vt 0.375000 1.000000
vt 0.625000 1.000000
vn 0.000000 0.000000 1.000000
vn 0.000000 0.000000 1.000000
vn 0.000000 0.000000 1.000000
vn 0.000000 0.000000 1.000000
vn 0.000000 1.000000 0.000000
vn 0.000000 1.000000 0.000000
vn 0.000000 1.000000 0.000000
vn 0.000000 1.000000 0.000000
vn 0.000000 0.000000 -1.000000
vn 0.000000 0.000000 -1.000000
vn 0.000000 0.000000 -1.000000
vn 0.000000 0.000000 -1.000000
vn 0.000000 -1.000000 0.000000
vn 0.000000 -1.000000 0.000000
vn 0.000000 -1.000000 0.000000
vn 0.000000 -1.000000 0.000000
vn 1.000000 0.000000 0.000000
vn 1.000000 0.000000 0.000000
vn 1.000000 0.000000 0.000000
vn 1.000000 0.000000 0.000000
vn -1.000000 0.000000 0.000000
vn -1.000000 0.000000 0.000000
vn -1.000000 0.000000 0.000000
vn -1.000000 0.000000 0.000000
vn 0.000000 0.000000 1.000000
vn 0.000000 0.000000 1.000000
vn 0.000000 0.000000 1.000000
vn 0.000000 0.000000 1.000000
vn 1.000000 0.000000 0.000000
vn 1.000000 0.000000 0.000000
vn 0.000000 0.000000 -1.000000
vn 0.000000 0.000000 -1.000000
vn 0.000000 0.000000 -1.000000
vn 0.000000 0.000000 -1.000000
vn -1.000000 0.000000 0.000000
vn -1.000000 0.000000 0.000000
vn 0.000000 0.000000 -1.000000
vn 0.000000 0.000000 -1.000000
vn 0.000000 0.000000 -1.000000
vn 0.000000 0.000000 -1.000000
vn 1.000000 0.000000 0.000000
vn 1.000000 0.000000 0.000000
vn 0.000000 0.000000 1.000000
vn 0.000000 0.000000 1.000000
vn 0.000000 0.000000 1.000000
vn 0.000000 0.000000 1.000000
vn -1.000000 0.000000 0.000000
vn -1.000000 0.000000 0.000000
vn 0.000000 -1.000000 0.000000
vn 0.000000 -1.000000 0.000000
vn 0.000000 -1.000000 0.000000
vn 0.000000 -1.000000 0.000000
vn 1.000000 0.000000 0.000000
vn 1.000000 0.000000 0.000000
vn 1.000000 0.000000 0.000000
vn 1.000000 0.000000 0.000000
vn 0.000000 1.000000 0.000000
vn 0.000000 1.000000 0.000000
vn 0.000000 1.000000 0.000000
vn 0.000000 1.000000 0.000000
vn -1.000000 0.000000 0.000000
vn -1.000000 0.000000 0.000000
vn -1.000000 0.000000 0.000000
vn -1.000000 0.000000 0.000000
vn 0.000000 -1.000000 0.000000
vn 0.000000 -1.000000 0.000000
vn 0.000000 -1.000000 0.000000
vn 0.000000 -1.000000 0.000000
vn -1.000000 0.000000 0.000000
vn -1.000000 0.000000 0.000000
vn -1.000000 0.000000 0.000000
vn -1.000000 0.000000 0.000000
vn 0.000000 1.000000 0.000000
vn 0.000000 1.000000 0.000000
vn 0.000000 1.000000 0.000000
vn 0.000000 1.000000 0.000000
vn 1.000000 0.000000 0.000000
vn 1.000000 0.000000 0.000000
vn 1.000000 0.000000 0.000000
vn 1.000000 0.000000 0.000000
vn 0.000000 1.000000 0.000000
vn 0.000000 1.000000 0.000000
vn 0.000000 1.000000 0.000000
vn 0.000000 1.000000 0.000000
vn 1.000000 0.000000 0.000000
vn 1.000000 0.000000 0.000000
vn 1.000000 0.000000 0.000000
vn 1.000000 0.000000 0.000000
vn 0.000000 -1.000000 0.000000
vn 0.000000 -1.000000 0.000000
vn 0.000000 -1.000000 0.000000
vn 0.000000 -1.000000 0.000000
vn -1.000000 0.000000 0.000000
vn -1.000000 0.000000 0.000000
vn -1.000000 0.000000 0.000000
vn -1.000000 0.000000 0.000000
vn 0.000000 1.000000 0.000000
vn 0.000000 1.000000 0.000000
vn 0.000000 1.000000 0.000000
vn 0.000000 1.000000 0.000000
vn -1.000000 0.000000 0.000000
vn -1.000000 0.000000 0.000000
vn -1.000000 0.000000 0.000000
vn -1.000000 0.000000 0.000000
vn 0.000000 -1.000000 0.000000
vn 0.000000 -1.000000 0.000000
vn 0.000000 -1.000000 0.000000
vn 0.000000 -1.000000 0.000000
vn 1.000000 0.000000 0.000000
vn 1.000000 0.000000 0.000000
vn 1.000000 0.000000 0.000000
vn 1.000000 0.000000 0.000000
s off
g pCube1
f 1/1/1 2/2/2 4/4/3 3/3/4
f 9/15/5 10/16/6 11/17/7 12/18/8
f 5/5/9 6/6/10 8/8/11 7/7/12
f 13/19/13 14/20/14 15/21/15 16/22/16
s 1
f 2/2/17 8/11/18 6/12/19 4/4/20
s 2
f 7/13/21 1/1/22 3/3/23 5/14/24
s off
f 17/23/25 18/24/26 19/25/27 20/26/28
s 1
f 4/4/20 6/6/19 11/17/29 10/16/30
s off
f 22/27/31 21/28/32 23/29/33 24/30/34
s 2
f 5/5/24 3/3/23 9/15/35 12/18/36
s off
f 25/31/37 26/32/38 27/33/39 28/34/40
s 1
f 8/8/18 2/10/17 15/21/41 14/20/42
s off
f 30/35/43 29/36/44 31/37/45 32/38/46
s 2
f 1/9/22 7/7/21 13/19/47 16/22/48
s off
f 3/3/49 4/4/50 18/24/51 17/23/52
f 4/4/53 10/16/54 19/25/55 18/24/56
f 10/16/57 9/15/58 20/26/59 19/25/60
f 9/15/61 3/3/62 17/23/63 20/26/64
f 6/6/65 5/5/66 21/28/67 22/27/68
f 5/5/69 12/18/70 23/29/71 21/28/72
f 12/18/73 11/17/74 24/30/75 23/29/76
f 11/17/77 6/6/78 22/27/79 24/30/80
f 7/7/81 8/8/82 26/32/83 25/31/84
f 8/8/85 14/20/86 27/33/87 26/32/88
f 14/20/89 13/19/90 28/34/91 27/33/92
f 13/19/93 7/7/94 25/31/95 28/34/96
f 2/10/97 1/9/98 29/36/99 30/35/100
f 1/9/101 16/22/102 31/37/103 29/36/104
f 16/22/105 15/21/106 32/38/107 31/37/108
f 15/21/109 2/10/110 30/35/111 32/38/112
