# This file uses centimeters as units for non-parametric coordinates.

mtllib end_platform.mtl
g default
v 2.913566 -1.298003 -0.946675
v 2.478427 -1.298003 -1.800683
v 1.800683 -1.298003 -2.478427
v 0.946675 -1.298003 -2.913566
v 0.000000 -1.298003 -3.063504
v -0.946675 -1.298003 -2.913565
v -1.800682 -1.298003 -2.478427
v -2.478426 -1.298003 -1.800682
v -2.913565 -1.298003 -0.946675
v -3.063504 -1.298003 0.000000
v -2.913565 -1.298003 0.946675
v -2.478426 -1.298003 1.800682
v -1.800682 -1.298003 2.478426
v -0.946675 -1.298003 2.913564
v -0.000000 -1.298003 3.063503
v 0.946674 -1.298003 2.913564
v 1.800682 -1.298003 2.478426
v 2.478426 -1.298003 1.800682
v 2.913564 -1.298003 0.946674
v 3.063502 -1.298003 0.000000
v 1.543035 0.495213 -0.545976
v 1.290327 0.508995 -0.981414
v 0.925587 0.519404 -1.316802
v 0.483482 0.525700 -1.527976
v 0.001687 0.527469 -1.600713
v -0.480796 0.524598 -1.530091
v -0.924744 0.517272 -1.320284
v -1.291881 0.505978 -0.984994
v -1.546717 0.491539 -0.548269
v -1.659539 0.475124 -0.045162
v -1.610663 0.458233 0.478722
v -1.395387 0.442603 0.969872
v -1.028275 0.430023 1.372458
v -0.544762 0.422062 1.636635
v 0.001687 0.419776 1.727800
v 0.547254 0.423475 1.633922
v 1.028521 0.432658 1.368155
v 1.393014 0.446121 0.965697
v 1.606387 0.462217 0.476237
v 1.654793 0.479145 -0.045162
v 2.338796 -1.298003 -0.759921
v 1.989499 -1.298003 -1.445456
v 1.036112 0.508995 -0.796716
v 1.238968 0.495213 -0.447179
v 1.445455 -1.298003 -1.989499
v 0.743326 0.519404 -1.065941
v 0.759921 -1.298003 -2.338796
v 0.388436 0.525700 -1.235456
v -0.000000 -1.298003 -2.459155
v 0.001686 0.527469 -1.293844
v -0.759921 -1.298003 -2.338796
v -0.385615 0.524598 -1.237154
v -1.445455 -1.298003 -1.989498
v -0.741984 0.517272 -1.068736
v -1.989498 -1.298003 -1.445455
v -1.036695 0.505978 -0.799590
v -2.338795 -1.298003 -0.759921
v -1.241258 0.491539 -0.449019
v -2.459155 -1.298003 -0.000000
v -1.331823 0.475124 -0.045162
v -2.338795 -1.298003 0.759920
v -1.292589 0.458233 0.375374
v -1.989498 -1.298003 1.445455
v -1.119781 0.442603 0.769632
v -1.445455 -1.298003 1.989498
v -0.825091 0.430023 1.092799
v -0.759921 -1.298003 2.338795
v -0.436963 0.422062 1.304861
v -0.000000 -1.298003 2.459154
v 0.001686 0.419776 1.378041
v 0.759920 -1.298003 2.338795
v 0.439628 0.423475 1.302683
v 1.445454 -1.298003 1.989497
v 0.825954 0.432658 1.089345
v 1.989497 -1.298003 1.445455
v 1.118541 0.446121 0.766281
v 2.338795 -1.298003 0.759920
v 1.289822 0.462217 0.373379
v 2.459154 -1.298003 -0.000000
v 1.328679 0.479145 -0.045162
v -2.167750 -0.292687 0.678806
v -2.259838 -0.283019 -0.025852
v -2.131146 -0.273623 -0.718617
v -1.799217 -0.265357 -1.333761
v -1.299272 -0.258892 -1.815476
v -0.679994 -0.254698 -2.121628
v 0.000965 -0.253055 -2.226164
v 0.681531 -0.254068 -2.120418
v 1.299755 -0.257672 -1.813482
v 1.798328 -0.263630 -1.331712
v 2.129038 -0.271519 -0.717305
v 2.257121 -0.280717 -0.025852
v 2.165302 -0.290407 0.677384
v 1.857108 -0.299620 1.322714
v 1.358677 -0.307327 1.842878
v 0.718036 -0.312584 2.181064
v 0.000965 -0.314701 2.298912
v -0.716610 -0.313392 2.182617
v -1.358536 -0.308836 1.845341
v -1.858466 -0.301634 1.325104
v -2.354318 -0.544171 0.745815
v -2.460878 -0.536921 -0.019385
v -2.326871 -0.529875 -0.775666
v -1.969124 -0.523678 -1.450563
v -1.424702 -0.518830 -1.981316
v -0.746705 -0.515685 -2.319734
v 0.000724 -0.514453 -2.435628
v 0.747858 -0.515212 -2.318827
v 1.425064 -0.517915 -1.979821
v 1.968457 -0.522382 -1.449027
v 2.325291 -0.528298 -0.774683
v 2.458840 -0.535195 -0.019385
v 2.352483 -0.542461 0.744748
v 2.012533 -0.549370 1.442280
v 1.469246 -0.555149 2.001863
v 0.775231 -0.559090 2.364302
v 0.000724 -0.560678 2.490177
v -0.774161 -0.559697 2.365466
v -1.469140 -0.556280 2.003710
v -2.013552 -0.550880 1.444072
vt 0.405107 0.390773
vt 0.424756 0.656676
vt 0.402795 0.658720
vt 0.362036 0.390773
vt 0.452851 0.390773
vt 0.450013 0.654293
vt 0.385880 0.660263
vt 0.327856 0.390773
vt 0.500594 0.390773
vt 0.476309 0.651783
vt 0.543665 0.390773
vt 0.500994 0.649397
vt 0.577845 0.390773
vt 0.521291 0.647400
vt 0.287540 0.390773
vt 0.246962 0.658272
vt 0.224936 0.656131
vt 0.244470 0.390773
vt 0.321721 0.390773
vt 0.263872 0.659947
vt 0.199563 0.653697
vt 0.196726 0.390773
vt 0.173142 0.651193
vt 0.148982 0.390773
vt 0.148372 0.648875
vt 0.105912 0.390773
vt 0.128068 0.647009
vt 0.071731 0.390773
vt 0.393926 0.098074
vt 0.393926 0.044419
vt 0.508937 0.066513
vt 0.508060 0.108880
vt 0.393926 0.001838
vt 0.509600 0.033164
vt 0.547306 0.073883
vt 0.546136 0.112485
vt 0.393926 0.157551
vt 0.507038 0.156333
vt 0.548190 0.043615
vt 0.661873 0.095891
vt 0.659830 0.123249
vt 0.544772 0.155927
vt 0.393926 0.217028
vt 0.505960 0.204341
vt 0.663417 0.074820
vt 0.657447 0.154714
vt 0.543335 0.200109
vt 0.393926 0.270683
vt 0.504936 0.248165
vt 0.654937 0.187472
vt 0.541969 0.240654
vt 0.393926 0.313264
vt 0.504079 0.283323
vt 0.652550 0.218223
vt 0.540826 0.273334
vt 0.650554 0.243508
vt 0.670678 0.270683
vt 0.670678 0.217028
vt 0.784578 0.206284
vt 0.785497 0.248686
vt 0.670678 0.157551
vt 0.783533 0.158769
vt 0.822576 0.202700
vt 0.823801 0.241348
vt 0.670678 0.313264
vt 0.786216 0.282032
vt 0.670678 0.098074
vt 0.782458 0.110693
vt 0.821182 0.159175
vt 0.936036 0.191997
vt 0.938177 0.219435
vt 0.824760 0.271612
vt 0.670678 0.044419
vt 0.781463 0.066824
vt 0.819749 0.114903
vt 0.933602 0.160388
vt 0.939852 0.240501
vt 0.670678 0.001838
vt 0.780663 0.031663
vt 0.818422 0.074298
vt 0.931097 0.127474
vt 0.817354 0.041613
vt 0.928780 0.096617
vt 0.926914 0.071323
vt 0.377515 0.134833
vt 0.341404 0.146566
vt 0.319458 0.103496
vt 0.350177 0.081178
vt 0.386935 0.194310
vt 0.348966 0.194310
vt 0.285278 0.069315
vt 0.307596 0.038597
vt 0.377515 0.253787
vt 0.341404 0.242054
vt 0.242207 0.047370
vt 0.253941 0.011258
vt 0.350176 0.307442
vt 0.319458 0.285124
vt 0.194464 0.039808
vt 0.194464 0.001838
vt 0.307596 0.350023
vt 0.285278 0.319305
vt 0.146720 0.047370
vt 0.134987 0.011258
vt 0.253941 0.377361
vt 0.242207 0.341250
vt 0.103650 0.069315
vt 0.081332 0.038597
vt 0.194464 0.386781
vt 0.194464 0.348812
vt 0.069469 0.103496
vt 0.038751 0.081178
vt 0.134987 0.377361
vt 0.146720 0.341250
vt 0.047523 0.146566
vt 0.011412 0.134833
vt 0.081332 0.350023
vt 0.103650 0.319305
vt 0.039962 0.194310
vt 0.001992 0.194310
vt 0.038751 0.307442
vt 0.069469 0.285124
vt 0.047523 0.242054
vt 0.011412 0.253787
vt 0.610442 0.834467
vt 0.594470 0.822863
vt 0.607215 0.800903
vt 0.626319 0.807110
vt 0.587526 0.855539
vt 0.576075 0.839778
vt 0.612851 0.775645
vt 0.633340 0.775645
vt 0.559750 0.868806
vt 0.553778 0.850428
vt 0.610410 0.749349
vt 0.630299 0.742887
vt 0.529480 0.873376
vt 0.529480 0.854096
vt 0.599649 0.724664
vt 0.616893 0.712135
vt 0.499167 0.868939
vt 0.505147 0.850535
vt 0.581266 0.704367
vt 0.593993 0.686850
vt 0.471275 0.855758
vt 0.482757 0.839953
vt 0.556995 0.690964
vt 0.563756 0.670153
vt 0.448209 0.834692
vt 0.464241 0.823044
vt 0.529480 0.686229
vt 0.529480 0.664255
vt 0.432198 0.807254
vt 0.451389 0.801018
vt 0.501921 0.690827
vt 0.495148 0.669982
vt 0.425110 0.775645
vt 0.445699 0.775645
vt 0.477536 0.704150
vt 0.464770 0.686580
vt 0.428180 0.742731
vt 0.448164 0.749224
vt 0.459021 0.724454
vt 0.441706 0.711873
vt 0.998008 0.317255
vt 0.953895 0.586746
vt 0.931598 0.587679
vt 0.954938 0.317255
vt 0.907300 0.587941
vt 0.907194 0.317255
vt 0.882967 0.587516
vt 0.859450 0.317255
vt 0.860577 0.586429
vt 0.816380 0.317255
vt 0.001992 0.920566
vt 0.040968 0.664329
vt 0.065353 0.665510
vt 0.045062 0.920566
vt 0.092912 0.665849
vt 0.092806 0.920566
vt 0.120427 0.665300
vt 0.140550 0.920566
vt 0.144698 0.663938
vt 0.183620 0.920566
vt 0.810245 0.587941
vt 0.756590 0.587941
vt 0.744099 0.471867
vt 0.786646 0.472268
vt 0.697113 0.587941
vt 0.697158 0.471754
vt 0.739931 0.433144
vt 0.778773 0.433678
vt 0.637636 0.587941
vt 0.650199 0.471937
vt 0.697173 0.432993
vt 0.727489 0.317517
vt 0.755265 0.318451
vt 0.583981 0.587941
vt 0.607602 0.472403
vt 0.654391 0.433237
vt 0.697219 0.317255
vt 0.615483 0.433859
vt 0.666906 0.317681
vt 0.639013 0.318767
vt 0.191235 0.664255
vt 0.244890 0.664255
vt 0.255729 0.773733
vt 0.212065 0.774239
vt 0.304367 0.664255
vt 0.304413 0.773587
vt 0.259345 0.810255
vt 0.219014 0.810931
vt 0.363844 0.664255
vt 0.353073 0.773823
vt 0.304428 0.810061
vt 0.270141 0.919311
vt 0.239764 0.920491
vt 0.417499 0.664255
vt 0.396676 0.774407
vt 0.349479 0.810375
vt 0.304473 0.918972
vt 0.389729 0.811155
vt 0.338750 0.919520
vt 0.368987 0.920882
vn -0.799284 -0.536937 0.269896
vn -0.796114 -0.536932 0.279117
vn -0.672847 -0.537277 0.508537
vn -0.677665 -0.537284 0.502092
vn -0.486653 -0.537470 0.688690
vn -0.491245 -0.537474 0.685419
vn -0.255446 -0.537557 0.803604
vn -0.258062 -0.537559 0.802767
vn -0.000736 -0.537577 0.843214
vn -0.000360 -0.537577 0.843214
vn 0.254099 -0.537542 0.804041
vn 0.257402 -0.537544 0.802989
vn 0.485646 -0.537432 0.689430
vn 0.490753 -0.537437 0.685800
vn 0.672295 -0.537206 0.509341
vn 0.677406 -0.537213 0.502517
vn 0.795984 -0.536818 0.279707
vn 0.799251 -0.536822 0.270222
vn 0.843792 -0.536244 0.021393
vn 0.843996 -0.536241 0.010777
vn 0.809341 -0.535510 -0.241238
vn 0.806380 -0.535502 -0.250974
vn 0.693945 -0.534705 -0.482215
vn 0.688955 -0.534695 -0.489328
vn 0.507317 -0.533970 -0.676391
vn 0.502304 -0.533964 -0.680128
vn 0.267442 -0.533466 -0.802427
vn 0.264502 -0.533464 -0.803402
vn -0.000880 -0.533316 -0.845915
vn -0.000454 -0.533316 -0.845916
vn -0.268987 -0.533560 -0.801848
vn -0.265288 -0.533557 -0.803081
vn -0.508325 -0.534133 -0.675505
vn -0.502790 -0.534126 -0.679641
vn -0.694350 -0.534901 -0.481414
vn -0.689109 -0.534891 -0.488897
vn -0.809332 -0.535701 -0.240846
vn -0.806315 -0.535694 -0.250775
vn -0.843695 -0.536402 0.021251
vn -0.843895 -0.536401 0.010684
vn 0.743355 0.622487 -0.244813
vn 0.630964 0.623602 -0.461524
vn 0.629306 0.623580 -0.463812
vn 0.742286 0.622465 -0.248090
vn 0.457743 0.624367 -0.632959
vn 0.456155 0.624348 -0.634123
vn 0.240488 0.624797 -0.742829
vn 0.239583 0.624780 -0.743135
vn 0.000113 0.624912 -0.780695
vn 0.000244 0.624896 -0.780708
vn -0.240298 0.624722 -0.742953
vn -0.239154 0.624704 -0.743337
vn -0.457653 0.624213 -0.633176
vn -0.455886 0.624193 -0.634469
vn -0.631020 0.623365 -0.461769
vn -0.629259 0.623343 -0.464195
vn -0.743562 0.622167 -0.244999
vn -0.742458 0.622146 -0.248377
vn -0.784076 0.620654 -0.003525
vn -0.784063 0.620638 -0.007314
vn -0.748066 0.618936 0.239407
vn -0.749178 0.618928 0.235924
vn -0.638323 0.617201 0.460008
vn -0.640151 0.617203 0.457456
vn -0.464964 0.615706 0.636171
vn -0.466788 0.615718 0.634823
vn -0.244800 0.614716 0.749798
vn -0.245866 0.614733 0.749435
vn 0.000155 0.614425 0.788975
vn 0.000309 0.614444 0.788960
vn 0.245030 0.614895 0.749576
vn 0.246372 0.614911 0.749123
vn 0.464998 0.616029 0.635834
vn 0.467012 0.616038 0.634347
vn 0.638147 0.617607 0.459707
vn 0.640068 0.617607 0.457029
vn 0.747763 0.619359 0.239260
vn 0.748896 0.619349 0.235714
vn 0.783769 0.621043 -0.003483
vn 0.783757 0.621026 -0.007248
vn 0.000000 -1.000000 -0.000000
vn 0.000000 -1.000000 -0.000000
vn 0.000000 -1.000000 -0.000000
vn 0.000000 -1.000000 -0.000000
vn 0.013766 0.999538 0.027109
vn 0.013766 0.999538 0.027109
vn 0.013766 0.999538 0.027109
vn 0.013766 0.999538 0.027109
vn 0.000000 -1.000000 0.000000
vn 0.000000 -1.000000 0.000000
vn 0.000000 -1.000000 0.000000
vn 0.000000 -1.000000 0.000000
vn 0.016473 0.999728 0.016508
vn 0.016473 0.999728 0.016508
vn 0.016473 0.999728 0.016508
vn 0.016473 0.999728 0.016508
vn 0.000000 -1.000000 -0.000000
vn 0.000000 -1.000000 -0.000000
vn 0.000000 -1.000000 -0.000000
vn 0.000000 -1.000000 -0.000000
vn 0.012702 0.999898 0.006482
vn 0.012702 0.999898 0.006482
vn 0.012702 0.999898 0.006482
vn 0.012702 0.999898 0.006482
vn 0.000000 -1.000000 0.000000
vn 0.000000 -1.000000 0.000000
vn 0.000000 -1.000000 0.000000
vn 0.000000 -1.000000 0.000000
vn 0.003978 0.999992 0.000631
vn 0.003978 0.999992 0.000631
vn 0.003978 0.999992 0.000631
vn 0.003978 0.999992 0.000631
vn 0.000000 -1.000000 0.000000
vn 0.000000 -1.000000 0.000000
vn 0.000000 -1.000000 0.000000
vn 0.000000 -1.000000 0.000000
vn -0.006451 0.999979 0.001024
vn -0.006451 0.999979 0.001024
vn -0.006451 0.999979 0.001024
vn -0.006451 0.999979 0.001024
vn 0.000000 -1.000000 0.000000
vn 0.000000 -1.000000 0.000000
vn 0.000000 -1.000000 0.000000
vn 0.000000 -1.000000 0.000000
vn -0.014749 0.999863 0.007529
vn -0.014749 0.999863 0.007529
vn -0.014749 0.999863 0.007529
vn -0.014749 0.999863 0.007529
vn 0.000000 -1.000000 0.000000
vn 0.000000 -1.000000 0.000000
vn 0.000000 -1.000000 0.000000
vn 0.000000 -1.000000 0.000000
vn -0.017813 0.999682 0.017853
vn -0.017813 0.999682 0.017853
vn -0.017813 0.999682 0.017853
vn -0.017813 0.999682 0.017853
vn 0.000000 -1.000000 -0.000000
vn 0.000000 -1.000000 -0.000000
vn 0.000000 -1.000000 -0.000000
vn 0.000000 -1.000000 -0.000000
vn -0.014360 0.999497 0.028283
vn -0.014360 0.999497 0.028283
vn -0.014360 0.999497 0.028283
vn -0.014360 0.999497 0.028283
vn 0.000000 -1.000000 0.000000
vn 0.000000 -1.000000 0.000000
vn 0.000000 -1.000000 0.000000
vn 0.000000 -1.000000 0.000000
vn -0.005478 0.999374 0.034946
vn -0.005478 0.999374 0.034946
vn -0.005478 0.999374 0.034946
vn -0.005478 0.999374 0.034946
vn 0.000000 -1.000000 -0.000000
vn 0.000000 -1.000000 -0.000000
vn 0.000000 -1.000000 -0.000000
vn 0.000000 -1.000000 -0.000000
vn 0.005637 0.999364 0.035221
vn 0.005637 0.999364 0.035221
vn 0.005637 0.999364 0.035221
vn 0.005637 0.999364 0.035221
vn 0.000000 -1.000000 0.000000
vn 0.000000 -1.000000 0.000000
vn 0.000000 -1.000000 0.000000
vn 0.000000 -1.000000 0.000000
vn 0.014741 0.999476 0.028826
vn 0.014741 0.999476 0.028826
vn 0.014741 0.999476 0.028826
vn 0.014741 0.999476 0.028826
vn 0.000000 -1.000000 -0.000000
vn 0.000000 -1.000000 -0.000000
vn 0.000000 -1.000000 -0.000000
vn 0.000000 -1.000000 -0.000000
vn 0.018149 0.999671 0.018107
vn 0.018149 0.999671 0.018107
vn 0.018149 0.999671 0.018107
vn 0.018149 0.999671 0.018107
vn 0.000000 -1.000000 0.000000
vn 0.000000 -1.000000 0.000000
vn 0.000000 -1.000000 0.000000
vn 0.000000 -1.000000 0.000000
vn 0.014292 0.999871 0.007269
vn 0.014292 0.999871 0.007269
vn 0.014292 0.999871 0.007269
vn 0.014292 0.999871 0.007269
vn 0.000000 -1.000000 0.000000
vn 0.000000 -1.000000 0.000000
vn 0.000000 -1.000000 0.000000
vn 0.000000 -1.000000 0.000000
vn 0.004523 0.999990 0.000715
vn 0.004523 0.999989 0.000715
vn 0.004523 0.999990 0.000715
vn 0.004523 0.999990 0.000715
vn 0.000000 -1.000000 0.000000
vn 0.000000 -1.000000 0.000000
vn 0.000000 -1.000000 0.000000
vn 0.000000 -1.000000 0.000000
vn -0.007323 0.999973 0.001157
vn -0.007323 0.999973 0.001157
vn -0.007323 0.999973 0.001157
vn -0.007323 0.999973 0.001157
vn 0.000000 -1.000000 0.000000
vn 0.000000 -1.000000 0.000000
vn 0.000000 -1.000000 0.000000
vn 0.000000 -1.000000 0.000000
vn -0.016525 0.999828 0.008402
vn -0.016525 0.999828 0.008402
vn -0.016525 0.999828 0.008402
vn -0.016525 0.999828 0.008402
vn 0.000000 -1.000000 -0.000000
vn 0.000000 -1.000000 -0.000000
vn 0.000000 -1.000000 -0.000000
vn 0.000000 -1.000000 -0.000000
vn -0.019494 0.999621 0.019445
vn -0.019494 0.999621 0.019445
vn -0.019494 0.999621 0.019445
vn -0.019494 0.999621 0.019445
vn 0.000000 -1.000000 0.000000
vn 0.000000 -1.000000 0.000000
vn 0.000000 -1.000000 0.000000
vn 0.000000 -1.000000 0.000000
vn -0.015248 0.999439 0.029815
vn -0.015248 0.999439 0.029815
vn -0.015248 0.999439 0.029815
vn -0.015248 0.999439 0.029815
vn 0.000000 -1.000000 -0.000000
vn 0.000000 -1.000000 -0.000000
vn 0.000000 -1.000000 -0.000000
vn 0.000000 -1.000000 -0.000000
vn -0.005677 0.999355 0.035470
vn -0.005677 0.999355 0.035470
vn -0.005677 0.999355 0.035470
vn -0.005677 0.999355 0.035470
vn 0.000000 -1.000000 0.000000
vn 0.000000 -1.000000 0.000000
vn 0.000000 -1.000000 0.000000
vn 0.000000 -1.000000 0.000000
vn 0.005388 0.999395 0.034371
vn 0.005388 0.999395 0.034371
vn 0.005388 0.999395 0.034371
vn 0.005388 0.999395 0.034371
vn -0.784179 0.620338 -0.015623
vn -0.751720 0.618694 0.228331
vn -0.755059 0.618691 0.217045
vn -0.783858 0.620317 -0.027812
vn -0.740180 0.621837 -0.255838
vn -0.736389 0.621803 -0.266630
vn -0.625503 0.623072 -0.469603
vn -0.619682 0.623033 -0.477309
vn -0.452071 0.623981 -0.637400
vn -0.446312 0.623942 -0.641484
vn -0.236669 0.624543 -0.744267
vn -0.232965 0.624507 -0.745465
vn 0.000531 0.624758 -0.780819
vn 0.000952 0.624724 -0.780845
vn 0.237624 0.624627 -0.743893
vn 0.234693 0.624592 -0.744852
vn 0.452733 0.624149 -0.636766
vn 0.447563 0.624111 -0.640447
vn 0.625771 0.623323 -0.468913
vn 0.620296 0.623283 -0.476184
vn 0.740081 0.622162 -0.255332
vn 0.736413 0.622127 -0.265808
vn 0.783881 0.620718 -0.015507
vn 0.783567 0.620693 -0.027618
vn 0.751496 0.619094 0.227983
vn 0.754893 0.619087 0.216492
vn 0.644324 0.617459 0.451210
vn 0.650350 0.617469 0.442466
vn 0.471410 0.616026 0.631098
vn 0.477844 0.616050 0.626217
vn 0.249279 0.615015 0.748075
vn 0.253605 0.615048 0.746593
vn 0.000647 0.614600 0.788839
vn 0.001148 0.614636 0.788810
vn -0.248168 0.614856 0.748576
vn -0.251607 0.614890 0.747398
vn -0.470758 0.615736 0.631867
vn -0.476591 0.615763 0.627453
vn -0.644191 0.617087 0.451909
vn -0.649937 0.617101 0.443585
s 1
g pCone1
usemtl initialShadingGroup
f 41/1/1 44/2/2 43/3/3 42/4/4
f 42/4/4 43/3/3 46/7/5 45/8/6
f 45/165/6 46/166/5 48/167/7 47/168/8
f 47/168/8 48/167/7 50/169/9 49/170/10
f 49/170/10 50/169/9 52/171/11 51/172/12
f 51/172/12 52/171/11 54/173/13 53/174/14
f 53/19/14 54/20/13 56/16/15 55/15/16
f 55/15/16 56/16/15 58/17/17 57/18/18
f 57/18/18 58/17/17 60/21/19 59/22/20
f 59/22/20 60/21/19 62/23/21 61/24/22
f 61/24/22 62/23/21 64/25/23 63/26/24
f 63/26/24 64/25/23 66/27/25 65/28/26
f 65/175/26 66/176/25 68/177/27 67/178/28
f 67/178/28 68/177/27 70/179/29 69/180/30
f 69/180/30 70/179/29 72/181/31 71/182/32
f 71/182/32 72/181/31 74/183/33 73/184/34
f 73/13/34 74/14/33 76/12/35 75/11/36
f 75/11/36 76/12/35 78/10/37 77/9/38
f 77/9/38 78/10/37 80/6/39 79/5/40
f 79/5/40 80/6/39 44/2/2 41/1/1
s 2
f 1/29/41 2/30/42 110/31/43 111/32/44
f 2/30/42 3/33/45 109/34/46 110/31/43
f 3/185/45 4/186/47 108/187/48 109/188/46
f 4/186/47 5/189/49 107/190/50 108/187/48
f 5/189/49 6/193/51 106/194/52 107/190/50
f 6/193/51 7/198/53 105/199/54 106/194/52
f 7/65/53 8/57/55 104/60/56 105/66/54
f 8/57/55 9/58/57 103/59/58 104/60/56
f 9/58/57 10/61/59 102/62/60 103/59/58
f 10/61/59 11/67/61 101/68/62 102/62/60
f 11/67/61 12/73/63 120/74/64 101/68/62
f 12/73/63 13/78/65 119/79/66 120/74/64
f 13/205/65 14/206/67 118/207/68 119/208/66
f 14/206/67 15/209/69 117/210/70 118/207/68
f 15/209/69 16/213/71 116/214/72 117/210/70
f 16/213/71 17/218/73 115/219/74 116/214/72
f 17/52/73 18/48/75 114/49/76 115/53/74
f 18/48/75 19/43/77 113/44/78 114/49/76
f 19/43/77 20/37/79 112/38/80 113/44/78
f 20/37/79 1/29/41 111/32/44 112/38/80
s off
f 1/85/81 41/86/82 42/87/83 2/88/84
f 22/125/85 43/126/86 44/127/87 21/128/88
f 2/88/89 42/87/90 45/91/91 3/92/92
f 23/129/93 46/130/94 43/126/95 22/125/96
f 3/92/97 45/91/98 47/95/99 4/96/100
f 24/133/101 48/134/102 46/130/103 23/129/104
f 4/96/105 47/95/106 49/99/107 5/100/108
f 25/137/109 50/138/110 48/134/111 24/133/112
f 5/100/113 49/99/114 51/103/115 6/104/116
f 26/141/117 52/142/118 50/138/119 25/137/120
f 6/104/121 51/103/122 53/107/123 7/108/124
f 27/145/125 54/146/126 52/142/127 26/141/128
f 7/108/129 53/107/130 55/111/131 8/112/132
f 28/149/133 56/150/134 54/146/135 27/145/136
f 8/112/137 55/111/138 57/115/139 9/116/140
f 29/153/141 58/154/142 56/150/143 28/149/144
f 9/116/145 57/115/146 59/119/147 10/120/148
f 30/157/149 60/158/150 58/154/151 29/153/152
f 10/120/153 59/119/154 61/123/155 11/124/156
f 31/161/157 62/162/158 60/158/159 30/157/160
f 11/124/161 61/123/162 63/122/163 12/121/164
f 32/164/165 64/163/166 62/162/167 31/161/168
f 12/121/169 63/122/170 65/118/171 13/117/172
f 33/160/173 66/159/174 64/163/175 32/164/176
f 13/117/177 65/118/178 67/114/179 14/113/180
f 34/156/181 68/155/182 66/159/183 33/160/184
f 14/113/185 67/114/186 69/110/187 15/109/188
f 35/152/189 70/151/190 68/155/191 34/156/192
f 15/109/193 69/110/194 71/106/195 16/105/196
f 36/148/197 72/147/198 70/151/199 35/152/200
f 16/105/201 71/106/202 73/102/203 17/101/204
f 37/144/205 74/143/206 72/147/207 36/148/208
f 17/101/209 73/102/210 75/98/211 18/97/212
f 38/140/213 76/139/214 74/143/215 37/144/216
f 18/97/217 75/98/218 77/94/219 19/93/220
f 39/136/221 78/135/222 76/139/223 38/140/224
f 19/93/225 77/94/226 79/90/227 20/89/228
f 40/132/229 80/131/230 78/135/231 39/136/232
f 20/89/233 79/90/234 41/86/235 1/85/236
f 21/128/237 44/127/238 80/131/239 40/132/240
s 2
f 82/69/241 81/75/242 31/81/243 30/76/244
f 83/63/245 82/69/241 30/76/244 29/70/246
f 84/64/247 83/63/245 29/70/246 28/71/248
f 85/72/249 84/64/247 28/71/248 27/77/250
f 86/200/251 85/202/249 27/204/250 26/203/252
f 87/195/253 86/200/251 26/203/252 25/201/254
f 88/191/255 87/195/253 25/201/254 24/196/256
f 89/192/257 88/191/255 24/196/256 23/197/258
f 90/35/259 89/39/257 23/45/258 22/40/260
f 91/36/261 90/35/259 22/40/260 21/41/262
f 92/42/263 91/36/261 21/41/262 40/46/264
f 93/47/265 92/42/263 40/46/264 39/50/266
f 94/51/267 93/47/265 39/50/266 38/54/268
f 95/55/269 94/51/267 38/54/268 37/56/270
f 96/220/271 95/222/269 37/224/270 36/223/272
f 97/215/273 96/220/271 36/223/272 35/221/274
f 98/211/275 97/215/273 35/221/274 34/216/276
f 99/212/277 98/211/275 34/216/276 33/217/278
f 100/80/279 99/82/277 33/84/278 32/83/280
f 81/75/242 100/80/279 32/83/280 31/81/243
f 102/62/60 101/68/62 81/75/242 82/69/241
f 103/59/58 102/62/60 82/69/241 83/63/245
f 104/60/56 103/59/58 83/63/245 84/64/247
f 105/66/54 104/60/56 84/64/247 85/72/249
f 106/194/52 105/199/54 85/202/249 86/200/251
f 107/190/50 106/194/52 86/200/251 87/195/253
f 108/187/48 107/190/50 87/195/253 88/191/255
f 109/188/46 108/187/48 88/191/255 89/192/257
f 110/31/43 109/34/46 89/39/257 90/35/259
f 111/32/44 110/31/43 90/35/259 91/36/261
f 112/38/80 111/32/44 91/36/261 92/42/263
f 113/44/78 112/38/80 92/42/263 93/47/265
f 114/49/76 113/44/78 93/47/265 94/51/267
f 115/53/74 114/49/76 94/51/267 95/55/269
f 116/214/72 115/219/74 95/222/269 96/220/271
f 117/210/70 116/214/72 96/220/271 97/215/273
f 118/207/68 117/210/70 97/215/273 98/211/275
f 119/208/66 118/207/68 98/211/275 99/212/277
f 120/74/64 119/79/66 99/82/277 100/80/279
f 101/68/62 120/74/64 100/80/279 81/75/242
