# This file uses centimeters as units for non-parametric coordinates.

mtllib background_wall.mtl
g default
v -0.636741 -0.636741 -0.044207
v -0.636741 -0.636741 0.051156
v -0.636741 0.636741 -0.044207
v -0.636741 0.636741 0.051156
v 0.636741 0.636741 -0.044207
v 0.636741 0.636741 0.051156
v 0.636741 -0.636741 -0.044207
v 0.636741 -0.636741 0.051156
vt 0.018649 0.344019
vt 0.647944 0.344019
vt 0.647944 0.973313
vt 0.018649 0.973313
vt 0.690881 0.684826
vt 0.974644 0.684826
vt 0.974644 0.968590
vt 0.690881 0.968590
vt 0.357549 0.003632
vt 0.641313 0.003632
vt 0.641313 0.287396
vt 0.357549 0.287396
vt 0.697906 0.288709
vt 0.697906 0.004946
vt 0.981669 0.004946
vt 0.981669 0.288709
vt 0.019850 0.019505
vt 0.303613 0.019505
vt 0.303613 0.303269
vt 0.019850 0.303269
vt 0.697003 0.641882
vt 0.697003 0.358118
vt 0.980766 0.358118
vt 0.980766 0.641882
vn -1.000000 0.000000 0.000000
vn -1.000000 0.000000 0.000000
vn -1.000000 0.000000 0.000000
vn -1.000000 0.000000 0.000000
vn 0.000000 1.000000 0.000000
vn 0.000000 1.000000 0.000000
vn 0.000000 1.000000 0.000000
vn 0.000000 1.000000 0.000000
vn 1.000000 0.000000 -0.000000
vn 1.000000 0.000000 -0.000000
vn 1.000000 0.000000 -0.000000
vn 1.000000 0.000000 -0.000000
vn 0.000000 -1.000000 0.000000
vn 0.000000 -1.000000 0.000000
vn 0.000000 -1.000000 0.000000
vn 0.000000 -1.000000 0.000000
vn 0.000000 0.000000 1.000000
vn 0.000000 0.000000 1.000000
vn 0.000000 0.000000 1.000000
vn 0.000000 0.000000 1.000000
vn -0.000000 0.000000 -1.000000
vn -0.000000 0.000000 -1.000000
vn -0.000000 0.000000 -1.000000
vn -0.000000 0.000000 -1.000000
s off
g wall
usemtl initialShadingGroup
f 1/17/1 2/18/2 4/19/3 3/20/4
f 3/9/5 4/10/6 6/11/7 5/12/8
f 5/21/9 6/22/10 8/23/11 7/24/12
f 7/13/13 8/14/14 2/15/15 1/16/16
f 2/1/17 8/2/18 6/3/19 4/4/20
f 7/5/21 1/6/22 3/7/23 5/8/24
