# This file uses centimeters as units for non-parametric coordinates.

mtllib stairs.mtl
g default
v 1.000000 0.000497 0.000000
v 1.000000 0.000497 -1.000000
v 1.000000 0.500000 0.000000
v 1.000000 0.500000 -1.000000
v -1.000000 0.500000 0.000000
v -1.000000 0.500000 -1.000000
v -1.000000 0.000497 0.000000
v -1.000000 0.000497 -1.000000
v 0.500000 0.500000 -1.000000
v 0.500000 0.500000 0.000000
v 0.500000 0.000497 0.000000
v 0.500000 0.000497 -1.000000
v 0.500000 1.000000 -1.000000
v 0.500000 1.000000 0.000000
v -1.000000 1.000000 -1.000000
v -1.000000 1.000000 0.000000
v 0.000000 1.000000 -1.000000
v 0.000000 1.000000 0.000000
v 0.000000 0.500000 0.000000
v 0.000000 0.000497 0.000000
v 0.000000 0.000497 -1.000000
v 0.000000 0.500000 -1.000000
v 0.000000 1.500000 -1.000000
v 0.000000 1.500000 0.000000
v -1.000000 1.500000 -1.000000
v -1.000000 1.500000 0.000000
v -0.500000 1.500000 -1.000000
v -0.500000 1.500000 0.000000
v -0.500000 1.000000 0.000000
v -0.500000 0.500000 0.000000
v -0.500000 0.000497 0.000000
v -0.500000 0.000497 -1.000000
v -0.500000 0.500000 -1.000000
v -0.500000 1.000000 -1.000000
v -0.500000 2.000000 -1.000000
v -0.500000 2.000000 0.000000
v -1.000000 2.000000 -1.000000
v -1.000000 2.000000 0.000000
vt 0.683388 0.641454
vt 0.683388 0.561453
vt 0.758061 0.561453
vt 0.758061 0.641454
vt 0.683388 0.487315
vt 0.758061 0.487315
vt 0.683388 0.414780
vt 0.758061 0.414780
vt 0.835863 0.487315
vt 0.835863 0.561453
vt 0.683388 0.323684
vt 0.758061 0.323684
vt 0.835863 0.414780
vt 0.835863 0.323684
vt 0.922210 0.414780
vt 0.922210 0.487315
vt 0.922210 0.323684
vt 0.998008 0.323684
vt 0.998008 0.414780
vt 0.362632 0.403685
vt 0.362632 0.323684
vt 0.437306 0.323684
vt 0.437306 0.403685
vt 0.362632 0.477823
vt 0.437306 0.477823
vt 0.515107 0.403685
vt 0.515107 0.477823
vt 0.362632 0.550359
vt 0.437306 0.550359
vt 0.515107 0.550359
vt 0.362632 0.641454
vt 0.437306 0.641454
vt 0.601454 0.477823
vt 0.601454 0.550359
vt 0.515107 0.641454
vt 0.601454 0.641454
vt 0.677253 0.550359
vt 0.677253 0.641454
vt 0.084043 0.319693
vt 0.084043 0.001923
vt 0.164044 0.001923
vt 0.164044 0.319693
vt 0.493323 0.239692
vt 0.811093 0.239692
vt 0.811093 0.319693
vt 0.493323 0.319693
vt 0.493323 0.165554
vt 0.811093 0.165554
vt 0.493323 0.093018
vt 0.811093 0.093018
vt 0.493323 0.001923
vt 0.811093 0.001923
vt 0.282359 0.641454
vt 0.282359 0.323684
vt 0.356497 0.323684
vt 0.356497 0.641454
vt 0.119751 0.641454
vt 0.119751 0.323684
vt 0.192287 0.323684
vt 0.192287 0.641454
vt 0.001992 0.963216
vt 0.001992 0.645446
vt 0.093088 0.645446
vt 0.093088 0.963216
vt 0.001992 0.319693
vt 0.001992 0.001923
vt 0.076666 0.001923
vt 0.076666 0.319693
vt 0.411692 0.319693
vt 0.411692 0.001923
vt 0.486366 0.001923
vt 0.486366 0.319693
vt 0.333891 0.319693
vt 0.333891 0.001923
vt 0.247544 0.319693
vt 0.247544 0.001923
vt 0.171746 0.319693
vt 0.171746 0.001923
vt 0.198422 0.641454
vt 0.198422 0.323684
vt 0.276224 0.323684
vt 0.276224 0.641454
vt 0.027269 0.641454
vt 0.027269 0.323684
vt 0.113616 0.323684
vt 0.113616 0.641454
vt 0.099635 0.963216
vt 0.099635 0.645446
vt 0.175433 0.645446
vt 0.175433 0.963216
vn 1.000000 0.000000 0.000000
vn 1.000000 0.000000 0.000000
vn 1.000000 0.000000 0.000000
vn 1.000000 0.000000 0.000000
vn 0.000000 1.000000 0.000000
vn 0.000000 1.000000 0.000000
vn 0.000000 1.000000 0.000000
vn 0.000000 1.000000 0.000000
vn -1.000000 0.000000 -0.000000
vn -1.000000 0.000000 -0.000000
vn -1.000000 0.000000 -0.000000
vn -1.000000 0.000000 -0.000000
vn 0.000000 -1.000000 0.000000
vn 0.000000 -1.000000 0.000000
vn 0.000000 -1.000000 0.000000
vn 0.000000 -1.000000 0.000000
vn 0.000000 -0.000000 -1.000000
vn 0.000000 -0.000000 -1.000000
vn -0.000000 -0.000000 -1.000000
vn 0.000000 -0.000000 -1.000000
vn -0.000000 -0.000000 1.000000
vn -0.000000 -0.000000 1.000000
vn -0.000000 -0.000000 1.000000
vn -0.000000 -0.000000 1.000000
vn 0.000001 1.000000 0.000000
vn 0.000001 1.000000 0.000000
vn 0.000001 1.000000 0.000000
vn 0.000001 1.000000 0.000000
vn -0.000000 0.000000 1.000000
vn -0.000000 0.000000 1.000000
vn 0.000000 -1.000000 0.000000
vn 0.000000 -1.000000 0.000000
vn 0.000000 -0.000000 -1.000000
vn -0.000000 -0.000000 -1.000000
vn 1.000000 0.000000 0.000000
vn 1.000000 0.000000 0.000000
vn 1.000000 0.000000 0.000000
vn 1.000000 0.000000 0.000000
vn 0.000000 0.000000 -1.000000
vn -0.000000 0.000000 -1.000000
vn -1.000000 0.000000 -0.000000
vn -1.000000 0.000000 -0.000000
vn -0.000000 0.000000 1.000000
vn -0.000000 0.000000 1.000000
vn -0.000000 1.000000 -0.000000
vn -0.000000 1.000000 -0.000000
vn -0.000000 1.000000 -0.000000
vn -0.000000 1.000000 -0.000000
vn -0.000000 0.000000 1.000000
vn -0.000000 0.000000 1.000000
vn -0.000000 0.000000 1.000000
vn 0.000000 -1.000000 0.000000
vn 0.000000 -1.000000 0.000000
vn 0.000000 -0.000000 -1.000000
vn 0.000000 -0.000000 -1.000000
vn -0.000000 0.000000 -1.000000
vn 1.000000 0.000000 0.000000
vn 1.000000 0.000000 0.000000
vn 1.000000 0.000000 0.000000
vn 1.000000 0.000000 0.000000
vn -0.000000 -0.000000 -1.000000
vn 0.000000 -0.000000 -1.000000
vn -1.000000 0.000000 -0.000000
vn -1.000000 0.000000 -0.000000
vn -0.000000 0.000000 1.000000
vn -0.000000 0.000000 1.000000
vn 0.000000 1.000000 0.000000
vn 0.000000 1.000000 0.000000
vn 0.000000 1.000000 0.000000
vn 0.000000 1.000000 0.000000
vn -0.000000 0.000000 1.000000
vn -0.000000 0.000000 1.000000
vn -0.000000 0.000000 1.000000
vn -0.000000 0.000000 1.000000
vn 0.000000 -1.000000 0.000000
vn 0.000000 -1.000000 0.000000
vn -0.000000 -0.000000 -1.000000
vn -0.000000 -0.000000 -1.000000
vn -0.000000 -0.000000 -1.000000
vn -0.000000 0.000000 -1.000000
vn 1.000000 0.000000 0.000000
vn 1.000000 0.000000 0.000000
vn 1.000000 0.000000 0.000000
vn 1.000000 0.000000 0.000000
vn -0.000000 0.000000 -1.000000
vn -0.000000 0.000000 -1.000000
vn -1.000000 0.000000 -0.000000
vn -1.000000 0.000000 -0.000000
vn -0.000000 0.000000 1.000000
vn -0.000000 0.000000 1.000000
s off
g stairs
usemtl initialShadingGroup
f 1/65/1 2/66/2 4/67/3 3/68/4
f 3/39/5 4/40/6 9/41/7 10/42/8
s 1
f 5/69/9 6/70/10 8/71/11 7/72/12
s 2
f 11/43/13 12/44/14 2/45/15 1/46/16
s 3
f 2/1/17 12/2/18 9/3/19 4/4/20
s 4
f 11/20/21 1/21/22 3/22/23 10/23/24
s off
f 14/53/25 13/54/26 17/55/27 18/56/28
s 4
f 20/24/29 11/20/21 10/23/24 19/25/30
s 2
f 20/47/31 21/48/32 12/44/14 11/43/13
s 3
f 9/3/19 12/2/18 21/5/33 22/6/34
s off
f 10/79/35 9/80/36 13/81/37 14/82/38
s 3
f 9/3/19 22/6/34 17/9/39 13/10/40
s 1
f 6/70/10 5/69/9 16/73/41 15/74/42
s 4
f 19/25/30 10/23/24 14/26/43 18/27/44
s off
f 24/57/45 23/58/46 27/59/47 28/60/48
s 4
f 30/29/49 19/25/30 18/27/44 29/30/50
f 31/28/51 20/24/29 19/25/30 30/29/49
s 2
f 31/49/52 32/50/53 21/48/32 20/47/31
s 3
f 22/6/34 21/5/33 32/7/54 33/8/55
f 17/9/39 22/6/34 33/8/55 34/13/56
s off
f 18/83/57 17/84/58 23/85/59 24/86/60
s 3
f 17/9/39 34/13/56 27/15/61 23/16/62
s 1
f 15/74/42 16/73/41 26/75/63 25/76/64
s 4
f 29/30/50 18/27/44 24/33/65 28/34/66
s off
f 36/61/67 35/62/68 37/63/69 38/64/70
s 4
f 16/35/71 29/30/50 28/34/66 26/36/72
f 5/32/73 30/29/49 29/30/50 16/35/71
f 7/31/74 31/28/51 30/29/49 5/32/73
s 2
f 7/51/75 8/52/76 32/50/53 31/49/52
s 3
f 33/8/55 32/7/54 8/11/77 6/12/78
f 34/13/56 33/8/55 6/12/78 15/14/79
f 27/15/61 34/13/56 15/14/79 25/17/80
s off
f 28/87/81 27/88/82 35/89/83 36/90/84
s 3
f 27/15/61 25/17/80 37/18/85 35/19/86
s 1
f 25/76/64 26/75/63 38/77/87 37/78/88
s 4
f 26/36/72 28/34/66 36/37/89 38/38/90
