# This file uses centimeters as units for non-parametric coordinates.

mtllib light_bottom.mtl
g default
v 0.084125 -0.555417 -0.027334
v 0.071561 -0.555417 -0.051992
v 0.051992 -0.555417 -0.071561
v 0.027334 -0.555417 -0.084125
v 0.000000 -0.555417 -0.088454
v -0.027334 -0.555417 -0.084125
v -0.051992 -0.555417 -0.071561
v -0.071561 -0.555417 -0.051992
v -0.084125 -0.555417 -0.027334
v -0.088454 -0.555417 0.000000
v -0.084125 -0.555417 0.027334
v -0.071561 -0.555417 0.051992
v -0.051992 -0.555417 0.071561
v -0.027334 -0.555417 0.084125
v 0.000000 -0.555417 0.088454
v 0.027334 -0.555417 0.084125
v 0.051992 -0.555417 0.071561
v 0.071561 -0.555417 0.051992
v 0.084125 -0.555417 0.027334
v 0.088454 -0.555417 0.000000
v 0.038233 0.017340 -0.012423
v 0.032523 0.017340 -0.023629
v 0.023629 0.017340 -0.032523
v 0.012423 0.017340 -0.038233
v 0.000000 0.017340 -0.040201
v -0.012423 0.017340 -0.038233
v -0.023629 0.017340 -0.032523
v -0.032523 0.017340 -0.023629
v -0.038233 0.017340 -0.012423
v -0.040201 0.017340 0.000000
v -0.038233 0.017340 0.012423
v -0.032523 0.017340 0.023629
v -0.023629 0.017340 0.032523
v -0.012423 0.017340 0.038233
v -0.000000 0.017340 0.040201
v 0.012423 0.017340 0.038233
v 0.023629 0.017340 0.032523
v 0.032523 0.017340 0.023629
v 0.038233 0.017340 0.012423
v 0.040201 0.017340 0.000000
v 0.000000 0.017340 0.000000
v 0.206655 -0.765100 -0.067146
v 0.175791 -0.765100 -0.127720
v 0.127720 -0.765100 -0.175791
v 0.067146 -0.765100 -0.206655
v 0.000000 -0.765100 -0.217290
v -0.067146 -0.765100 -0.206655
v -0.127720 -0.765100 -0.175791
v -0.175791 -0.765100 -0.127719
v -0.206655 -0.765100 -0.067146
v -0.217290 -0.765100 0.000000
v -0.206655 -0.765100 0.067146
v -0.175791 -0.765100 0.127719
v -0.127720 -0.765100 0.175791
v -0.067146 -0.765100 0.206655
v 0.000000 -0.765100 0.217290
v 0.067146 -0.765100 0.206655
v 0.127720 -0.765100 0.175791
v 0.175791 -0.765100 0.127719
v 0.206655 -0.765100 0.067146
v 0.217290 -0.765100 0.000001
v 0.154325 -0.765100 -0.050143
v 0.131276 -0.765100 -0.095378
v 0.095378 -0.765100 -0.131276
v 0.050143 -0.765100 -0.154325
v 0.000000 -0.765100 -0.162267
v -0.050143 -0.765100 -0.154325
v -0.095378 -0.765100 -0.131276
v -0.131276 -0.765100 -0.095377
v -0.154325 -0.765100 -0.050143
v -0.162267 -0.765100 0.000000
v -0.154325 -0.765100 0.050143
v -0.131276 -0.765100 0.095378
v -0.095378 -0.765100 0.131277
v -0.050143 -0.765100 0.154325
v 0.000000 -0.765100 0.162267
v 0.050143 -0.765100 0.154325
v 0.095378 -0.765100 0.131276
v 0.131276 -0.765100 0.095378
v 0.154325 -0.765100 0.050143
v 0.162267 -0.765100 0.000000
v 0.109907 -0.630605 -0.035711
v 0.093492 -0.630605 -0.067926
v 0.000000 -0.630604 0.000000
v 0.067926 -0.630605 -0.093492
v 0.035711 -0.630605 -0.109907
v 0.000000 -0.630605 -0.115563
v -0.035711 -0.630605 -0.109907
v -0.067926 -0.630605 -0.093492
v -0.093492 -0.630605 -0.067926
v -0.109907 -0.630605 -0.035711
v -0.115563 -0.630605 0.000000
v -0.109907 -0.630605 0.035711
v -0.093492 -0.630605 0.067926
v -0.067926 -0.630605 0.093493
v -0.035711 -0.630605 0.109907
v 0.000000 -0.630605 0.115563
v 0.035711 -0.630605 0.109907
v 0.067926 -0.630605 0.093493
v 0.093492 -0.630605 0.067925
v 0.109907 -0.630605 0.035710
v 0.115563 -0.630605 0.000000
v -0.000000 -0.485835 0.040201
v -0.012423 -0.485835 0.038233
v -0.023629 -0.485835 0.032523
v -0.032523 -0.485835 0.023629
v -0.038233 -0.485835 0.012423
v -0.040201 -0.485835 0.000000
v -0.038233 -0.485835 -0.012423
v -0.032523 -0.485835 -0.023629
v -0.023629 -0.485835 -0.032523
v -0.012423 -0.485835 -0.038233
v 0.000000 -0.485835 -0.040201
v 0.012423 -0.485835 -0.038233
v 0.023629 -0.485835 -0.032523
v 0.032523 -0.485835 -0.023629
v 0.038233 -0.485835 -0.012423
v 0.040201 -0.485835 0.000000
v 0.038233 -0.485835 0.012423
v 0.032523 -0.485835 0.023629
v 0.023629 -0.485835 0.032523
v 0.012423 -0.485835 0.038233
vt 0.274084 0.524787
vt 0.274084 0.511992
vt 0.319855 0.511992
vt 0.319855 0.524787
vt 0.274084 0.501838
vt 0.319855 0.501838
vt 0.274084 0.538970
vt 0.319855 0.538970
vt 0.274084 0.553154
vt 0.319855 0.553154
vt 0.274084 0.565948
vt 0.319855 0.565948
vt 0.274084 0.576103
vt 0.319855 0.576103
vt 0.222662 0.524787
vt 0.222662 0.511992
vt 0.268433 0.511992
vt 0.268433 0.524787
vt 0.222662 0.501838
vt 0.268433 0.501838
vt 0.222662 0.538970
vt 0.268433 0.538970
vt 0.222662 0.553154
vt 0.268433 0.553154
vt 0.222662 0.565948
vt 0.268433 0.565948
vt 0.222662 0.576103
vt 0.268433 0.576103
vt 0.345967 0.281285
vt 0.331622 0.309437
vt 0.287052 0.277055
vt 0.293571 0.264260
vt 0.485862 0.326739
vt 0.450625 0.395898
vt 0.309280 0.331780
vt 0.276898 0.287209
vt 0.350909 0.250077
vt 0.295818 0.250077
vt 0.498004 0.250076
vt 0.395740 0.450782
vt 0.281127 0.346124
vt 0.264103 0.293729
vt 0.345967 0.218869
vt 0.293571 0.235894
vt 0.485862 0.173414
vt 0.326582 0.486020
vt 0.249919 0.351067
vt 0.249919 0.295975
vt 0.331622 0.190717
vt 0.287052 0.223099
vt 0.450624 0.104257
vt 0.249919 0.498162
vt 0.218712 0.346124
vt 0.235736 0.293729
vt 0.309280 0.168374
vt 0.276898 0.212945
vt 0.395740 0.049372
vt 0.173257 0.486020
vt 0.190559 0.331780
vt 0.222941 0.287209
vt 0.281127 0.154030
vt 0.264103 0.206425
vt 0.326582 0.014134
vt 0.104099 0.450782
vt 0.168217 0.309437
vt 0.212787 0.277055
vt 0.249919 0.149087
vt 0.249919 0.204179
vt 0.249919 0.001992
vt 0.049214 0.395897
vt 0.153872 0.281285
vt 0.206268 0.264260
vt 0.218712 0.154030
vt 0.235736 0.206425
vt 0.173257 0.014134
vt 0.013977 0.326739
vt 0.148930 0.250077
vt 0.204021 0.250077
vt 0.190559 0.168374
vt 0.222941 0.212945
vt 0.104099 0.049372
vt 0.001835 0.250077
vt 0.153872 0.218869
vt 0.206268 0.235894
vt 0.168217 0.190717
vt 0.212787 0.223099
vt 0.049214 0.104257
vt 0.013977 0.173414
vt 0.777779 0.672371
vt 0.796520 0.709151
vt 0.671037 0.749923
vt 0.820918 0.641028
vt 0.847233 0.692673
vt 0.802978 0.749923
vt 0.748590 0.643181
vt 0.871742 0.604102
vt 0.906980 0.673261
vt 0.856300 0.749923
vt 0.779932 0.600042
vt 0.796520 0.790694
vt 0.711809 0.624439
vt 0.919122 0.749924
vt 0.816858 0.549218
vt 0.847233 0.807173
vt 0.728287 0.573727
vt 0.777779 0.827475
vt 0.671037 0.617982
vt 0.906980 0.826586
vt 0.747699 0.513980
vt 0.820918 0.858818
vt 0.671037 0.564659
vt 0.748590 0.856666
vt 0.630265 0.624440
vt 0.871742 0.895743
vt 0.671037 0.501838
vt 0.779932 0.899804
vt 0.613787 0.573727
vt 0.711809 0.875407
vt 0.593484 0.643181
vt 0.816857 0.950628
vt 0.594374 0.513980
vt 0.728286 0.926119
vt 0.562142 0.600042
vt 0.671037 0.881864
vt 0.564294 0.672370
vt 0.747699 0.985866
vt 0.525216 0.549218
vt 0.671037 0.935187
vt 0.521155 0.641028
vt 0.630265 0.875406
vt 0.545554 0.709151
vt 0.671037 0.998008
vt 0.470332 0.604103
vt 0.613787 0.926119
vt 0.494841 0.692673
vt 0.593484 0.856666
vt 0.539096 0.749923
vt 0.594374 0.985866
vt 0.435094 0.673261
vt 0.562142 0.899805
vt 0.485773 0.749923
vt 0.564294 0.827476
vt 0.545554 0.790695
vt 0.525216 0.950628
vt 0.422952 0.749923
vt 0.521155 0.858818
vt 0.494841 0.807173
vt 0.470332 0.895743
vt 0.435094 0.826586
vt 0.415055 0.561919
vt 0.408536 0.574714
vt 0.371404 0.547736
vt 0.398382 0.584868
vt 0.417302 0.547736
vt 0.385587 0.591388
vt 0.415055 0.533553
vt 0.371404 0.593634
vt 0.408536 0.520758
vt 0.357220 0.591388
vt 0.398382 0.510604
vt 0.344425 0.584868
vt 0.385587 0.504084
vt 0.334271 0.574714
vt 0.371404 0.501838
vt 0.327752 0.561919
vt 0.357220 0.504084
vt 0.325506 0.547736
vt 0.344425 0.510604
vt 0.327752 0.533553
vt 0.334271 0.520758
vt 0.171240 0.542999
vt 0.171240 0.528816
vt 0.217011 0.528816
vt 0.217011 0.542999
vt 0.171240 0.514633
vt 0.217011 0.514633
vt 0.171240 0.555794
vt 0.217011 0.555794
vt 0.171240 0.501838
vt 0.217011 0.501838
vt 0.165590 0.542999
vt 0.165590 0.555794
vt 0.119818 0.555794
vt 0.119818 0.542999
vt 0.165590 0.528816
vt 0.119818 0.528816
vt 0.165590 0.514633
vt 0.119818 0.514633
vt 0.165590 0.501838
vt 0.119818 0.501838
vn 0.807384 0.528500 -0.262333
vn 0.686801 0.528500 -0.498991
vn 0.801671 0.134455 -0.582448
vn 0.942421 0.134455 -0.306210
vn 0.498991 0.528500 -0.686801
vn 0.582448 0.134455 -0.801671
vn 0.262335 0.528500 -0.807383
vn 0.306211 0.134455 -0.942421
vn -0.000000 0.528500 -0.848933
vn -0.000000 0.134455 -0.990920
vn -0.262335 0.528500 -0.807383
vn -0.306211 0.134455 -0.942421
vn -0.498992 0.528500 -0.686800
vn -0.582448 0.134455 -0.801671
vn -0.686802 0.528500 -0.498991
vn -0.801671 0.134455 -0.582448
vn -0.807383 0.528500 -0.262335
vn -0.942421 0.134455 -0.306211
vn -0.848933 0.528500 -0.000000
vn -0.990920 0.134455 0.000000
vn -0.807383 0.528500 0.262335
vn -0.942421 0.134455 0.306211
vn -0.686801 0.528500 0.498991
vn -0.801671 0.134455 0.582448
vn -0.498992 0.528500 0.686800
vn -0.582448 0.134455 0.801671
vn -0.262334 0.528500 0.807384
vn -0.306211 0.134455 0.942421
vn 0.000000 0.528500 0.848933
vn 0.000000 0.134455 0.990920
vn 0.262334 0.528500 0.807384
vn 0.306211 0.134455 0.942421
vn 0.498992 0.528500 0.686800
vn 0.582448 0.134455 0.801671
vn 0.686801 0.528500 0.498991
vn 0.801671 0.134455 0.582448
vn 0.807383 0.528500 0.262336
vn 0.942421 0.134455 0.306211
vn 0.848933 0.528500 0.000000
vn 0.990920 0.134455 0.000001
vn -0.000002 -1.000000 0.000001
vn -0.000002 -1.000000 0.000001
vn 0.000000 -1.000000 -0.000000
vn -0.000001 -1.000000 0.000001
vn -0.000001 -1.000000 0.000002
vn 0.000000 -1.000000 0.000002
vn 0.000001 -1.000000 0.000002
vn 0.000001 -1.000000 0.000001
vn 0.000002 -1.000000 0.000001
vn 0.000002 -1.000000 0.000001
vn 0.000002 -1.000000 0.000000
vn 0.000002 -1.000000 -0.000001
vn 0.000002 -1.000000 -0.000001
vn 0.000001 -1.000000 -0.000001
vn 0.000001 -1.000000 -0.000002
vn 0.000000 -1.000000 -0.000002
vn -0.000001 -1.000000 -0.000002
vn -0.000001 -1.000000 -0.000002
vn -0.000002 -1.000000 -0.000001
vn -0.000002 -1.000000 -0.000001
vn -0.000002 -1.000000 0.000000
vn 0.000000 1.000000 0.000000
vn 0.000000 1.000000 0.000000
vn 0.000000 1.000000 -0.000000
vn 0.000000 1.000000 0.000000
vn 0.000000 1.000000 0.000000
vn 0.000000 1.000000 0.000000
vn 0.000000 1.000000 0.000000
vn 0.000000 1.000000 0.000000
vn 0.000000 1.000000 0.000000
vn 0.000000 1.000000 0.000000
vn 0.000000 1.000000 0.000000
vn 0.000000 1.000000 0.000000
vn 0.000000 1.000000 0.000000
vn 0.000000 1.000000 0.000000
vn 0.000000 1.000000 0.000000
vn 0.000000 1.000000 -0.000000
vn 0.000000 1.000000 -0.000000
vn 0.000000 1.000000 0.000000
vn 0.000000 1.000000 0.000000
vn 0.000000 1.000000 0.000000
vn 0.000000 1.000000 0.000000
vn 0.810320 0.523508 -0.263288
vn 0.689299 0.523507 -0.500806
vn 0.500806 0.523507 -0.689299
vn 0.263289 0.523508 -0.810320
vn -0.000000 0.523508 -0.852021
vn -0.263289 0.523508 -0.810320
vn -0.500807 0.523507 -0.689298
vn -0.689300 0.523507 -0.500805
vn -0.810320 0.523508 -0.263289
vn -0.852021 0.523508 0.000000
vn -0.810320 0.523508 0.263289
vn -0.689300 0.523507 0.500805
vn -0.500807 0.523508 0.689298
vn -0.263288 0.523508 0.810320
vn 0.000000 0.523508 0.852021
vn 0.263289 0.523508 0.810320
vn 0.500807 0.523508 0.689299
vn 0.689300 0.523507 0.500806
vn 0.810320 0.523508 0.263290
vn 0.852021 0.523508 0.000001
vn 0.000000 -1.000000 0.000000
vn 0.000000 -1.000000 0.000000
vn 0.000000 -1.000000 0.000000
vn 0.000000 -1.000000 0.000000
vn 0.000000 -1.000000 0.000000
vn 0.000000 -1.000000 0.000000
vn 0.000000 -1.000000 0.000000
vn 0.000000 -1.000000 0.000000
vn 0.000000 -1.000000 -0.000000
vn 0.000000 -1.000000 -0.000000
vn 0.000000 -1.000000 -0.000000
vn 0.000000 -1.000000 -0.000000
vn 0.000000 -1.000000 0.000000
vn 0.000000 -1.000000 0.000000
vn 0.000000 -1.000000 0.000000
vn 0.000000 -1.000000 0.000000
vn 0.000000 -1.000000 0.000000
vn 0.000000 -1.000000 0.000000
vn 0.000000 -1.000000 0.000000
vn 0.000000 -1.000000 0.000000
vn 0.000000 -1.000000 0.000000
vn 0.000000 -1.000000 0.000000
vn 0.000000 -1.000000 0.000000
vn 0.000000 -1.000000 0.000000
vn 0.000000 -1.000000 0.000000
vn 0.000000 -1.000000 0.000000
vn 0.000000 -1.000000 0.000000
vn 0.000000 -1.000000 0.000000
vn 0.000000 -1.000000 0.000000
vn 0.000000 -1.000000 0.000000
vn 0.000000 -1.000000 0.000000
vn 0.000000 -1.000000 0.000000
vn 0.000000 -1.000000 0.000000
vn 0.000000 -1.000000 0.000000
vn 0.000000 -1.000000 0.000000
vn 0.000000 -1.000000 0.000000
vn 0.000000 -1.000000 0.000000
vn 0.000000 -1.000000 0.000000
vn 0.000000 -1.000000 0.000000
vn 0.000000 -1.000000 0.000000
vn 0.000000 -1.000000 0.000000
vn 0.000000 -1.000000 0.000000
vn 0.000000 -1.000000 0.000000
vn 0.000000 -1.000000 0.000000
vn 0.000000 -1.000000 0.000000
vn 0.000000 -1.000000 0.000000
vn 0.000000 -1.000000 0.000000
vn 0.000000 -1.000000 0.000000
vn 0.000000 -1.000000 -0.000000
vn 0.000000 -1.000000 -0.000000
vn 0.000000 -1.000000 -0.000000
vn 0.000000 -1.000000 -0.000000
vn 0.000000 -1.000000 0.000000
vn 0.000000 -1.000000 0.000000
vn 0.000000 -1.000000 0.000000
vn 0.000000 -1.000000 0.000000
vn 0.000000 -1.000000 -0.000000
vn 0.000000 -1.000000 -0.000000
vn 0.000000 -1.000000 -0.000000
vn 0.000000 -1.000000 -0.000000
vn 0.000000 -1.000000 -0.000000
vn 0.000000 -1.000000 -0.000000
vn 0.000000 -1.000000 -0.000000
vn 0.000000 -1.000000 -0.000000
vn 0.000000 -1.000000 0.000000
vn 0.000000 -1.000000 0.000000
vn 0.000000 -1.000000 0.000000
vn 0.000000 -1.000000 0.000000
vn 0.000000 -1.000000 0.000000
vn 0.000000 -1.000000 0.000000
vn 0.000000 -1.000000 0.000000
vn 0.000000 -1.000000 0.000000
vn 0.000000 -1.000000 0.000000
vn 0.000000 -1.000000 0.000000
vn 0.000000 -1.000000 0.000000
vn 0.000000 -1.000000 0.000000
vn 0.000000 -1.000000 0.000000
vn 0.000000 -1.000000 0.000000
vn 0.000000 -1.000000 0.000000
vn 0.000000 -1.000000 0.000000
vn -0.764248 -0.328036 0.555263
vn -0.898431 -0.328036 0.291916
vn -0.898430 -0.328036 0.291918
vn -0.764249 -0.328036 0.555262
vn -0.555264 -0.328036 0.764247
vn -0.555265 -0.328036 0.764246
vn -0.291920 -0.328036 0.898429
vn -0.291920 -0.328036 0.898429
vn 0.000002 -0.328035 0.944666
vn 0.000002 -0.328035 0.944665
vn 0.291918 -0.328036 0.898430
vn 0.291918 -0.328036 0.898430
vn 0.555263 -0.328036 0.764249
vn 0.555263 -0.328036 0.764248
vn 0.764250 -0.328035 0.555260
vn 0.764250 -0.328035 0.555261
vn 0.898430 -0.328036 0.291918
vn 0.898430 -0.328036 0.291918
vn 0.944665 -0.328036 -0.000000
vn 0.944665 -0.328036 0.000000
vn 0.898430 -0.328036 -0.291918
vn 0.898430 -0.328036 -0.291918
vn 0.764251 -0.328035 -0.555259
vn 0.764251 -0.328035 -0.555260
vn 0.555262 -0.328035 -0.764249
vn 0.555262 -0.328035 -0.764249
vn 0.291916 -0.328035 -0.898431
vn 0.291915 -0.328035 -0.898431
vn 0.000001 -0.328035 -0.944666
vn 0.000001 -0.328035 -0.944666
vn -0.291915 -0.328034 -0.898432
vn -0.291914 -0.328034 -0.898432
vn -0.555266 -0.328034 -0.764247
vn -0.555266 -0.328034 -0.764247
vn -0.764252 -0.328036 -0.555258
vn -0.764253 -0.328036 -0.555256
vn -0.898429 -0.328037 -0.291921
vn -0.898429 -0.328037 -0.291919
vn -0.944665 -0.328036 -0.000001
vn -0.944665 -0.328036 -0.000001
vn 0.000000 0.000000 1.000000
vn -0.309017 0.000000 0.951057
vn -0.587785 0.000000 0.809017
vn -0.809017 0.000000 0.587785
vn -0.951056 0.000000 0.309017
vn -1.000000 0.000000 0.000000
vn -0.951057 0.000000 -0.309017
vn -0.809017 0.000000 -0.587785
vn -0.587785 0.000000 -0.809017
vn -0.309017 0.000000 -0.951057
vn -0.000000 0.000000 -1.000000
vn 0.309017 0.000000 -0.951057
vn 0.587785 0.000000 -0.809017
vn 0.809017 0.000000 -0.587785
vn 0.951057 0.000000 -0.309016
vn 1.000000 0.000000 0.000001
vn 0.951057 0.000000 0.309017
vn 0.809017 0.000000 0.587785
vn 0.587785 0.000000 0.809017
vn 0.309017 0.000000 0.951057
s 1
g light_bottom
usemtl lambert3SG
f 1/29/1 2/30/2 116/31/3 117/32/4
f 2/30/2 3/35/5 115/36/6 116/31/3
f 3/35/5 4/41/7 114/42/8 115/36/6
f 4/41/7 5/47/9 113/48/10 114/42/8
f 5/47/9 6/53/11 112/54/12 113/48/10
f 6/53/11 7/59/13 111/60/14 112/54/12
f 7/59/13 8/65/15 110/66/16 111/60/14
f 8/65/15 9/71/17 109/72/18 110/66/16
f 9/71/17 10/77/19 108/78/20 109/72/18
f 10/77/19 11/83/21 107/84/22 108/78/20
f 11/83/21 12/85/23 106/86/24 107/84/22
f 12/85/23 13/79/25 105/80/26 106/86/24
f 13/79/25 14/73/27 104/74/28 105/80/26
f 14/73/27 15/67/29 103/68/30 104/74/28
f 15/67/29 16/61/31 122/62/32 103/68/30
f 16/61/31 17/55/33 121/56/34 122/62/32
f 17/55/33 18/49/35 120/50/36 121/56/34
f 18/49/35 19/43/37 119/44/38 120/50/36
f 19/43/37 20/37/39 118/38/40 119/44/38
f 20/37/39 1/29/1 117/32/4 118/38/40
s 2
f 83/89/41 82/90/42 84/91/43
f 85/95/44 83/89/41 84/91/43
f 86/101/45 85/95/44 84/91/43
f 87/107/46 86/101/45 84/91/43
f 88/113/47 87/107/46 84/91/43
f 89/119/48 88/113/47 84/91/43
f 90/125/49 89/119/48 84/91/43
f 91/131/50 90/125/49 84/91/43
f 92/137/51 91/131/50 84/91/43
f 93/143/52 92/137/51 84/91/43
f 94/142/53 93/143/52 84/91/43
f 95/136/54 94/142/53 84/91/43
f 96/130/55 95/136/54 84/91/43
f 97/124/56 96/130/55 84/91/43
f 98/118/57 97/124/56 84/91/43
f 99/112/58 98/118/57 84/91/43
f 100/106/59 99/112/58 84/91/43
f 101/100/60 100/106/59 84/91/43
f 102/94/61 101/100/60 84/91/43
f 82/90/42 102/94/61 84/91/43
s 3
f 21/150/62 22/151/63 41/152/64
f 22/151/63 23/153/65 41/152/64
f 23/153/65 24/155/66 41/152/64
f 24/155/66 25/157/67 41/152/64
f 25/157/67 26/159/68 41/152/64
f 26/159/68 27/161/69 41/152/64
f 27/161/69 28/163/70 41/152/64
f 28/163/70 29/165/71 41/152/64
f 29/165/71 30/167/72 41/152/64
f 30/167/72 31/169/73 41/152/64
f 31/169/73 32/170/74 41/152/64
f 32/170/74 33/168/75 41/152/64
f 33/168/75 34/166/76 41/152/64
f 34/166/76 35/164/77 41/152/64
f 35/164/77 36/162/78 41/152/64
f 36/162/78 37/160/79 41/152/64
f 37/160/79 38/158/80 41/152/64
f 38/158/80 39/156/81 41/152/64
f 39/156/81 40/154/82 41/152/64
f 40/154/82 21/150/62 41/152/64
s 1
f 2/30/2 1/29/1 42/33/83 43/34/84
f 3/35/5 2/30/2 43/34/84 44/40/85
f 4/41/7 3/35/5 44/40/85 45/46/86
f 5/47/9 4/41/7 45/46/86 46/52/87
f 6/53/11 5/47/9 46/52/87 47/58/88
f 7/59/13 6/53/11 47/58/88 48/64/89
f 8/65/15 7/59/13 48/64/89 49/70/90
f 9/71/17 8/65/15 49/70/90 50/76/91
f 10/77/19 9/71/17 50/76/91 51/82/92
f 11/83/21 10/77/19 51/82/92 52/88/93
f 12/85/23 11/83/21 52/88/93 53/87/94
f 13/79/25 12/85/23 53/87/94 54/81/95
f 14/73/27 13/79/25 54/81/95 55/75/96
f 15/67/29 14/73/27 55/75/96 56/69/97
f 16/61/31 15/67/29 56/69/97 57/63/98
f 17/55/33 16/61/31 57/63/98 58/57/99
f 18/49/35 17/55/33 58/57/99 59/51/100
f 19/43/37 18/49/35 59/51/100 60/45/101
f 20/37/39 19/43/37 60/45/101 61/39/102
f 1/29/1 20/37/39 61/39/102 42/33/83
s off
f 43/96/103 42/97/104 62/93/105 63/92/106
f 44/103/107 43/96/108 63/92/109 64/99/110
f 45/109/111 44/103/112 64/99/113 65/105/114
f 46/115/115 45/109/116 65/105/117 66/111/118
f 47/121/119 46/115/120 66/111/121 67/117/122
f 48/127/123 47/121/124 67/117/125 68/123/126
f 49/133/127 48/127/128 68/123/129 69/129/130
f 50/139/131 49/133/132 69/129/133 70/135/134
f 51/145/135 50/139/136 70/135/137 71/141/138
f 52/149/139 51/145/140 71/141/141 72/147/142
f 53/148/143 52/149/144 72/147/145 73/146/146
f 54/144/147 53/148/148 73/146/149 74/140/150
f 55/138/151 54/144/152 74/140/153 75/134/154
f 56/132/155 55/138/156 75/134/157 76/128/158
f 57/126/159 56/132/160 76/128/161 77/122/162
f 58/120/163 57/126/164 77/122/165 78/116/166
f 59/114/167 58/120/168 78/116/169 79/110/170
f 60/108/171 59/114/172 79/110/173 80/104/174
f 61/102/175 60/108/176 80/104/177 81/98/178
f 42/97/179 61/102/180 81/98/181 62/93/182
s 4
f 63/92/183 62/93/184 82/90/185 83/89/186
f 64/99/187 63/92/183 83/89/186 85/95/188
f 65/105/189 64/99/187 85/95/188 86/101/190
f 66/111/191 65/105/189 86/101/190 87/107/192
f 67/117/193 66/111/191 87/107/192 88/113/194
f 68/123/195 67/117/193 88/113/194 89/119/196
f 69/129/197 68/123/195 89/119/196 90/125/198
f 70/135/199 69/129/197 90/125/198 91/131/200
f 71/141/201 70/135/199 91/131/200 92/137/202
f 72/147/203 71/141/201 92/137/202 93/143/204
f 73/146/205 72/147/203 93/143/204 94/142/206
f 74/140/207 73/146/205 94/142/206 95/136/208
f 75/134/209 74/140/207 95/136/208 96/130/210
f 76/128/211 75/134/209 96/130/210 97/124/212
f 77/122/213 76/128/211 97/124/212 98/118/214
f 78/116/215 77/122/213 98/118/214 99/112/216
f 79/110/217 78/116/215 99/112/216 100/106/218
f 80/104/219 79/110/217 100/106/218 101/100/220
f 81/98/221 80/104/219 101/100/220 102/94/222
f 62/93/184 81/98/221 102/94/222 82/90/185
s 1
f 104/171/28 103/172/30 35/173/223 34/174/224
f 105/177/26 104/171/28 34/174/224 33/178/225
f 106/2/24 105/5/26 33/6/225 32/3/226
f 107/1/22 106/2/24 32/3/226 31/4/227
f 108/7/20 107/1/22 31/4/227 30/8/228
f 109/9/18 108/7/20 30/8/228 29/10/229
f 110/11/16 109/9/18 29/10/229 28/12/230
f 111/13/14 110/11/16 28/12/230 27/14/231
f 112/181/12 111/182/14 27/183/231 26/184/232
f 113/185/10 112/181/12 26/184/232 25/186/233
f 114/187/8 113/185/10 25/186/233 24/188/234
f 115/189/6 114/187/8 24/188/234 23/190/235
f 116/16/3 115/19/6 23/20/235 22/17/236
f 117/15/4 116/16/3 22/17/236 21/18/237
f 118/21/40 117/15/4 21/18/237 40/22/238
f 119/23/38 118/21/40 40/22/238 39/24/239
f 120/25/36 119/23/38 39/24/239 38/26/240
f 121/27/34 120/25/36 38/26/240 37/28/241
f 122/175/32 121/179/34 37/180/241 36/176/242
f 103/172/30 122/175/32 36/176/242 35/173/223
