# This file uses centimeters as units for non-parametric coordinates.

mtllib lightswitch2.mtl
g default
v -0.268716 -0.309002 0.056320
v 0.214676 -0.309002 0.056320
v -0.268716 0.284893 0.056320
v 0.214676 0.284893 0.056320
v -0.268716 0.284893 -0.056320
v 0.214676 0.284893 -0.056320
v -0.268716 -0.309002 -0.056320
v 0.214676 -0.309002 -0.056320
v -0.163898 0.284893 0.056320
v -0.163898 0.284893 -0.056320
v -0.163898 -0.309002 -0.056320
v -0.163898 -0.309002 0.056320
v 0.123374 0.284893 0.056320
v 0.123374 0.284893 -0.056320
v 0.123374 -0.309002 -0.056320
v 0.123374 -0.309002 0.056320
v 0.123374 -0.071871 0.056320
v -0.163898 -0.071871 0.056320
v -0.268716 -0.071871 0.056320
v -0.268716 -0.071871 -0.056320
v -0.163898 -0.071871 -0.056320
v 0.123374 -0.071871 -0.056320
v 0.214676 -0.071871 -0.056320
v 0.214676 -0.071871 0.056320
v 0.123374 0.079730 0.056320
v -0.163898 0.079730 0.056320
v -0.268716 0.079730 0.056320
v -0.268716 0.079730 -0.056320
v -0.163898 0.079730 -0.056320
v 0.123374 0.079730 -0.056320
v 0.214676 0.079730 -0.056320
v 0.214676 0.079730 0.056320
v -0.163898 -0.141085 0.310939
v -0.163898 -0.014025 0.310939
v 0.123374 -0.141085 0.310939
v 0.123374 -0.014025 0.310939
vt 0.982752 0.781583
vt 0.982752 0.826650
vt 0.880796 0.826650
vt 0.880796 0.781583
vt 0.378907 0.947208
vt 0.378907 0.902141
vt 0.711032 0.902141
vt 0.711032 0.947208
vt 0.137005 0.837708
vt 0.137005 0.870413
vt 0.063016 0.870413
vt 0.063016 0.837708
vt 0.711032 0.276183
vt 0.711032 0.321250
vt 0.378907 0.321250
vt 0.378907 0.276183
vt 0.378907 0.484021
vt 0.711032 0.484021
vt 0.711032 0.585977
vt 0.378907 0.585977
vt 0.378907 0.174227
vt 0.711032 0.174227
vt 0.378907 0.778626
vt 0.711032 0.778626
vt 0.137005 0.960046
vt 0.063016 0.960046
vt 0.711032 0.444765
vt 0.378907 0.444765
vt 0.982752 0.950164
vt 0.880796 0.950164
vt 0.378907 0.739370
vt 0.711032 0.739370
vt 0.137005 0.988534
vt 0.063016 0.988534
vt 0.880796 0.989420
vt 0.982752 0.989420
vt 0.128888 0.823482
vt 0.128888 0.768851
vt 0.252403 0.768852
vt 0.252403 0.823482
vt 0.815614 0.826650
vt 0.815614 0.781583
vt 0.378907 0.109045
vt 0.711032 0.109045
vt 0.184307 0.837708
vt 0.184307 0.870413
vt 0.184307 0.960046
vt 0.184307 0.988534
vt 0.711032 0.651159
vt 0.378907 0.651159
vt 0.815614 0.989420
vt 0.815614 0.950164
vt 0.727403 0.826650
vt 0.727403 0.950164
vt 0.727403 0.781583
vt 0.378907 0.020834
vt 0.711032 0.020834
vt 0.248320 0.837708
vt 0.248320 0.870413
vt 0.248320 0.960046
vt 0.248320 0.988534
vt 0.727403 0.989420
vt 0.121398 0.766594
vt 0.056216 0.766594
vt 0.026457 0.015837
vt 0.081087 0.015837
vt 0.128893 0.018094
vt 0.252408 0.018095
vt 0.355792 0.015837
vt 0.315482 0.766594
vt 0.260851 0.766594
vt 0.290610 0.015837
vt 0.863132 0.022221
vt 0.863132 0.772978
vt 0.739617 0.772978
vt 0.739618 0.022221
vn 0.000000 0.000000 1.000000
vn 0.000000 0.000000 1.000000
vn 0.000000 0.000000 1.000000
vn 0.000000 0.000000 1.000000
vn 0.000000 1.000000 0.000000
vn 0.000000 1.000000 0.000000
vn 0.000000 1.000000 0.000000
vn 0.000000 1.000000 0.000000
vn 0.000000 0.000000 -1.000000
vn 0.000000 0.000000 -1.000000
vn 0.000000 0.000000 -1.000000
vn 0.000000 0.000000 -1.000000
vn 0.000000 -1.000000 0.000000
vn 0.000000 -1.000000 0.000000
vn 0.000000 -1.000000 0.000000
vn 0.000000 -1.000000 0.000000
vn 1.000000 0.000000 0.000000
vn 1.000000 0.000000 0.000000
vn 1.000000 0.000000 0.000000
vn 1.000000 0.000000 0.000000
vn -1.000000 0.000000 0.000000
vn -1.000000 0.000000 0.000000
vn -1.000000 0.000000 0.000000
vn -1.000000 0.000000 0.000000
vn 0.000000 1.000000 0.000000
vn 0.000000 1.000000 0.000000
vn 0.000000 1.000000 0.000000
vn 0.000000 1.000000 0.000000
vn 0.000000 0.000000 -1.000000
vn 0.000000 0.000000 -1.000000
vn 0.000000 0.000000 -1.000000
vn 0.000000 0.000000 -1.000000
vn 0.000000 -1.000000 0.000000
vn 0.000000 -1.000000 0.000000
vn 0.000000 -1.000000 0.000000
vn 0.000000 -1.000000 0.000000
vn 0.000000 0.000000 1.000000
vn 0.000000 0.000000 1.000000
vn 0.000000 0.000000 1.000000
vn 0.000000 0.000000 1.000000
vn 0.000000 1.000000 0.000000
vn 0.000000 1.000000 0.000000
vn 0.000000 1.000000 0.000000
vn 0.000000 1.000000 0.000000
vn 0.000000 0.000000 -1.000000
vn 0.000000 0.000000 -1.000000
vn 0.000000 0.000000 -1.000000
vn 0.000000 0.000000 -1.000000
vn 0.000000 -1.000000 0.000000
vn 0.000000 -1.000000 0.000000
vn 0.000000 -1.000000 0.000000
vn 0.000000 -1.000000 0.000000
vn 0.000000 0.000000 1.000000
vn 0.000000 0.000000 1.000000
vn 0.000000 0.000000 1.000000
vn 0.000000 0.000000 1.000000
vn 0.000000 0.000000 1.000000
vn 0.000000 0.000000 1.000000
vn 0.000000 0.000000 1.000000
vn 0.000000 0.000000 1.000000
vn 0.000000 0.000000 1.000000
vn 0.000000 0.000000 1.000000
vn 0.000000 0.000000 1.000000
vn 0.000000 0.000000 1.000000
vn -1.000000 0.000000 0.000000
vn -1.000000 0.000000 0.000000
vn -1.000000 0.000000 0.000000
vn -1.000000 0.000000 0.000000
vn 0.000000 0.000000 -1.000000
vn 0.000000 0.000000 -1.000000
vn 0.000000 0.000000 -1.000000
vn 0.000000 0.000000 -1.000000
vn 0.000000 0.000000 -1.000000
vn 0.000000 0.000000 -1.000000
vn 0.000000 0.000000 -1.000000
vn 0.000000 0.000000 -1.000000
vn 0.000000 0.000000 -1.000000
vn 0.000000 0.000000 -1.000000
vn 0.000000 0.000000 -1.000000
vn 0.000000 0.000000 -1.000000
vn 1.000000 0.000000 0.000000
vn 1.000000 0.000000 0.000000
vn 1.000000 0.000000 0.000000
vn 1.000000 0.000000 0.000000
vn 0.000000 0.000000 1.000000
vn 0.000000 0.000000 1.000000
vn 0.000000 0.000000 1.000000
vn 0.000000 0.000000 1.000000
vn 0.000000 0.000000 1.000000
vn 0.000000 0.000000 1.000000
vn 0.000000 0.000000 1.000000
vn 0.000000 0.000000 1.000000
vn 0.000000 0.000000 1.000000
vn 0.000000 0.000000 1.000000
vn 0.000000 0.000000 1.000000
vn 0.000000 0.000000 1.000000
vn -1.000000 0.000000 0.000000
vn -1.000000 0.000000 0.000000
vn -1.000000 0.000000 0.000000
vn -1.000000 0.000000 0.000000
vn 0.000000 0.000000 -1.000000
vn 0.000000 0.000000 -1.000000
vn 0.000000 0.000000 -1.000000
vn 0.000000 0.000000 -1.000000
vn 0.000000 0.000000 -1.000000
vn 0.000000 0.000000 -1.000000
vn 0.000000 0.000000 -1.000000
vn 0.000000 0.000000 -1.000000
vn 0.000000 0.000000 -1.000000
vn 0.000000 0.000000 -1.000000
vn 0.000000 0.000000 -1.000000
vn 0.000000 0.000000 -1.000000
vn 1.000000 0.000000 0.000000
vn 1.000000 0.000000 0.000000
vn 1.000000 0.000000 0.000000
vn 1.000000 0.000000 0.000000
vn 0.000000 0.000000 1.000000
vn 0.000000 0.000000 1.000000
vn 0.000000 0.000000 1.000000
vn 0.000000 0.000000 1.000000
vn -1.000000 0.000000 0.000000
vn -1.000000 0.000000 0.000000
vn -1.000000 0.000000 0.000000
vn -1.000000 0.000000 0.000000
vn 0.000000 -0.964982 -0.262316
vn 0.000000 -0.964982 -0.262316
vn 0.000000 -0.964982 -0.262316
vn 0.000000 -0.964982 -0.262316
vn 1.000000 0.000000 0.000000
vn 1.000000 0.000000 0.000000
vn 1.000000 0.000000 0.000000
vn 1.000000 0.000000 0.000000
vn 0.000000 0.938405 0.345538
vn 0.000000 0.938405 0.345538
vn 0.000000 0.938405 0.345538
vn 0.000000 0.938405 0.345538
s off
g lightswitch1:pCube1
usemtl lambert4SG
f 1/1/1 12/2/2 18/3/3 19/4/4
f 3/5/5 9/6/6 10/7/7 5/8/8
f 20/9/9 21/10/10 11/11/11 7/12/12
f 7/13/13 11/14/14 12/15/15 1/16/16
f 2/17/17 8/18/18 23/19/19 24/20/20
f 7/13/21 1/16/22 19/21/23 20/22/24
f 9/6/25 13/23/26 14/24/27 10/7/28
f 11/11/29 21/10/30 22/25/31 15/26/32
f 12/15/33 11/14/34 15/27/35 16/28/36
f 18/3/37 12/2/38 16/29/39 17/30/40
f 13/23/41 4/31/42 6/32/43 14/24/44
f 15/26/45 22/25/46 23/33/47 8/34/48
f 16/28/49 15/27/50 8/18/51 2/17/52
f 24/35/53 17/30/54 16/29/55 2/36/56
f 34/37/57 33/38/58 35/39/59 36/40/60
f 19/4/61 18/3/62 26/41/63 27/42/64
f 20/22/65 19/21/66 27/43/67 28/44/68
f 28/45/69 29/46/70 21/10/71 20/9/72
f 22/25/73 21/10/74 29/46/75 30/47/76
f 23/33/77 22/25/78 30/47/79 31/48/80
f 24/20/81 23/19/82 31/49/83 32/50/84
f 32/51/85 25/52/86 17/30/87 24/35/88
f 9/53/89 26/41/90 25/52/91 13/54/92
f 27/42/93 26/41/94 9/53/95 3/55/96
f 28/44/97 27/43/98 3/56/99 5/57/100
f 5/58/101 10/59/102 29/46/103 28/45/104
f 30/47/105 29/46/106 10/59/107 14/60/108
f 31/48/109 30/47/110 14/60/111 6/61/112
f 32/50/113 31/49/114 6/32/115 4/31/116
f 13/54/117 25/52/118 32/51/119 4/62/120
f 26/63/121 18/64/122 33/65/123 34/66/124
f 18/67/125 17/68/126 35/39/127 33/38/128
f 25/69/129 36/70/130 35/71/131 17/72/132
f 26/73/133 34/74/134 36/75/135 25/76/136
