# This file uses centimeters as units for non-parametric coordinates.

g default
v -0.268716 -0.309002 0.056320
v 0.214676 -0.309002 0.056320
v -0.268716 0.284893 0.056320
v 0.214676 0.284893 0.056320
v -0.268716 0.284893 -0.056320
v 0.214676 0.284893 -0.056320
v -0.268716 -0.309002 -0.056320
v 0.214676 -0.309002 -0.056320
v -0.163898 0.284893 0.056320
v -0.163898 0.284893 -0.056320
v -0.163898 -0.309002 -0.056320
v -0.163898 -0.309002 0.056320
v 0.123374 0.284893 0.056320
v 0.123374 0.284893 -0.056320
v 0.123374 -0.309002 -0.056320
v 0.123374 -0.309002 0.056320
v 0.123374 -0.071871 0.056320
v -0.163898 -0.071871 0.056320
v -0.268716 -0.071871 0.056320
v -0.268716 -0.071871 -0.056320
v -0.163898 -0.071871 -0.056320
v 0.123374 -0.071871 -0.056320
v 0.214676 -0.071871 -0.056320
v 0.214676 -0.071871 0.056320
v 0.123374 0.079730 0.056320
v -0.163898 0.079730 0.056320
v -0.268716 0.079730 0.056320
v -0.268716 0.079730 -0.056320
v -0.163898 0.079730 -0.056320
v 0.123374 0.079730 -0.056320
v 0.214676 0.079730 -0.056320
v 0.214676 0.079730 0.056320
v -0.163898 -0.141085 0.310939
v -0.163898 -0.014025 0.310939
v 0.123374 -0.141085 0.310939
v 0.123374 -0.014025 0.310939
vt 0.378907 0.484021
vt 0.711032 0.484021
vt 0.711032 0.585977
vt 0.378907 0.585977
vt 0.711032 0.651159
vt 0.378907 0.651159
vt 0.711032 0.739370
vt 0.378907 0.739370
vt 0.711032 0.276183
vt 0.378907 0.276183
vt 0.378907 0.174227
vt 0.711032 0.174227
vt 0.378907 0.109045
vt 0.711032 0.109045
vt 0.378907 0.020834
vt 0.711032 0.020834
vt 0.121398 0.766594
vt 0.056216 0.766594
vt 0.026457 0.015837
vt 0.081087 0.015837
vt 0.355792 0.015837
vt 0.315482 0.766594
vt 0.260851 0.766594
vt 0.290610 0.015837
vt 0.378907 0.947208
vt 0.378907 0.902141
vt 0.711032 0.902141
vt 0.711032 0.947208
vt 0.378907 0.778626
vt 0.711032 0.778626
vt 0.711032 0.321250
vt 0.378907 0.321250
vt 0.711032 0.444765
vt 0.378907 0.444765
vt 0.128893 0.018094
vt 0.252408 0.018095
vt 0.252403 0.768852
vt 0.128888 0.768851
vt 0.863132 0.022221
vt 0.863132 0.772978
vt 0.739617 0.772978
vt 0.739618 0.022221
vt 0.982752 0.781583
vt 0.982752 0.826650
vt 0.880796 0.826650
vt 0.880796 0.781583
vt 0.982752 0.950164
vt 0.880796 0.950164
vt 0.815614 0.826650
vt 0.815614 0.781583
vt 0.880796 0.989420
vt 0.982752 0.989420
vt 0.727403 0.826650
vt 0.727403 0.781583
vt 0.815614 0.989420
vt 0.815614 0.950164
vt 0.727403 0.950164
vt 0.727403 0.989420
vt 0.137005 0.837708
vt 0.137005 0.870413
vt 0.063016 0.870413
vt 0.063016 0.837708
vt 0.184307 0.837708
vt 0.184307 0.870413
vt 0.137005 0.960046
vt 0.063016 0.960046
vt 0.248320 0.837708
vt 0.248320 0.870413
vt 0.184307 0.960046
vt 0.137005 0.988534
vt 0.063016 0.988534
vt 0.248320 0.960046
vt 0.184307 0.988534
vt 0.248320 0.988534
vt 0.128888 0.823482
vt 0.252403 0.823482
vn 0.000000 0.000000 1.000000
vn 0.000000 0.000000 1.000000
vn 0.000000 0.000000 1.000000
vn 0.000000 0.000000 1.000000
vn 0.000000 1.000000 0.000000
vn 0.000000 1.000000 0.000000
vn 0.000000 1.000000 0.000000
vn 0.000000 1.000000 0.000000
vn 0.000000 0.000000 -1.000000
vn 0.000000 0.000000 -1.000000
vn 0.000000 0.000000 -1.000000
vn 0.000000 0.000000 -1.000000
vn 0.000000 -1.000000 0.000000
vn 0.000000 -1.000000 0.000000
vn 0.000000 -1.000000 0.000000
vn 0.000000 -1.000000 0.000000
vn 1.000000 0.000000 0.000000
vn 1.000000 0.000000 0.000000
vn 1.000000 0.000000 0.000000
vn 1.000000 0.000000 0.000000
vn -1.000000 0.000000 0.000000
vn -1.000000 0.000000 0.000000
vn -1.000000 0.000000 0.000000
vn -1.000000 0.000000 0.000000
vn 0.000000 1.000000 0.000000
vn 0.000000 1.000000 0.000000
vn 0.000000 0.000000 -1.000000
vn 0.000000 0.000000 -1.000000
vn 0.000000 -1.000000 0.000000
vn 0.000000 -1.000000 0.000000
vn 0.000000 0.000000 1.000000
vn 0.000000 0.000000 1.000000
vn 0.000000 1.000000 0.000000
vn 0.000000 1.000000 0.000000
vn 0.000000 0.000000 -1.000000
vn 0.000000 0.000000 -1.000000
vn 0.000000 -1.000000 0.000000
vn 0.000000 -1.000000 0.000000
vn 0.000000 0.000000 1.000000
vn 0.000000 0.000000 1.000000
vn 0.000000 0.000000 1.000000
vn 0.000000 0.000000 1.000000
vn 0.000000 0.000000 1.000000
vn 0.000000 0.000000 1.000000
vn 0.000000 0.000000 1.000000
vn 0.000000 0.000000 1.000000
vn -1.000000 0.000000 0.000000
vn -1.000000 0.000000 0.000000
vn 0.000000 0.000000 -1.000000
vn 0.000000 0.000000 -1.000000
vn 0.000000 0.000000 -1.000000
vn 0.000000 0.000000 -1.000000
vn 1.000000 0.000000 0.000000
vn 1.000000 0.000000 0.000000
vn 0.000000 0.000000 1.000000
vn 0.000000 0.000000 1.000000
vn 0.000000 0.000000 1.000000
vn 0.000000 0.000000 1.000000
vn 0.000000 0.000000 1.000000
vn -1.000000 0.000000 0.000000
vn -1.000000 0.000000 0.000000
vn 0.000000 0.000000 -1.000000
vn 0.000000 0.000000 -1.000000
vn 0.000000 0.000000 -1.000000
vn 0.000000 0.000000 -1.000000
vn 1.000000 0.000000 0.000000
vn 1.000000 0.000000 0.000000
vn 0.000000 0.000000 1.000000
vn -1.000000 0.000000 0.000000
vn -1.000000 0.000000 0.000000
vn -1.000000 0.000000 0.000000
vn -1.000000 0.000000 0.000000
vn 0.000000 -0.964982 -0.262316
vn 0.000000 -0.964982 -0.262316
vn 0.000000 -0.964982 -0.262316
vn 0.000000 -0.964982 -0.262316
vn 1.000000 0.000000 0.000000
vn 1.000000 0.000000 0.000000
vn 1.000000 0.000000 0.000000
vn 1.000000 0.000000 0.000000
vn 0.000000 0.938405 0.345538
vn 0.000000 0.938405 0.345538
vn 0.000000 0.938405 0.345538
vn 0.000000 0.938405 0.345538
s 1
g pCube1
f 1/43/1 12/44/2 18/45/3 19/46/4
s 2
f 3/25/5 9/26/6 10/27/7 5/28/8
s 3
f 20/59/9 21/60/10 11/61/11 7/62/12
s 4
f 7/9/13 11/31/14 12/32/15 1/10/16
s 5
f 2/1/17 8/2/18 23/3/19 24/4/20
s 6
f 7/9/21 1/10/22 19/11/23 20/12/24
s 2
f 9/26/6 13/29/25 14/30/26 10/27/7
s 3
f 11/61/11 21/60/10 22/65/27 15/66/28
s 4
f 12/32/15 11/31/14 15/33/29 16/34/30
s 1
f 18/45/3 12/44/2 16/47/31 17/48/32
s 2
f 13/29/25 4/8/33 6/7/34 14/30/26
s 3
f 15/66/28 22/65/27 23/70/35 8/71/36
s 4
f 16/34/30 15/33/29 8/2/37 2/1/38
s 1
f 24/51/39 17/48/32 16/47/31 2/52/40
s off
f 34/75/41 33/38/42 35/37/43 36/76/44
s 1
f 19/46/4 18/45/3 26/49/45 27/50/46
s 6
f 20/12/24 19/11/23 27/13/47 28/14/48
s 3
f 28/63/49 29/64/50 21/60/10 20/59/9
f 22/65/27 21/60/10 29/64/50 30/69/51
f 23/70/35 22/65/27 30/69/51 31/73/52
s 5
f 24/4/20 23/3/19 31/5/53 32/6/54
s 1
f 32/55/55 25/56/56 17/48/32 24/51/39
f 9/53/57 26/49/45 25/56/56 13/57/58
f 27/50/46 26/49/45 9/53/57 3/54/59
s 6
f 28/14/48 27/13/47 3/15/60 5/16/61
s 3
f 5/67/62 10/68/63 29/64/50 28/63/49
f 30/69/51 29/64/50 10/68/63 14/72/64
f 31/73/52 30/69/51 14/72/64 6/74/65
s 5
f 32/6/54 31/5/53 6/7/66 4/8/67
s 1
f 13/57/58 25/56/56 32/55/55 4/58/68
s off
f 26/17/69 18/18/70 33/19/71 34/20/72
f 18/35/73 17/36/74 35/37/75 33/38/76
f 25/21/77 36/22/78 35/23/79 17/24/80
f 26/39/81 34/40/82 36/41/83 25/42/84
