# This file uses centimeters as units for non-parametric coordinates.

mtllib wall.mtl
g default
v -0.125000 0.000000 0.000000
v 0.125000 0.000000 0.000000
v -0.125000 5.000000 0.000000
v 0.125000 5.000000 0.000000
v -0.125000 5.000000 -1.000000
v 0.125000 5.000000 -1.000000
v -0.125000 0.000000 -1.000000
v 0.125000 0.000000 -1.000000
vt 0.012294 0.007679
vt 0.496639 0.007679
vt 0.496639 0.492024
vt 0.012294 0.492024
vt 0.514898 0.108615
vt 0.701023 0.108615
vt 0.701023 0.294739
vt 0.514898 0.294739
vt 0.714123 0.303221
vt 0.900248 0.303221
vt 0.900248 0.489346
vt 0.714123 0.489346
vt 0.514140 0.303221
vt 0.700265 0.303221
vt 0.700265 0.489346
vt 0.514140 0.489346
vt 0.012294 0.505862
vt 0.496639 0.505862
vt 0.496639 0.990207
vt 0.012294 0.990207
vt 0.507421 0.505862
vt 0.991765 0.505862
vt 0.991765 0.990207
vt 0.507421 0.990207
vn 0.000000 0.000000 1.000000
vn 0.000000 0.000000 1.000000
vn 0.000000 0.000000 1.000000
vn 0.000000 0.000000 1.000000
vn 0.000000 1.000000 0.000000
vn 0.000000 1.000000 0.000000
vn 0.000000 1.000000 0.000000
vn 0.000000 1.000000 0.000000
vn 0.000000 0.000000 -1.000000
vn 0.000000 0.000000 -1.000000
vn 0.000000 0.000000 -1.000000
vn 0.000000 0.000000 -1.000000
vn 0.000000 -1.000000 0.000000
vn 0.000000 -1.000000 0.000000
vn 0.000000 -1.000000 0.000000
vn 0.000000 -1.000000 0.000000
vn 1.000000 0.000000 0.000000
vn 1.000000 0.000000 0.000000
vn 1.000000 0.000000 0.000000
vn 1.000000 0.000000 0.000000
vn -1.000000 0.000000 0.000000
vn -1.000000 0.000000 0.000000
vn -1.000000 0.000000 0.000000
vn -1.000000 0.000000 0.000000
s off
g wall
usemtl initialShadingGroup1
f 1/1/1 2/2/2 4/3/3 3/4/4
f 3/5/5 4/6/6 6/7/7 5/8/8
f 5/9/9 6/10/10 8/11/11 7/12/12
f 7/13/13 8/14/14 2/15/15 1/16/16
f 2/17/17 8/18/18 6/19/19 4/20/20
f 7/21/21 1/22/22 3/23/23 5/24/24
