# This file uses centimeters as units for non-parametric coordinates.

mtllib broken_wall.mtl
g default
v -0.278325 0.226520 0.000000
v -0.018735 0.342052 0.000000
v -0.018735 0.342052 -0.250000
v -0.278325 0.226520 -0.250000
v 0.010424 0.094847 0.000000
v 0.010424 0.094847 -0.250000
v 0.115772 0.389154 0.000000
v 0.115772 0.389154 -0.250000
v -0.471959 1.141205 0.000000
v -0.620154 0.930844 0.000000
v -0.620154 0.930844 -0.250000
v -0.471959 1.141205 -0.250000
v 0.360662 0.460690 0.000000
v 0.360662 0.460690 -0.250000
v -0.637152 1.274729 0.000000
v -0.637152 1.274729 -0.250000
v -0.738900 1.683324 0.000000
v -0.738900 1.683324 -0.250000
v 0.696696 0.375140 0.000000
v 0.696696 0.375140 -0.250000
v 0.866627 0.234734 0.000000
v 0.866627 0.234734 -0.250000
v -0.514629 1.840936 0.000000
v -0.514629 1.840936 -0.250000
v 0.799733 0.451198 0.000000
v 0.799733 0.451198 -0.250000
v -0.224668 1.843953 0.000000
v -0.224668 1.843953 -0.250000
v 0.856912 0.812345 0.000000
v 0.856912 0.812345 -0.250000
v 0.730139 1.054398 0.000000
v 0.730139 1.054398 -0.250000
v 0.155341 1.785611 0.000000
v 0.155341 1.785611 -0.250000
v 0.719297 1.375131 0.000000
v 0.719297 1.375131 -0.250000
v 1.000000 -0.000000 0.000000
v 1.000000 -0.000000 -0.250000
v 1.000000 2.000000 -0.250000
v 1.000000 2.000000 0.000000
v -1.000000 2.000000 0.000000
v -1.000000 2.000000 -0.250000
v 0.519755 1.710153 0.000000
v 0.519755 1.710153 -0.250000
v -0.693170 0.600561 -0.250000
v -0.644201 0.371750 -0.250000
v -0.793901 0.122597 -0.250000
v -0.530885 0.223710 -0.250000
v -1.000000 -0.000000 -0.250000
v -1.000000 -0.000000 0.000000
v -0.530885 0.223710 0.000000
v -0.793901 0.122597 0.000000
v -0.644201 0.371750 0.000000
v -0.693170 0.600561 0.000000
v 0.155341 2.000000 -0.250000
v 0.155341 2.000000 0.000000
v -0.224668 2.000000 -0.250000
v -0.224668 2.000000 0.000000
v -0.514629 2.000000 -0.250000
v -0.514629 2.000000 0.000000
v -1.000000 1.274728 -0.250000
v -1.000000 1.274728 0.000000
v -1.000000 0.930843 0.000000
v -1.000000 0.930843 -0.250000
v -1.000000 0.600561 -0.250000
v -1.000000 0.600561 0.000000
v -1.000000 0.371750 0.000000
v -1.000000 0.371750 -0.250000
v 0.091696 -0.000000 -0.250000
v 0.091696 -0.000000 0.000000
v -0.278325 -0.000000 0.000000
v -0.278325 -0.000000 -0.250000
v -0.530885 -0.000000 -0.250000
v -0.530886 -0.000000 0.000000
v -0.141083 0.357697 0.000000
v -0.141083 0.366992 -0.250000
v -0.542049 1.233410 0.000000
v -0.542049 1.235530 -0.250000
v 0.519755 2.000000 -0.250000
v 0.519756 2.000000 0.000000
v 1.000000 1.710152 0.000000
v 1.000000 1.710152 -0.250000
v 0.696696 -0.000000 -0.250000
v 0.696696 -0.000000 0.000000
v 1.000000 0.451198 0.000000
v 1.000000 0.451198 -0.250000
v 1.000000 0.812345 -0.250000
v 1.000000 0.812345 0.000000
v 1.000000 1.054398 0.000000
v 1.000000 1.054397 -0.250000
v 1.000000 1.375131 -0.250000
v 1.000000 1.375131 0.000000
vt 0.097303 0.570663
vt 0.097303 0.536464
vt 0.131888 0.536464
vt 0.131888 0.570663
vt 0.097303 0.495748
vt 0.131888 0.495748
vt 0.097303 0.901259
vt 0.097303 0.844734
vt 0.131888 0.845026
vt 0.131888 0.901551
vt 0.097303 0.923063
vt 0.131888 0.923355
vt 0.097303 0.391872
vt 0.097303 0.361925
vt 0.131888 0.361926
vt 0.131888 0.391872
vt 0.097303 0.311963
vt 0.131888 0.311963
vt 0.097303 0.278476
vt 0.131888 0.278477
vt 0.097303 0.234105
vt 0.131888 0.234105
vt 0.097303 0.187757
vt 0.131888 0.187757
vt 0.031697 0.701528
vt 0.061650 0.701528
vt 0.061650 0.736255
vt 0.031697 0.736255
vt 0.031697 0.661388
vt 0.061650 0.661388
vt 0.031697 0.622960
vt 0.061650 0.622960
vt 0.031697 0.593959
vt 0.061650 0.593959
vt 0.031697 0.550689
vt 0.061650 0.550689
vt 0.031697 0.496629
vt 0.061650 0.496629
vt 0.097303 0.789719
vt 0.097303 0.744026
vt 0.131888 0.744026
vt 0.131888 0.789719
vt 0.097303 0.712372
vt 0.131888 0.712372
vt 0.097303 0.818821
vt 0.131888 0.818821
vt 0.097303 0.677903
vt 0.131888 0.677903
vt 0.131888 0.831870
vt 0.097303 0.831577
vt 0.061650 0.104275
vt 0.031697 0.104275
vt 0.031697 0.017378
vt 0.061650 0.017378
vt 0.061650 0.145477
vt 0.031697 0.145477
vt 0.061650 0.185049
vt 0.031697 0.185049
vt 0.061650 0.212463
vt 0.031697 0.212463
vt 0.061650 0.257004
vt 0.031697 0.257004
vt 0.097303 0.461869
vt 0.131888 0.461869
vt 0.097303 0.415381
vt 0.131888 0.415381
vt 0.097303 0.084770
vt 0.097303 0.044656
vt 0.131888 0.044656
vt 0.131888 0.084771
vt 0.097303 0.137342
vt 0.131888 0.137343
vt 0.061650 0.793795
vt 0.031697 0.793795
vt 0.061650 0.837456
vt 0.031697 0.837456
vt 0.061650 0.882986
vt 0.031697 0.882986
vt 0.061650 0.917727
vt 0.031697 0.917727
vt 0.031697 0.975881
vt 0.061650 0.975881
vt 0.031697 0.343470
vt 0.061650 0.343470
vt 0.061650 0.387803
vt 0.031697 0.387803
vt 0.031697 0.313210
vt 0.061650 0.313210
vt 0.061650 0.460290
vt 0.031697 0.460290
vt 0.097303 0.641516
vt 0.097303 0.606576
vt 0.131888 0.606576
vt 0.131888 0.641516
vt 0.097303 0.587589
vt 0.131888 0.587590
vt 0.854604 0.076944
vt 0.854604 0.006294
vt 0.971663 0.006294
vt 0.971663 0.076944
vt 0.765779 0.058551
vt 0.765779 0.006294
vt 0.971663 0.158605
vt 0.903242 0.158605
vt 0.673152 0.044331
vt 0.673152 0.006294
vt 0.971663 0.236784
vt 0.905885 0.236784
vt 0.602474 0.045066
vt 0.602474 0.006294
vt 0.971663 0.295784
vt 0.936786 0.295784
vt 0.484166 0.006294
vt 0.547808 0.083484
vt 0.971663 0.383813
vt 0.922848 0.383813
vt 0.572609 0.183078
vt 0.484166 0.183078
vt 0.971663 0.493792
vt 0.939154 0.436576
vt 0.576753 0.266900
vt 0.484166 0.266900
vt 0.897733 0.493792
vt 0.897733 0.402352
vt 0.595791 0.192633
vt 0.612875 0.215624
vt 0.558955 0.347406
vt 0.484166 0.347406
vt 0.750265 0.493792
vt 0.815825 0.381499
vt 0.570891 0.403178
vt 0.484166 0.403178
vt 0.730455 0.470673
vt 0.756134 0.398936
vt 0.534402 0.463909
vt 0.484166 0.493792
vt 0.660073 0.493792
vt 0.660073 0.438578
vt 0.598512 0.439263
vt 0.598512 0.493792
vt 0.693525 0.404338
vt 0.723348 0.410417
vt 0.973525 0.993706
vt 0.856466 0.993706
vt 0.856466 0.923056
vt 0.973525 0.923056
vt 0.767641 0.993706
vt 0.767641 0.941449
vt 0.905104 0.841395
vt 0.973525 0.841395
vt 0.675014 0.993706
vt 0.675014 0.955669
vt 0.907747 0.763216
vt 0.973525 0.763216
vt 0.604336 0.993706
vt 0.604336 0.954934
vt 0.938648 0.704216
vt 0.973525 0.704216
vt 0.486028 0.993706
vt 0.549670 0.916516
vt 0.924710 0.616187
vt 0.973525 0.616187
vt 0.486028 0.816922
vt 0.574471 0.816922
vt 0.941016 0.563424
vt 0.973525 0.506208
vt 0.486028 0.733100
vt 0.578615 0.733100
vt 0.899595 0.597648
vt 0.899595 0.506208
vt 0.486028 0.652594
vt 0.560817 0.652594
vt 0.614737 0.784375
vt 0.597653 0.806850
vt 0.817687 0.618501
vt 0.752127 0.506208
vt 0.486028 0.596822
vt 0.572753 0.596822
vt 0.757996 0.601064
vt 0.732317 0.529327
vt 0.486028 0.506208
vt 0.536264 0.536091
vt 0.661935 0.561422
vt 0.661935 0.506208
vt 0.600374 0.506208
vt 0.600374 0.560737
vt 0.725210 0.589583
vt 0.695387 0.593396
vn -0.335086 0.942167 0.006167
vn -0.409439 0.912180 0.016957
vn -0.403832 0.914675 0.017004
vn -0.335086 0.942167 0.006167
vn 0.993115 0.117144 0.000000
vn 0.993115 0.117144 0.000000
vn 0.993115 0.117144 0.000000
vn 0.993115 0.117144 0.000000
vn -0.941501 0.337012 0.000000
vn -0.941501 0.337012 0.000000
vn -0.941501 0.337012 0.000000
vn -0.941501 0.337012 0.000000
vn 0.817508 -0.575918 0.000000
vn 0.925524 -0.378690 0.000000
vn 0.925524 -0.378690 0.000000
vn 0.817508 -0.575918 0.000000
vn -0.280394 0.959885 0.000000
vn 0.024117 0.999709 0.000000
vn 0.024117 0.999709 0.000000
vn -0.280394 0.959885 0.000000
vn 0.389827 0.920880 0.003904
vn 0.629285 0.777167 0.003295
vn 0.627947 0.778249 0.003299
vn 0.389827 0.920880 0.003904
vn 0.970366 0.241641 0.000000
vn 0.970366 0.241641 0.000000
vn 0.970366 0.241641 0.000000
vn 0.970366 0.241641 0.000000
vn 0.246716 0.969088 0.000000
vn 0.246716 0.969088 0.000000
vn 0.636958 0.770898 0.000000
vn 0.636958 0.770898 0.000000
vn 0.636958 0.770898 0.000000
vn 0.636958 0.770898 0.000000
vn 0.574986 -0.818163 0.000000
vn 0.574986 -0.818163 0.000000
vn 0.574986 -0.818163 0.000000
vn 0.574986 -0.818163 0.000000
vn -0.955418 -0.295256 0.000000
vn -0.999859 -0.016818 0.000000
vn -0.999859 -0.016818 0.000000
vn -0.955418 -0.295256 0.000000
vn -0.082298 -0.996608 0.000000
vn 0.010403 -0.999946 0.000000
vn 0.010403 -0.999946 0.000000
vn -0.082298 -0.996608 0.000000
vn -0.987697 0.156378 0.000000
vn -0.987697 0.156378 0.000000
vn -0.885858 -0.463957 0.000000
vn -0.971381 -0.237525 0.000000
vn -0.971381 -0.237525 0.000000
vn -0.885858 -0.463957 0.000000
vn -0.176902 -0.984229 0.000000
vn -0.176902 -0.984229 0.000000
vn -0.999429 -0.033785 0.000000
vn -0.999429 -0.033785 0.000000
vn 1.000000 0.000000 0.000000
vn 1.000000 0.000000 0.000000
vn 1.000000 0.000000 0.000000
vn 1.000000 0.000000 0.000000
vn 0.000000 1.000000 0.000000
vn 0.000000 1.000000 0.000000
vn 0.000000 1.000000 0.000000
vn 0.000000 1.000000 0.000000
vn -0.202767 -0.979227 0.000000
vn -0.202767 -0.979227 0.000000
vn -0.859152 -0.511720 0.000000
vn -0.859152 -0.511720 0.000000
vn -0.859152 -0.511720 0.000000
vn -0.859152 -0.511720 0.000000
vn 0.000000 0.000000 -1.000000
vn 0.000000 0.000000 -1.000000
vn 0.000000 0.000000 -1.000000
vn 0.000000 0.000000 -1.000000
vn 0.000000 0.000000 1.000000
vn 0.000000 0.000000 1.000000
vn 0.000000 0.000000 1.000000
vn 0.000000 0.000000 1.000000
vn 0.999076 -0.042970 0.000000
vn 0.999076 -0.042970 0.000000
vn -1.000000 0.000000 0.000000
vn -1.000000 0.000000 0.000000
vn -1.000000 0.000000 0.000000
vn -1.000000 0.000000 0.000000
vn 0.000000 -1.000000 0.000000
vn 0.000000 -1.000000 0.000000
vn 0.000000 -1.000000 0.000000
vn 0.000000 -1.000000 0.000000
vn 0.977856 0.209278 0.000000
vn 0.977856 0.209278 0.000000
vn -0.197593 0.980284 0.000000
vn -0.197593 0.980284 0.000000
vn 0.857176 -0.515024 0.000000
vn 0.857176 -0.515024 0.000000
vn 0.857176 -0.515024 0.000000
vn 0.857176 -0.515024 0.000000
vn -0.358834 0.933401 0.000000
vn -0.358834 0.933401 0.000000
vn 0.000000 0.000000 -1.000000
vn 0.000000 0.000000 -1.000000
vn 0.000000 0.000000 -1.000000
vn 0.000000 0.000000 -1.000000
vn 0.000000 1.000000 -0.000000
vn 0.000000 1.000000 -0.000000
vn 0.000000 1.000000 0.000000
vn 0.000000 1.000000 0.000000
vn 0.000000 0.000000 1.000000
vn 0.000000 0.000000 1.000000
vn 0.000000 0.000000 1.000000
vn 0.000000 0.000000 1.000000
vn 0.000000 0.000000 -1.000000
vn 0.000000 0.000000 -1.000000
vn 0.000000 1.000000 -0.000000
vn 0.000000 1.000000 -0.000000
vn 0.000000 0.000000 1.000000
vn 0.000000 0.000000 1.000000
vn 0.000000 0.000000 -1.000000
vn 0.000000 0.000000 -1.000000
vn 0.000000 1.000000 0.000000
vn 0.000000 1.000000 0.000000
vn 0.000000 0.000000 1.000000
vn 0.000000 0.000000 1.000000
vn 0.000000 0.000000 1.000000
vn 0.000000 0.000000 1.000000
vn 0.000000 0.000000 -1.000000
vn 0.000000 0.000000 -1.000000
vn 0.000000 0.000000 -1.000000
vn 0.000000 0.000000 -1.000000
vn 0.000000 0.000000 -1.000000
vn -1.000000 0.000000 0.000000
vn -1.000000 0.000000 0.000000
vn -1.000000 0.000000 0.000000
vn -1.000000 0.000000 0.000000
vn 0.000000 0.000000 1.000000
vn 0.000000 0.000000 1.000000
vn 0.000000 0.000000 1.000000
vn 0.000000 0.000000 -1.000000
vn 0.000000 0.000000 -1.000000
vn 0.000000 0.000000 -1.000000
vn 0.000000 0.000000 1.000000
vn 0.000000 0.000000 1.000000
vn 0.000000 0.000000 1.000000
vn 0.000000 0.000000 -1.000000
vn 0.000000 0.000000 -1.000000
vn 0.000000 0.000000 -1.000000
vn 0.000000 0.000000 -1.000000
vn -1.000000 0.000000 0.000000
vn -1.000000 0.000000 0.000000
vn -1.000000 0.000000 0.000000
vn -1.000000 0.000000 0.000000
vn 0.000000 0.000000 1.000000
vn 0.000000 0.000000 1.000000
vn 0.000000 0.000000 1.000000
vn 0.000000 0.000000 1.000000
vn 0.000000 0.000000 -1.000000
vn 0.000000 0.000000 -1.000000
vn 0.000000 0.000000 -1.000000
vn 0.000000 0.000000 -1.000000
vn 0.000000 0.000000 1.000000
vn 0.000000 0.000000 1.000000
vn 0.000000 0.000000 1.000000
vn 0.000000 0.000000 1.000000
vn 0.000000 -1.000000 0.000000
vn 0.000000 -1.000000 0.000000
vn 0.000000 0.000000 -1.000000
vn 0.000000 0.000000 -1.000000
vn 0.000000 0.000000 1.000000
vn 0.000000 0.000000 1.000000
vn 0.000000 0.000000 1.000000
vn 0.000000 0.000000 1.000000
vn 0.000000 -1.000000 0.000000
vn 0.000000 -1.000000 0.000000
vn 0.000000 -1.000000 0.000000
vn 0.000000 -1.000000 0.000000
vn 0.000000 0.000000 -1.000000
vn 0.000000 0.000000 -1.000000
vn 0.163602 0.986356 0.018336
vn 0.163602 0.986356 0.018336
vn 0.799413 0.600776 0.002547
vn 0.799413 0.600776 0.002547
vn 0.000000 0.000000 1.000000
vn 0.000000 0.000000 1.000000
vn 0.000000 0.000000 1.000000
vn 1.000000 0.000000 0.000000
vn 1.000000 0.000000 0.000000
vn 1.000000 0.000000 0.000000
vn 1.000000 0.000000 0.000000
vn 0.000000 0.000000 -1.000000
vn 0.000000 0.000000 -1.000000
vn 0.000000 0.000000 -1.000000
vn 0.000000 0.000000 -1.000000
vn 0.000000 0.000000 1.000000
vn 0.000000 0.000000 -1.000000
vn 0.000000 0.000000 -1.000000
vn 0.000000 -1.000000 0.000000
vn 0.000000 -1.000000 0.000000
vn 0.000000 0.000000 1.000000
vn 0.000000 0.000000 1.000000
vn 0.000000 0.000000 1.000000
vn 0.000000 0.000000 1.000000
vn 0.000000 0.000000 -1.000000
vn 0.000000 0.000000 -1.000000
vn 0.000000 0.000000 -1.000000
vn 0.000000 0.000000 -1.000000
vn 0.000000 0.000000 1.000000
vn 0.000000 0.000000 1.000000
vn 1.000000 0.000000 0.000000
vn 1.000000 0.000000 0.000000
vn 0.000000 0.000000 -1.000000
vn 0.000000 0.000000 -1.000000
vn 0.000000 0.000000 -1.000000
vn 0.000000 0.000000 -1.000000
vn 1.000000 0.000000 0.000000
vn 1.000000 0.000000 0.000000
vn 1.000000 0.000000 0.000000
vn 1.000000 0.000000 0.000000
vn 0.000000 0.000000 1.000000
vn 0.000000 0.000000 1.000000
vn 0.000000 0.000000 1.000000
vn 0.000000 0.000000 1.000000
s 1
g pCube2
usemtl initialShadingGroup
f 1/92/1 75/95/2 76/96/3 4/93/4
s off
f 2/1/5 5/2/6 6/3/7 3/4/8
f 5/2/9 7/5/10 8/6/11 6/3/12
s 2
f 9/45/13 10/39/14 11/42/15 12/46/16
s 3
f 7/5/17 13/63/18 14/64/19 8/6/20
s 4
f 15/8/21 77/50/22 78/49/23 16/9/24
s off
f 17/7/25 15/8/26 16/9/27 18/10/28
s 3
f 13/63/18 19/65/29 20/66/30 14/64/19
s off
f 19/65/31 21/13/32 22/16/33 20/66/34
f 23/11/35 17/7/36 18/10/37 24/12/38
s 5
f 21/13/39 25/14/40 26/15/41 22/16/42
s 6
f 27/67/43 23/68/44 24/69/45 28/70/46
s 5
f 25/14/40 29/17/47 30/18/48 26/15/41
s 7
f 29/17/49 31/19/50 32/20/51 30/18/52
s 6
f 33/71/53 27/67/43 28/70/46 34/72/54
s 7
f 31/19/50 35/21/55 36/22/56 32/20/51
s 8
f 81/25/57 82/26/58 39/27/59 40/28/60
s 9
f 79/73/61 80/74/62 40/28/63 39/27/64
s 6
f 43/23/65 33/71/53 34/72/54 44/24/66
s off
f 35/21/67 43/23/68 44/24/69 36/22/70
s 10
f 44/97/71 79/98/72 39/99/73 82/100/74
s 11
f 40/143/75 80/144/76 43/145/77 81/146/78
s 2
f 10/39/14 54/40/79 45/41/80 11/42/15
s 12
f 61/51/81 62/52/82 41/53/83 42/54/84
s 13
f 71/83/85 72/84/86 69/85/87 70/86/88
s 2
f 54/40/79 53/43/89 46/44/90 45/41/80
s 1
f 51/91/91 1/92/1 4/93/4 48/94/92
s off
f 53/43/93 52/47/94 47/48/95 46/44/96
s 1
f 52/47/97 51/91/91 48/94/92 47/48/98
s 10
f 28/105/99 57/106/100 55/102/101 34/101/102
s 9
f 57/77/103 58/78/104 56/76/105 55/75/106
s 11
f 58/151/107 27/152/108 33/148/109 56/147/110
s 10
f 24/109/111 59/110/112 57/106/100 28/105/99
s 9
f 59/79/113 60/80/114 58/78/104 57/77/103
s 11
f 60/155/115 23/156/116 27/152/108 58/151/107
s 10
f 42/113/117 59/110/112 24/109/111 18/114/118
s 9
f 41/81/119 60/80/114 59/79/113 42/82/120
s 11
f 62/163/121 15/164/122 17/160/123 41/159/124
f 41/159/124 17/160/123 23/156/116 60/155/115
s 10
f 42/113/117 18/114/118 16/117/125 61/118/126
f 11/121/127 16/117/125 78/125/128 12/126/129
s 12
f 65/57/130 66/58/131 63/56/132 64/55/133
s 11
f 15/164/122 10/168/134 9/173/135 77/174/136
s 10
f 64/122/137 11/121/127 45/127/138 65/128/139
s 11
f 66/171/140 54/172/141 10/168/134 63/167/142
f 63/167/142 10/168/134 15/164/122 62/163/121
s 12
f 64/55/133 63/56/132 62/52/82 61/51/81
s 10
f 61/118/126 16/117/125 11/121/127 64/122/137
f 68/132/143 46/131/144 47/135/145 49/136/146
s 12
f 49/61/147 50/62/148 67/60/149 68/59/150
s 11
f 50/181/151 52/182/152 53/178/153 67/177/154
f 67/177/154 53/178/153 54/172/141 66/171/140
s 12
f 68/59/150 67/60/149 66/58/131 65/57/130
s 10
f 65/128/139 45/127/138 46/131/144 68/132/143
f 6/133/155 4/138/156 76/141/157 3/142/158
s 11
f 1/183/159 5/180/160 2/187/161 75/188/162
s 13
f 70/86/88 69/85/87 83/89/163 84/90/164
s 10
f 72/137/165 4/138/156 6/133/155 69/129/166
s 11
f 1/183/159 71/184/167 70/176/168 5/180/160
f 50/181/151 74/185/169 51/186/170 52/182/152
s 13
f 49/61/171 73/88/172 74/87/173 50/62/174
s 10
f 49/136/146 47/135/145 48/139/175 73/140/176
f 73/140/176 48/139/175 4/138/156 72/137/165
s 13
f 74/87/173 73/88/172 72/84/86 71/83/85
s 11
f 51/186/170 74/185/169 71/184/167 1/183/159
s 1
f 76/96/3 75/95/2 2/1/177 3/4/178
s 4
f 78/49/23 77/50/22 9/45/179 12/46/180
s 10
f 34/101/102 55/102/101 79/98/72 44/97/71
s 9
f 55/75/106 56/76/105 80/74/62 79/73/61
s 11
f 43/145/77 80/144/76 56/147/110 33/148/109
f 84/170/181 19/169/182 13/175/183 70/176/168
s 8
f 85/35/184 86/36/185 87/34/186 88/33/187
s 10
f 14/130/188 69/129/166 6/133/155 8/134/189
f 20/124/190 83/123/191 69/129/166 14/130/188
s 11
f 70/176/168 13/175/183 7/179/192 5/180/160
s 10
f 22/120/193 38/119/194 83/123/191 20/124/190
s 13
f 84/90/164 83/89/163 38/38/195 37/37/196
s 11
f 88/158/197 29/157/198 25/161/199 85/162/200
s 10
f 30/112/201 87/111/202 86/115/203 26/116/204
s 11
f 37/166/205 21/165/206 19/169/182 84/170/181
f 85/162/200 25/161/199 21/165/206 37/166/205
s 8
f 37/37/207 38/38/208 86/36/185 85/35/184
s 10
f 26/116/204 86/115/203 38/119/194 22/120/193
f 36/104/209 91/103/210 90/107/211 32/108/212
s 8
f 89/31/213 90/32/214 91/30/215 92/29/216
s 11
f 92/150/217 35/149/218 31/153/219 89/154/220
f 89/154/220 31/153/219 29/157/198 88/158/197
s 8
f 88/33/187 87/34/186 90/32/214 89/31/213
s 10
f 32/108/212 90/107/211 87/111/202 30/112/201
f 44/97/71 82/100/74 91/103/210 36/104/209
s 8
f 92/29/216 91/30/215 82/26/58 81/25/57
s 11
f 81/146/78 43/145/77 35/149/218 92/150/217
