# This file uses centimeters as units for non-parametric coordinates.

g default
v -1.708874 0.169148 0.500000
v -1.234529 0.169148 0.500000
v -1.708874 2.404597 0.500000
v -1.234529 2.404597 0.500000
v -1.708874 2.404597 -0.500000
v -1.234529 2.404597 -0.500000
v -1.708874 0.169148 -0.500000
v -1.234529 0.169148 -0.500000
vt 0.012294 0.505862
vt 0.496639 0.505862
vt 0.496639 0.990207
vt 0.012294 0.990207
vt 0.507421 0.505862
vt 0.991765 0.505862
vt 0.991765 0.990207
vt 0.507421 0.990207
vt 0.514898 0.108615
vt 0.701023 0.108615
vt 0.701023 0.294739
vt 0.514898 0.294739
vt 0.514140 0.303221
vt 0.700265 0.303221
vt 0.700265 0.489346
vt 0.514140 0.489346
vt 0.012294 0.007679
vt 0.496639 0.007679
vt 0.496639 0.492024
vt 0.012294 0.492024
vt 0.714123 0.303221
vt 0.900248 0.303221
vt 0.900248 0.489346
vt 0.714123 0.489346
vn 0.000000 0.000000 1.000000
vn 0.000000 0.000000 1.000000
vn 0.000000 0.000000 1.000000
vn 0.000000 0.000000 1.000000
vn 0.000000 1.000000 0.000000
vn 0.000000 1.000000 0.000000
vn 0.000000 1.000000 0.000000
vn 0.000000 1.000000 0.000000
vn 0.000000 0.000000 -1.000000
vn 0.000000 0.000000 -1.000000
vn 0.000000 0.000000 -1.000000
vn 0.000000 0.000000 -1.000000
vn 0.000000 -1.000000 0.000000
vn 0.000000 -1.000000 0.000000
vn 0.000000 -1.000000 0.000000
vn 0.000000 -1.000000 0.000000
vn 1.000000 0.000000 0.000000
vn 1.000000 0.000000 0.000000
vn 1.000000 0.000000 0.000000
vn 1.000000 0.000000 0.000000
vn -1.000000 0.000000 0.000000
vn -1.000000 0.000000 0.000000
vn -1.000000 0.000000 0.000000
vn -1.000000 0.000000 0.000000
s off
g wall
f 1/17/1 2/18/2 4/19/3 3/20/4
f 3/9/5 4/10/6 6/11/7 5/12/8
f 5/21/9 6/22/10 8/23/11 7/24/12
f 7/13/13 8/14/14 2/15/15 1/16/16
f 2/1/17 8/2/18 6/3/19 4/4/20
f 7/5/21 1/6/22 3/7/23 5/8/24
