# This file uses centimeters as units for non-parametric coordinates.

mtllib walkway.mtl
g default
v -3.085270 -0.149388 -0.500000
v -3.085270 -0.149388 0.500000
v -3.085270 0.149388 -0.500000
v -3.085270 0.149388 0.500000
v 3.085270 0.149388 -0.500000
v 3.085270 0.149388 0.500000
v 3.085270 -0.149388 -0.500000
v 3.085270 -0.149388 0.500000
vt 0.409564 0.797382
vt 0.593323 0.797382
vt 0.593323 0.981140
vt 0.409564 0.981140
vt 0.018690 0.001992
vt 0.988200 0.001992
vt 0.988200 0.331472
vt 0.018690 0.331472
vt 0.018625 0.984888
vt 0.018625 0.801130
vt 0.202383 0.801130
vt 0.202383 0.984888
vt 0.012779 0.340527
vt 0.976218 0.340527
vt 0.976218 0.670007
vt 0.012779 0.670007
vt 0.010128 0.782217
vt 0.010128 0.684177
vt 0.902491 0.684177
vt 0.902491 0.782217
vt 0.209667 0.979824
vt 0.209667 0.796065
vt 0.393426 0.796065
vt 0.393426 0.979824
vn -1.000000 0.000000 0.000000
vn -1.000000 0.000000 0.000000
vn -1.000000 0.000000 0.000000
vn -1.000000 0.000000 0.000000
vn 0.000000 1.000000 0.000000
vn 0.000000 1.000000 0.000000
vn 0.000000 1.000000 0.000000
vn 0.000000 1.000000 0.000000
vn 1.000000 0.000000 0.000000
vn 1.000000 0.000000 0.000000
vn 1.000000 0.000000 0.000000
vn 1.000000 0.000000 0.000000
vn 0.000000 -1.000000 0.000000
vn 0.000000 -1.000000 0.000000
vn 0.000000 -1.000000 0.000000
vn 0.000000 -1.000000 0.000000
vn 0.000000 0.000000 1.000000
vn 0.000000 0.000000 1.000000
vn 0.000000 0.000000 1.000000
vn 0.000000 0.000000 1.000000
vn -0.000000 0.000000 -1.000000
vn -0.000000 0.000000 -1.000000
vn -0.000000 0.000000 -1.000000
vn -0.000000 0.000000 -1.000000
s off
g walkway:walkway
usemtl walkway:initialShadingGroup
f 1/1/1 2/2/2 4/3/3 3/4/4
f 3/5/5 4/6/6 6/7/7 5/8/8
f 5/9/9 6/10/10 8/11/11 7/12/12
f 7/13/13 8/14/14 2/15/15 1/16/16
f 2/17/17 8/18/18 6/19/19 4/20/20
f 7/21/21 1/22/22 3/23/23 5/24/24
