# This file uses centimeters as units for non-parametric coordinates.

mtllib elevator.mtl
g default
v -0.500000 0.000000 0.000000
v 0.500000 0.000000 0.000000
v -0.500000 2.000000 0.000000
v 0.500000 2.000000 0.000000
v -0.500000 2.000000 -1.000000
v 0.500000 2.000000 -1.000000
v -0.500000 0.000000 -1.000000
v 0.500000 0.000000 -1.000000
v -0.452180 0.095640 0.000000
v 0.452180 0.095640 0.000000
v 0.452180 1.904360 0.000000
v -0.452180 1.904360 0.000000
v -0.452180 0.095640 -0.568944
v 0.452180 0.095640 -0.568944
v 0.452180 1.904360 -0.568944
v -0.452180 1.904360 -0.568944
v -0.452180 0.095640 -0.115149
v -0.452180 1.904360 -0.115149
v 0.452180 1.904360 -0.115149
v 0.452180 0.095640 -0.115149
v -0.452180 0.095640 -0.237661
v -0.452180 1.904360 -0.237661
v 0.452180 1.904360 -0.237661
v 0.452180 0.095640 -0.237661
v -0.016030 0.105558 -0.115149
v -0.016030 1.894442 -0.115149
v -0.016030 0.105558 -0.237661
v -0.016030 1.894442 -0.237661
v -0.016030 0.115263 -0.144096
v -0.016030 1.884737 -0.144096
v -0.016030 0.115263 -0.208714
v -0.016030 1.884737 -0.208714
v 0.438428 0.115263 -0.144096
v 0.438428 1.884737 -0.144096
v 0.438428 0.115263 -0.208714
v 0.438428 1.884737 -0.208714
vt 0.214082 0.413132
vt 0.214082 0.001992
vt 0.419652 0.001992
vt 0.419652 0.413132
vt 0.426112 0.001992
vt 0.631682 0.001992
vt 0.631682 0.413132
vt 0.426112 0.413132
vt 0.744331 0.416876
vt 0.744331 0.788695
vt 0.720660 0.788695
vt 0.720660 0.416876
vt 0.695475 0.788695
vt 0.695475 0.416876
vt 0.627374 0.788695
vt 0.627374 0.416876
vt 0.597948 0.788695
vt 0.597948 0.416876
vt 0.621619 0.416876
vt 0.621619 0.788695
vt 0.283289 0.780627
vt 0.283289 0.416876
vt 0.296573 0.416876
vt 0.296573 0.780627
vt 0.524092 0.788695
vt 0.524092 0.416876
vt 0.592194 0.416876
vt 0.592194 0.788695
vt 0.302327 0.784617
vt 0.302327 0.416876
vt 0.308277 0.418871
vt 0.308277 0.782622
vt 0.327511 0.416876
vt 0.321561 0.418871
vt 0.327511 0.784617
vt 0.321561 0.782622
vt 0.001868 0.784370
vt 0.207438 0.784370
vt 0.207438 0.989940
vt 0.001868 0.989940
vt 0.419652 0.792438
vt 0.419652 0.998008
vt 0.214082 0.998008
vt 0.214082 0.792438
vt 0.426112 0.978347
vt 0.426112 0.792438
vt 0.449783 0.792438
vt 0.449783 0.978347
vt 0.474968 0.792438
vt 0.474968 0.978347
vt 0.543070 0.792438
vt 0.543070 0.978347
vt 0.667364 0.792438
vt 0.667364 0.978347
vt 0.643693 0.978347
vt 0.643693 0.792438
vt 0.618508 0.978347
vt 0.618508 0.792438
vt 0.550406 0.978347
vt 0.550406 0.792438
vt 0.740098 0.882097
vt 0.714913 0.882097
vt 0.714913 0.792438
vt 0.740098 0.792438
vt 0.771171 0.882097
vt 0.745986 0.882097
vt 0.745986 0.792438
vt 0.771171 0.792438
vt 0.687984 0.885861
vt 0.674700 0.885861
vt 0.674700 0.792438
vt 0.687984 0.792438
vt 0.708090 0.885861
vt 0.694806 0.885861
vt 0.694806 0.792438
vt 0.708090 0.792438
vt 0.750085 0.416876
vt 0.935995 0.416876
vt 0.935995 0.788695
vt 0.750085 0.788695
vt 0.001868 0.001992
vt 0.207438 0.001992
vt 0.207438 0.413132
vt 0.001868 0.413132
vt 0.638143 0.001992
vt 0.843713 0.001992
vt 0.833883 0.021653
vt 0.647973 0.021653
vt 0.843713 0.413132
vt 0.833883 0.393472
vt 0.638143 0.413132
vt 0.647973 0.393472
vt 0.428679 0.788695
vt 0.428679 0.416876
vt 0.518338 0.418915
vt 0.518338 0.786656
vt 0.333266 0.788695
vt 0.333266 0.416876
vt 0.422925 0.418915
vt 0.422925 0.786656
vt 0.184112 0.780627
vt 0.184112 0.416876
vt 0.277535 0.416876
vt 0.277535 0.780627
vt 0.084935 0.780627
vt 0.084935 0.416876
vt 0.178358 0.416876
vt 0.178358 0.780627
vn 0.000000 0.000000 1.000000
vn 0.000000 0.000000 1.000000
vn 0.000000 0.000000 1.000000
vn 0.000000 0.000000 1.000000
vn 0.000000 1.000000 0.000000
vn 0.000000 1.000000 0.000000
vn 0.000000 1.000000 0.000000
vn 0.000000 1.000000 0.000000
vn 0.000000 0.000000 -1.000000
vn 0.000000 0.000000 -1.000000
vn 0.000000 0.000000 -1.000000
vn 0.000000 0.000000 -1.000000
vn 0.000000 -1.000000 0.000000
vn 0.000000 -1.000000 0.000000
vn 0.000000 -1.000000 0.000000
vn 0.000000 -1.000000 0.000000
vn 1.000000 0.000000 0.000000
vn 1.000000 0.000000 0.000000
vn 1.000000 0.000000 0.000000
vn 1.000000 0.000000 0.000000
vn -1.000000 0.000000 0.000000
vn -1.000000 0.000000 0.000000
vn -1.000000 0.000000 0.000000
vn -1.000000 0.000000 0.000000
vn 0.000000 0.000000 1.000000
vn 0.000000 0.000000 1.000000
vn 0.000000 0.000000 1.000000
vn 0.000000 0.000000 1.000000
vn 0.000000 0.000000 1.000000
vn 0.000000 0.000000 1.000000
vn 0.000000 0.000000 1.000000
vn 0.000000 0.000000 1.000000
vn 0.000000 0.000000 1.000000
vn 0.000000 0.000000 1.000000
vn 0.000000 0.000000 1.000000
vn 0.000000 0.000000 1.000000
vn 0.000000 0.000000 1.000000
vn 0.000000 0.000000 1.000000
vn 0.000000 0.000000 1.000000
vn 0.000000 0.000000 1.000000
vn 0.000000 1.000000 0.000000
vn 0.000000 1.000000 0.000000
vn 0.000000 1.000000 -0.000000
vn 0.000000 1.000000 -0.000000
vn -1.000000 0.000000 0.000000
vn -1.000000 0.000000 0.000000
vn -1.000000 0.000000 0.000000
vn -1.000000 0.000000 0.000000
vn 0.000000 -1.000000 0.000000
vn 0.000000 -1.000000 0.000000
vn 0.000000 -1.000000 0.000001
vn 0.000000 -1.000000 0.000001
vn 1.000000 0.000000 0.000000
vn 1.000000 0.000000 0.000000
vn 1.000000 0.000000 0.000000
vn 1.000000 0.000000 0.000000
vn 1.000000 0.000000 0.000000
vn 1.000000 0.000000 0.000000
vn 1.000000 0.000000 0.000000
vn 1.000000 0.000000 0.000000
vn 0.000000 -1.000000 0.000000
vn 0.000000 -1.000000 0.000000
vn -1.000000 0.000000 0.000000
vn -1.000000 0.000000 0.000000
vn 0.000000 1.000000 0.000000
vn 0.000000 1.000000 0.000000
vn 1.000000 0.000000 0.000000
vn 1.000000 0.000000 0.000000
vn 1.000000 0.000000 0.000000
vn 1.000000 0.000000 0.000000
vn 0.000000 -1.000000 -0.000000
vn 0.000000 -1.000000 -0.000000
vn -1.000000 0.000000 0.000000
vn -1.000000 0.000000 0.000000
vn 0.000000 1.000000 0.000000
vn 0.000000 1.000000 0.000000
vn 0.000000 0.000000 1.000000
vn 0.000000 0.000000 1.000000
vn 0.000000 0.000000 1.000000
vn 0.000000 0.000000 1.000000
vn 0.022734 -0.999742 0.000000
vn 0.022734 -0.999742 0.000000
vn 0.022734 -0.999742 0.000000
vn 0.022734 -0.999742 0.000000
vn -0.000000 0.000000 -1.000000
vn -0.000000 0.000000 -1.000000
vn -0.000000 0.000000 -1.000000
vn -0.000000 0.000000 -1.000000
vn 0.022734 0.999742 -0.000002
vn 0.022734 0.999742 -0.000002
vn 0.022734 0.999742 -0.000002
vn 0.022734 0.999742 -0.000002
vn 1.000000 0.000000 0.000000
vn 1.000000 0.000000 0.000000
vn 1.000000 0.000000 0.000000
vn 1.000000 0.000000 0.000000
vn 1.000000 -0.000000 0.000000
vn 1.000000 -0.000000 0.000000
vn 1.000000 -0.000000 0.000000
vn 1.000000 -0.000000 0.000000
vn 1.000000 0.000000 0.000000
vn 1.000000 0.000000 0.000000
vn 1.000000 0.000000 0.000000
vn 1.000000 0.000000 0.000000
vn 1.000000 0.000000 0.000000
vn 1.000000 0.000000 0.000000
vn 1.000000 0.000000 0.000000
vn 1.000000 0.000000 0.000000
vn 0.000000 0.000000 1.000000
vn 0.000000 0.000000 1.000000
vn 0.000000 0.000000 1.000000
vn 0.000000 0.000000 1.000000
vn 0.000000 -1.000000 0.000000
vn 0.000000 -1.000000 0.000000
vn 0.000000 -1.000000 0.000000
vn 0.000000 -1.000000 0.000000
vn 0.000000 0.000000 -1.000000
vn 0.000000 0.000000 -1.000000
vn 0.000000 0.000000 -1.000000
vn 0.000000 0.000000 -1.000000
vn 0.000000 1.000000 -0.000002
vn 0.000000 1.000000 -0.000002
vn 0.000000 1.000000 -0.000002
vn 0.000000 1.000000 -0.000002
s off
g pCube1
usemtl initialShadingGroup
f 13/77/1 14/78/2 15/79/3 16/80/4
f 3/37/5 4/38/6 6/39/7 5/40/8
f 5/81/9 6/82/10 8/83/11 7/84/12
f 8/41/13 2/42/14 1/43/15 7/44/16
f 4/1/17 2/2/18 8/3/19 6/4/20
f 7/5/21 1/6/22 3/7/23 5/8/24
f 1/85/25 2/86/26 10/87/27 9/88/28
f 2/86/29 4/89/30 11/90/31 10/87/32
f 4/89/33 3/91/34 12/92/35 11/90/36
f 3/91/37 1/85/38 9/88/39 12/92/40
s 1
f 9/45/41 10/46/42 20/47/43 17/48/44
s 2
f 10/9/45 11/10/46 19/11/47 20/12/48
s 3
f 11/53/49 12/54/50 18/55/51 19/56/52
s off
f 12/17/53 9/18/54 17/19/55 18/20/56
f 34/21/57 33/22/58 35/23/59 36/24/60
s 3
f 19/56/52 18/55/51 22/57/61 23/58/62
s 2
f 20/12/48 19/11/47 23/13/63 24/14/64
s 1
f 17/48/44 20/47/43 24/49/65 21/50/66
s off
f 22/25/67 21/26/68 13/27/69 16/28/70
s 3
f 23/58/62 22/57/61 16/59/71 15/60/72
s 2
f 24/14/64 23/13/63 15/15/73 14/16/74
s 1
f 21/50/66 24/49/65 14/51/75 13/52/76
s off
f 18/93/77 17/94/78 25/95/79 26/96/80
f 17/61/81 21/62/82 27/63/83 25/64/84
f 21/97/85 22/98/86 28/99/87 27/100/88
f 22/65/89 18/66/90 26/67/91 28/68/92
f 26/29/93 25/30/94 29/31/95 30/32/96
f 25/30/97 27/33/98 31/34/99 29/31/100
f 27/33/101 28/35/102 32/36/103 31/34/104
f 28/35/105 26/29/106 30/32/107 32/36/108
f 30/101/109 29/102/110 33/103/111 34/104/112
f 29/69/113 31/70/114 35/71/115 33/72/116
f 31/105/117 32/106/118 36/107/119 35/108/120
f 32/73/121 30/74/122 34/75/123 36/76/124
